<?xml version="1.0" encoding="utf-8"?>
<!-- Generator: Adobe Illustrator 27.6.1, SVG Export Plug-In . SVG Version: 6.00 Build 0)  -->
<svg version="1.1" id="Layer_1" xmlns="http://www.w3.org/2000/svg" xmlns:xlink="http://www.w3.org/1999/xlink" x="0px" y="0px"
	 viewBox="0 0 180 135" style="enable-background:new 0 0 180 135;" xml:space="preserve">
<style type="text/css">
	.st0{fill:#FFFFFF;}
	.st1{fill-rule:evenodd;clip-rule:evenodd;fill:#85C1B7;}
	.st2{fill-rule:evenodd;clip-rule:evenodd;fill:#29255C;}
	.st3{fill-rule:evenodd;clip-rule:evenodd;fill:#FEF1EE;stroke:#29255C;stroke-width:0.5305;stroke-miterlimit:10;}
	.st4{fill-rule:evenodd;clip-rule:evenodd;fill:#FDE1DD;stroke:#29255C;stroke-width:0.5305;stroke-miterlimit:10;}
	.st5{fill-rule:evenodd;clip-rule:evenodd;fill:#F8ACA8;stroke:#29255C;stroke-width:0.5305;stroke-miterlimit:10;}
	.st6{fill-rule:evenodd;clip-rule:evenodd;fill:#FAC6C1;stroke:#29255C;stroke-width:0.5305;stroke-miterlimit:10;}
	.st7{fill-rule:evenodd;clip-rule:evenodd;fill:#EE6F78;stroke:#29255C;stroke-width:0.5305;stroke-miterlimit:10;}
	.st8{fill-rule:evenodd;clip-rule:evenodd;fill:#F59291;stroke:#29255C;stroke-width:0.5305;stroke-miterlimit:10;}
	.st9{fill:#29255C;}
	.st10{fill-rule:evenodd;clip-rule:evenodd;fill:#ECD9E6;}
	.st11{fill:#B4E2EA;}
	.st12{fill:none;stroke:#29255C;stroke-width:0.4268;stroke-miterlimit:10;}
	.st13{fill:#EECDCA;stroke:#29255C;stroke-width:0.4268;stroke-linecap:round;stroke-linejoin:round;stroke-miterlimit:10;}
	.st14{fill:#FFFFFF;stroke:#29255C;stroke-width:0.4268;stroke-linecap:round;stroke-linejoin:round;stroke-miterlimit:10;}
	.st15{fill:none;stroke:#29255C;stroke-width:0.3415;stroke-linecap:round;stroke-linejoin:round;stroke-miterlimit:10;}
	.st16{fill:none;stroke:#29255C;stroke-width:0.4952;stroke-linecap:round;stroke-linejoin:round;stroke-miterlimit:10;}
	.st17{fill:#FDCA95;stroke:#29255C;stroke-width:0.4268;stroke-linecap:round;stroke-linejoin:round;stroke-miterlimit:10;}
	.st18{fill:#FFFFFF;stroke:#29255C;stroke-width:0.4268;stroke-miterlimit:10;}
	.st19{fill:none;stroke:#29255C;stroke-width:0.495;stroke-linecap:round;stroke-linejoin:round;stroke-miterlimit:10;}
	.st20{fill:none;stroke:#29255C;stroke-width:0.4168;stroke-linecap:round;stroke-linejoin:round;stroke-miterlimit:10;}
	.st21{fill:none;stroke:#29255C;stroke-width:0.417;stroke-linecap:round;stroke-linejoin:round;stroke-miterlimit:10;}
	.st22{fill:#FFFFFF;stroke:#29255C;stroke-width:0.4241;stroke-miterlimit:10;}
	.st23{fill:none;stroke:#29255C;stroke-width:0.4241;stroke-linecap:round;stroke-linejoin:round;stroke-miterlimit:10;}
	.st24{fill:#B4E2EA;stroke:#29255C;stroke-width:0.4268;stroke-linecap:round;stroke-linejoin:round;stroke-miterlimit:10;}
	.st25{fill:none;stroke:#29255C;stroke-width:0.4268;stroke-linecap:round;stroke-linejoin:round;stroke-miterlimit:10;}
	.st26{fill:none;stroke:#29255C;stroke-width:0.4497;stroke-miterlimit:10;}
	.st27{fill:none;stroke:#29255C;stroke-width:0.442;stroke-linecap:round;stroke-linejoin:round;stroke-miterlimit:10;}
	.st28{fill:none;stroke:#29255C;stroke-width:0.6024;stroke-linecap:round;stroke-linejoin:round;stroke-miterlimit:10;}
	.st29{fill:#FCDCCB;}
	.st30{fill:#FFFFFF;stroke:#29255C;stroke-width:0.6024;stroke-linecap:round;stroke-linejoin:round;stroke-miterlimit:10;}
	.st31{fill:#FFFFFF;stroke:#28255C;stroke-width:0.6024;stroke-linejoin:round;stroke-miterlimit:10;}
	.st32{fill:#85C1B7;stroke:#29255C;stroke-width:0.4506;stroke-miterlimit:10;}
	.st33{fill:#ECD9E6;}
	.st34{fill:#85C1B7;stroke:#29255C;stroke-width:0.6024;stroke-linecap:round;stroke-linejoin:round;stroke-miterlimit:10;}
	.st35{fill:#C6D0D7;}
	.st36{fill:#97ADB9;}
	.st37{fill:#E8D3D1;}
	.st38{fill:#E0C0BE;}
	.st39{fill:#FEEDEB;}
	.st40{fill:#829EAD;stroke:#29255C;stroke-width:0.4269;stroke-linecap:round;stroke-linejoin:round;stroke-miterlimit:10;}
	.st41{fill:#F4C9C4;stroke:#29255C;stroke-width:0.4269;stroke-linecap:round;stroke-linejoin:round;stroke-miterlimit:10;}
	.st42{fill:#FFFFFF;stroke:#29255C;stroke-width:0.3977;stroke-linecap:round;stroke-linejoin:round;stroke-miterlimit:10;}
	.st43{fill:#D9D7D7;}
	.st44{fill:#9F433D;}
	.st45{fill:#FFFFFF;stroke:#FFFFFF;stroke-width:0.502;stroke-miterlimit:10;}
	.st46{fill:#E3E3ED;}
	.st47{fill:#4A4370;stroke:#29255C;stroke-width:0.4269;stroke-miterlimit:10;}
	.st48{fill:#F2F2F9;}
	.st49{fill:#85C1B7;stroke:#29255C;stroke-width:0.4269;stroke-linecap:round;stroke-linejoin:round;stroke-miterlimit:10;}
	.st50{fill:#FFFFFF;stroke:#29255C;stroke-width:0.4269;stroke-linecap:round;stroke-linejoin:round;stroke-miterlimit:10;}
	.st51{fill:none;stroke:#29255C;stroke-width:0.5369;stroke-linecap:round;stroke-linejoin:round;stroke-miterlimit:10;}
	.st52{fill:none;stroke:#29255C;stroke-width:0.4269;stroke-linecap:round;stroke-linejoin:round;stroke-miterlimit:10;}
	.st53{fill:#FFFFFF;stroke:#28255C;stroke-width:0.3977;stroke-linecap:round;stroke-linejoin:round;stroke-miterlimit:10;}
	.st54{fill:#B55243;}
	.st55{fill:none;stroke:#29255C;stroke-width:0.4973;stroke-linecap:round;stroke-linejoin:round;stroke-miterlimit:10;}
	.st56{fill:none;stroke:#29255C;stroke-width:0.4055;stroke-linecap:round;stroke-linejoin:round;stroke-miterlimit:10;}
	.st57{fill-rule:evenodd;clip-rule:evenodd;fill:#F58220;stroke:#F58220;stroke-width:0.0101;stroke-miterlimit:2.6131;}
	.st58{fill:none;stroke:#29255C;stroke-width:0.5796;stroke-linecap:round;stroke-linejoin:round;stroke-miterlimit:10;}
	.st59{fill:#FFFFFF;stroke:#29255C;stroke-width:0.5796;stroke-linecap:round;stroke-linejoin:round;stroke-miterlimit:10;}
	
		.st60{fill-rule:evenodd;clip-rule:evenodd;fill:none;stroke:#29255C;stroke-width:0.648;stroke-linecap:round;stroke-miterlimit:10;}
	
		.st61{fill-rule:evenodd;clip-rule:evenodd;fill:#FFFFFF;stroke:#29255C;stroke-width:0.4947;stroke-linecap:round;stroke-linejoin:round;stroke-miterlimit:10;}
	
		.st62{fill-rule:evenodd;clip-rule:evenodd;fill:#829EAD;stroke:#29255C;stroke-width:0.5796;stroke-linecap:round;stroke-linejoin:round;stroke-miterlimit:10;}
	.st63{fill:none;stroke:#29255C;stroke-width:0.5796;stroke-linecap:round;stroke-miterlimit:10;}
	.st64{fill-rule:evenodd;clip-rule:evenodd;fill:#858485;stroke:#29255C;stroke-width:0.5796;stroke-miterlimit:10;}
	
		.st65{fill-rule:evenodd;clip-rule:evenodd;fill:none;stroke:#29255C;stroke-width:0.5796;stroke-linecap:round;stroke-miterlimit:10;}
	
		.st66{fill-rule:evenodd;clip-rule:evenodd;fill:#DFB7AE;stroke:#29255C;stroke-width:0.5796;stroke-linecap:round;stroke-linejoin:round;stroke-miterlimit:10;}
	
		.st67{fill-rule:evenodd;clip-rule:evenodd;fill:none;stroke:#29255C;stroke-width:0.5796;stroke-linecap:round;stroke-linejoin:round;stroke-miterlimit:10;}
	
		.st68{fill-rule:evenodd;clip-rule:evenodd;fill:#85C1B7;stroke:#29255C;stroke-width:0.5796;stroke-linecap:round;stroke-linejoin:round;stroke-miterlimit:10;}
	
		.st69{fill-rule:evenodd;clip-rule:evenodd;fill:#85C1B7;stroke:#29255C;stroke-width:0.5184;stroke-linecap:round;stroke-linejoin:round;stroke-miterlimit:10;}
	
		.st70{fill-rule:evenodd;clip-rule:evenodd;fill:#FFFFFF;stroke:#29255C;stroke-width:0.5796;stroke-linecap:round;stroke-miterlimit:10;}
	.st71{fill:#FBD8AE;}
	.st72{fill:#FDC443;}
	.st73{fill:#FDE6CB;}
	.st74{fill:#FFD37B;}
	.st75{fill-rule:evenodd;clip-rule:evenodd;fill:#FFFFFF;stroke:#29255C;stroke-width:0.3863;stroke-miterlimit:10;}
	
		.st76{fill-rule:evenodd;clip-rule:evenodd;fill:#FFFFFF;stroke:#29255C;stroke-width:0.3863;stroke-linecap:round;stroke-linejoin:round;stroke-miterlimit:10;}
	.st77{fill-rule:evenodd;clip-rule:evenodd;fill:#4A4370;}
	.st78{fill-rule:evenodd;clip-rule:evenodd;fill:#655D83;}
	
		.st79{fill-rule:evenodd;clip-rule:evenodd;fill:#8CA5B3;stroke:#29255C;stroke-width:0.3863;stroke-linecap:round;stroke-linejoin:round;stroke-miterlimit:10;}
	
		.st80{fill-rule:evenodd;clip-rule:evenodd;fill:#8BD2D2;stroke:#29255C;stroke-width:0.3863;stroke-linecap:round;stroke-linejoin:round;stroke-miterlimit:10;}
	
		.st81{fill-rule:evenodd;clip-rule:evenodd;fill:#ECD9E6;stroke:#29255C;stroke-width:0.3997;stroke-linecap:round;stroke-linejoin:round;stroke-miterlimit:10;}
	.st82{fill-rule:evenodd;clip-rule:evenodd;fill:#29255C;stroke:#29255C;stroke-width:0.309;stroke-miterlimit:10;}
	.st83{fill-rule:evenodd;clip-rule:evenodd;fill:#4A4370;stroke:#29255C;stroke-width:0.309;stroke-miterlimit:10;}
	.st84{fill-rule:evenodd;clip-rule:evenodd;fill:#8F8FA1;}
	.st85{fill-rule:evenodd;clip-rule:evenodd;fill:#7A798C;}
	.st86{fill-rule:evenodd;clip-rule:evenodd;fill:#FEEFED;}
	.st87{fill-rule:evenodd;clip-rule:evenodd;fill:#EED5D6;}
	.st88{fill:#8CA5B3;stroke:#29255C;stroke-width:0.3863;stroke-linecap:round;stroke-linejoin:round;stroke-miterlimit:10;}
	.st89{fill:#262761;stroke:#29255C;stroke-width:0.3863;stroke-linecap:round;stroke-linejoin:round;stroke-miterlimit:10;}
	.st90{fill:#1F0F09;}
	.st91{fill:#FFFFFF;stroke:#29255C;stroke-width:0.3863;stroke-miterlimit:10;}
	.st92{fill:#F15848;}
	.st93{fill:#C7483B;}
	.st94{fill:#FDF5F0;}
	.st95{fill:#EDE6E2;}
	.st96{fill:#A17371;}
	.st97{fill:#896360;}
	.st98{fill:#CBA96F;}
	.st99{fill:#F298A8;}
	.st100{fill:#D4D4CA;}
	.st101{fill:#F8ADB0;}
	.st102{fill:#73C48C;}
	.st103{fill:#E6E5DA;}
	.st104{fill:#D9EDEF;stroke:#29255C;stroke-width:0.3863;stroke-linecap:round;stroke-linejoin:round;stroke-miterlimit:10;}
	.st105{fill:#E7F4F5;stroke:#29255C;stroke-width:0.3863;stroke-linecap:round;stroke-linejoin:round;stroke-miterlimit:10;}
	.st106{fill:#A9D0DF;stroke:#29255C;stroke-width:0.3863;stroke-linecap:round;stroke-linejoin:round;stroke-miterlimit:10;}
	.st107{fill:#A9D0DF;}
	.st108{fill:#E9EFCB;}
	.st109{fill:#FFFFFF;stroke:#29255C;stroke-width:0.3863;stroke-linecap:round;stroke-linejoin:round;stroke-miterlimit:10;}
	.st110{fill:none;stroke:#29255C;stroke-width:0.3863;stroke-linecap:round;stroke-linejoin:round;stroke-miterlimit:10;}
	
		.st111{fill-rule:evenodd;clip-rule:evenodd;fill:none;stroke:#29255C;stroke-width:0.3863;stroke-linecap:round;stroke-linejoin:round;stroke-miterlimit:10;}
	.st112{fill:none;stroke:#29255C;stroke-width:0.3202;stroke-linecap:round;stroke-linejoin:round;stroke-miterlimit:10;}
	.st113{fill:none;stroke:#29255C;stroke-width:0.3863;stroke-linecap:round;stroke-miterlimit:10;}
	.st114{fill:#EDCABF;stroke:#29255C;stroke-width:0.3863;stroke-linecap:round;stroke-linejoin:round;stroke-miterlimit:10;}
	.st115{fill:#FFFFFF;stroke:#29255C;stroke-width:0.4224;stroke-miterlimit:10;}
	.st116{fill:#B0D5A4;}
	.st117{opacity:0.5;}
	.st118{fill:#CEE4C6;}
	.st119{fill:#829EAD;stroke:#29255C;stroke-width:0.4224;stroke-linecap:round;stroke-linejoin:round;stroke-miterlimit:10;}
	.st120{fill:#FFFFFF;stroke:#29255C;stroke-width:0.4224;stroke-linecap:round;stroke-linejoin:round;stroke-miterlimit:10;}
	.st121{fill:#9B8579;}
	.st122{opacity:0.49;}
	.st123{fill:#DFB7AE;stroke:#29255C;stroke-width:0.4224;stroke-linecap:round;stroke-linejoin:round;stroke-miterlimit:10;}
	.st124{fill:#ECD9E6;stroke:#29255C;stroke-width:0.4224;stroke-linecap:round;stroke-linejoin:round;stroke-miterlimit:10;}
	.st125{fill:#FFFFFF;stroke:#262761;stroke-width:0.4224;stroke-linecap:round;stroke-linejoin:round;stroke-miterlimit:10;}
	.st126{fill:#FFFFFF;stroke:#29255C;stroke-width:0.3985;stroke-linecap:round;stroke-linejoin:round;stroke-miterlimit:10;}
	.st127{fill:none;stroke:#29255C;stroke-width:0.4224;stroke-linecap:round;stroke-linejoin:round;stroke-miterlimit:10;}
	.st128{fill:#848585;stroke:#29255C;stroke-width:0.4224;stroke-miterlimit:10;}
	.st129{fill:#829EAD;stroke:#29255C;stroke-width:0.4052;stroke-linecap:round;stroke-linejoin:round;stroke-miterlimit:10;}
	.st130{fill:#85C1B7;stroke:#29255C;stroke-width:0.4224;stroke-linecap:round;stroke-linejoin:round;stroke-miterlimit:10;}
	.st131{fill:#E0D6D2;}
	.st132{fill:#718180;stroke:#29255C;stroke-width:0.4664;stroke-miterlimit:10;}
	.st133{fill:#E6E7E8;}
	.st134{fill:#85C1B7;}
	.st135{fill:#EFF7EF;}
	.st136{fill:#829EAD;}
	.st137{fill:#FFFFFF;stroke:#262761;stroke-width:0.4664;stroke-linecap:round;stroke-linejoin:round;stroke-miterlimit:10;}
	.st138{fill:none;stroke:#29255C;stroke-width:0.4664;stroke-linecap:round;stroke-linejoin:round;stroke-miterlimit:10;}
	.st139{fill:#718180;}
	.st140{fill:#FFFFFF;stroke:#29255C;stroke-width:0.4664;stroke-linecap:round;stroke-linejoin:round;stroke-miterlimit:10;}
	.st141{fill:#FFFFFF;stroke:#262761;stroke-width:0.6581;stroke-linecap:round;stroke-linejoin:round;stroke-miterlimit:10;}
	.st142{fill:#FFFFFF;stroke:#262761;stroke-width:0.3731;stroke-linecap:round;stroke-linejoin:round;stroke-miterlimit:10;}
	.st143{fill:none;stroke:#29255C;stroke-width:0.3731;stroke-linecap:round;stroke-linejoin:round;stroke-miterlimit:10;}
	.st144{fill:#E6E7E8;stroke:#29255C;stroke-width:0.4664;stroke-linecap:round;stroke-linejoin:round;stroke-miterlimit:10;}
	.st145{fill:#4AA4DB;}
	.st146{fill:#B9D532;}
	.st147{fill:#262761;}
</style>
<polygon class="st0" points="95.09,76.44 95.88,75.23 99.68,76.17 101.49,76.52 101.49,77.43 101.6,78.29 101.9,78.74 101.18,79.76 
	99.2,80.48 96.89,80.87 95.54,81.08 "/>
<polygon class="st0" points="120,74.71 119.9,76.71 119.9,78.14 119.17,78.8 118,79.16 116.17,79.23 113.94,79.17 114.99,80.77 
	116.35,81.97 118.14,82.96 119.83,83.62 121.14,83.8 122.24,83.8 123.12,83.66 122.75,81.31 122.43,79.56 122.53,78.39 122.55,78 
	121.89,76.81 121.27,75.72 "/>
<g>
	<line class="st28" x1="0" y1="132.98" x2="180" y2="132.98"/>
	<path class="st29" d="M95.91,132.72l0.83-14.98l-1.94-9.46c0,0,0.85-22.78,0.57-24.48c-0.28-1.7-0.03-2.83-0.03-2.83
		s0.89-0.14,3.16-0.42c2.27-0.28,3.97-1.59,3.97-1.59l11.38,0.21c0,0,2.52,3.36,4.65,3.93c2.13,0.57,4.54,0.57,4.54,0.57l-0.57-5.52
		c0,0,4.04,0.92,6.95-1.27c1.7-1.28,4.06-3.8,4.06-3.8l-0.23-2.99l0.14-2.97l-0.43-4.25l-0.14-1.7c0,0,7.38,0.57,12.48,2.12
		c5.11,1.56,12.06,7.64,12.62,11.75c0.57,4.1,0.99,17.83,0.43,21.51c-0.57,3.68-1.28,15.28-1.98,17.69
		c-0.71,2.41-2.09,8.35-2.09,8.35l1.38,10.08l-5.96-0.11c0,0-2.27,1.91-3.83,1.77c-1.56-0.14-3.69-1.56-3.69-1.56l-28.77-0.08
		c0,0-3.29,2.48-4.99,2.2c-1.7-0.28-2.89-0.82-2.89-0.82l-1.32-1.35H95.91z"/>
	<path class="st30" d="M133.21,71.05c0.97-4.23-0.49-9.33-0.49-9.33c-2.71-4.88-4.7-21.33-4.7-21.33s1.82-19.54-4.51-25.6
		c-6.33-6.05-17.87-6.08-20.31-1.25c-2.3,4.56-5.82,16.68-10.35,20.65c-1.4,1.22,4.17,3.89,4.17,3.89s4.2,12.44,5.06,14.59
		l1.22,2.16l1.17,1.43l1.28,1.33l2.61,2.97L133.21,71.05L133.21,71.05L133.21,71.05L133.21,71.05L133.21,71.05L133.21,71.05
		L133.21,71.05L133.21,71.05L133.21,71.05L133.21,71.05"/>
	<path class="st28" d="M122.7,53.38c0,0-0.43,1.7-2.84,4.67c-2.41,2.97-8.94,1.56-8.94,1.56c-5.18-0.61-7.99-4.77-8.84-6.92"/>
	<path class="st28" d="M128.02,40.4c0,0,1.82-19.54-4.51-25.6c-6.33-6.05-17.87-6.08-20.31-1.25"/>
	<g>
		<path class="st30" d="M125.4,63.14c-0.21-0.37-0.49-0.71-0.82-0.97c-0.04-0.04-0.09-0.07-0.14-0.1c-0.73-0.51-1.65-0.62-2.53-0.68
			c-0.55-0.03-1.11-0.05-1.63,0.14c-0.02,0.01-0.05,0.02-0.07,0.03c-0.01-0.11-0.02-0.22-0.04-0.32l0.01,0
			c0.03-0.85-0.03-1.87-0.78-2.28c-0.23-0.13-0.5-0.14-0.75-0.21c-3.13-0.88-6.48-0.87-9.75-1.05c-1.75-0.09-3.53-0.14-5.22,0.29
			c-0.42,0.1-0.86,0.26-1.11,0.6c-0.23,0.31-0.26,0.72-0.29,1.1c-0.08,1.19-0.23,5.39-0.16,5.34l-0.64,12.42
			c0,0.94,0.76,1.7,1.7,1.7h15.03c0.94,0,1.7-0.76,1.7-1.7v-3.74c0.05,0.06,0.11,0.12,0.16,0.18c0.14-0.15,0.27-0.31,0.41-0.47
			c0.7-0.39,1.35-0.88,1.96-1.4c1.29-1.1,2.46-2.4,3.1-3.97C126.2,66.47,126.25,64.6,125.4,63.14z M122.84,68.42
			c-0.68,0.99-1.63,1.75-2.57,2.5c-0.07,0.06-0.15,0.12-0.22,0.18l-0.13-0.17v-6.17l0.14-0.18c0.02-0.1,0.05-0.2,0.06-0.3
			c0.42-0.27,0.86-0.5,1.34-0.59c0.57-0.11,1.21-0.01,1.63,0.39c0.26,0.25,0.42,0.59,0.52,0.94
			C123.92,66.18,123.53,67.44,122.84,68.42z"/>
	</g>
	<path class="st0" d="M133.46,71.93c-0.03-0.25-0.07-0.49-0.1-0.73c-0.16-1.06-0.38-2.11-0.63-3.16c-0.1-0.41-0.21-0.82-0.33-1.23
		c-0.12-0.4-0.24-0.8-0.37-1.19c-0.36-1.11-0.83-2.26-1.79-2.93c-0.46-0.32-1.01-0.5-1.55-0.68c-1.8-0.59-3.59-1.19-5.39-1.78
		c-0.1-0.03-0.21-0.07-0.32-0.1c-0.96-0.3-2.02-0.51-2.86,0c-0.25,0.15-0.44,0.34-0.6,0.57c-0.54,0.76-0.61,1.87-0.6,2.85l0.15,0.33
		c-0.02,0.01-0.05,0.01-0.07,0.02c-0.82,0.36-1.5,1.11-1.51,2c0,0.61,0.3,1.17,0.63,1.68c0,0,0.33,0.07,0.1,0.18
		c-0.22,0.1-0.41,0.24-0.57,0.42c-0.46,0.52-0.5,1.33-0.21,1.96c0.2,0.43,0.53,0.79,0.92,1.07c0.18,0.13,0.9,0.37,0.57,0.4
		c-0.19,0.02-0.37,0.07-0.53,0.18c-0.47,0.31-0.57,0.99-0.36,1.51c0.02,0.04,0.04,0.08,0.06,0.12c0,0.01,0,0.01,0.01,0.01
		c0.29,0.54,0.84,0.89,1.38,1.17c0.69,0.35,1.46,0.64,1.93,1.25c0.25,0.33,0.4,0.73,0.62,1.08c0.26,0.41,0.56,0.78,0.9,1.1
		c0,0,1.25,0.2,3.66,0.06c2.41-0.14,2.52-1.17,4.79-2.87S133.46,71.93,133.46,71.93z"/>
	<path class="st9" d="M129.19,49.27c-0.34-3.99-2.95-15-2.95-15s-4.31-5.88-9.34-6.04c-5.02-0.15-10.27-8.76-10.27-8.76
		s-2.36,2.08-3.2,2.86c-0.84,0.77-7.52,5.55-7.52,5.55s-2.11-12.01,6.44-18.87c8.55-6.86,20.64-6.82,30.36,0.52
		c9.26,6.99,10.91,15.61,5.89,31.92c0,0-2.54,4.27-4.55,5.48C132.03,48.14,129.19,49.27,129.19,49.27z"/>
	<path class="st28" d="M104.56,49.88c0.96,0.96,4.98,0.61,6.51-2.27"/>
	<path class="st9" d="M108.3,31.76c0,0.91,0.74,1.65,1.65,1.65c0.91,0,1.65-0.74,1.65-1.65c0-0.91-0.74-1.65-1.65-1.65
		C109.04,30.11,108.3,30.85,108.3,31.76"/>
	<path class="st30" d="M125.07,34.77c0,0,3.67-3.63,5.93-0.25c2.26,3.37-0.24,5.53-1.82,6.19c-1.59,0.66-3.06-0.1-3.06-0.1"/>
	<path class="st9" d="M128.69,10.07c24.77-20.09,41.5,55.51,6.42,41.4c1.28-0.64,1.54-0.1,5.32-2.34c5.89-3.47,2.06-9.55,1.11-12.35
		c-3.08-9.06-10.86-21.38-16.73-27.25L128.69,10.07z"/>
	<path class="st28" d="M132.77,61.44c13.69-0.77,24.96,5.94,25.81,18.96c0.99,15.2-1.7,41.89-8.23,51.23
		c-7.79,11.16-16.48-13.28-18.81-19.92c-2.26-6.45-9.9-29.53-8.99-33.72c4.89,1.91,11.77-4.25,10.78-6.08
		c-0.91,0.69,12.67,26.27,14.18,29.72"/>
	<path class="st28" d="M122.73,72.31c-0.98-0.24-1.96-0.47-2.94-0.71c-0.33-0.08-0.68-0.15-1.01-0.12
		c-0.19,0.02-0.37,0.07-0.53,0.18c-0.47,0.31-0.57,0.99-0.36,1.51c0.02,0.04,0.04,0.08,0.06,0.12c0,0,0,0.01,0.01,0.01
		c0.29,0.54,0.84,0.89,1.38,1.17c0.69,0.35,1.46,0.64,1.93,1.25c0.25,0.33,0.4,0.73,0.62,1.08c0.26,0.42,0.56,0.78,0.9,1.1"/>
	<path class="st28" d="M118.78,71.42c-0.2-0.1-0.39-0.21-0.57-0.34c-0.39-0.28-0.72-0.64-0.92-1.07c-0.29-0.63-0.25-1.44,0.21-1.96
		c0.16-0.18,0.35-0.32,0.57-0.42c0.23-0.11,0.49-0.18,0.74-0.2c0.49-0.06,0.99,0,1.48,0.07c0.89,0.12,1.78,0.23,2.67,0.35"/>
	<path class="st28" d="M117.97,67.45c-0.32-0.51-0.63-1.07-0.63-1.68c0-0.89,0.68-1.64,1.51-2c0.12-0.05,0.24-0.09,0.36-0.13
		c0.97-0.28,2.01-0.14,3.02,0c0.62,0.09,1.24,0.18,1.85,0.27"/>
	<path class="st28" d="M118.78,63.41c-0.02-0.98,0.06-2.09,0.6-2.85c0.16-0.22,0.35-0.42,0.6-0.57c0.84-0.52,1.9-0.3,2.86,0
		c0.11,0.03,0.21,0.07,0.32,0.1c1.8,0.59,3.59,1.19,5.39,1.78c0.54,0.18,1.08,0.36,1.55,0.68c0.96,0.66,1.43,1.82,1.79,2.93
		c0.13,0.39,0.25,0.79,0.37,1.19c0.12,0.41,0.23,0.82,0.33,1.23c0.26,1.04,0.47,2.1,0.63,3.16c0.03,0.25,0.07,0.49,0.1,0.74"/>
	<path class="st28" d="M102.98,79.27c2.27,5.38,7.2,17.86,9.08,23.21"/>
	<path class="st28" d="M95.04,107.86c0.5,7.5,7.09,33.82,17.52,25.54c3.2-2.54,2.98-7.22,3.62-19.11"/>
	<path class="st0" d="M105.18,71.55c-0.24-0.23-0.55-0.43-0.9-0.58c0.27-0.01,0.56-0.08,0.79-0.21c0.23-0.13,0.4-0.33,0.45-0.58
		c0.07-0.42-0.25-0.79-0.56-1.09c-1.6-1.58-3.61-2.77-5.38-4.16l-2.66-1.33c-1.93-0.75-2.77-0.05-4.09,0.4
		c-2.77,0.94-5.24,9.71-3.57,11.87l0.04,0c0.9,1.21,2.99,1.19,3.97,1.13c0.55-0.04,1.11-0.13,1.61-0.37
		c0.49-0.25,1.07-0.97,1.21-1.49l0.04-0.01c1.11,0.27,2.23,0.54,3.34,0.81c0.21,0.05,0.42,0.1,0.63,0.15
		c1.04,0.24,2.11,0.41,3.17,0.19c0.22-0.05,0.45-0.11,0.62-0.25c0.31-0.25,0.39-0.68,0.27-1.03c-0.04-0.11-0.16-0.73-0.23-0.82
		l-0.09,0.01c-0.13-0.09-0.59-0.23-0.25-0.2c0.31,0.02,0.63,0.05,0.92,0c0.4-0.06,0.76-0.21,1.06-0.49
		C106.08,73.01,105.87,72.18,105.18,71.55z"/>
	<g>
		<path class="st28" d="M103.72,74.29c0.07,0.09,0.18,0.71,0.22,0.82c0.12,0.35,0.03,0.78-0.27,1.03c-0.17,0.14-0.4,0.21-0.62,0.25
			c-1.05,0.22-2.13,0.05-3.17-0.19c-0.21-0.05-0.42-0.1-0.63-0.15c-1.12-0.27-2.25-0.55-3.38-0.82c-0.13,0.52-0.72,1.25-1.21,1.5
			c-0.5,0.25-1.06,0.34-1.61,0.37c-1.03,0.07-3.32,0.1-4.12-1.33"/>
		<path class="st28" d="M88.73,75.76c-1.67-2.17,1.32-14.26,8.51-12.08c0,0,5.48,2.71,7.51,5.52c0.25,0.35,0.63,0.67,0.56,1.09
			c-0.04,0.25-0.22,0.45-0.45,0.58c-0.23,0.13-0.52,0.2-0.79,0.21c0.35,0.15,0.66,0.35,0.9,0.58c0.69,0.63,0.91,1.46,0.39,1.96
			c-0.29,0.28-0.66,0.43-1.06,0.49"/>
		<path class="st28" d="M95.25,67.28c1.81-0.18,3.53,0.69,4.92,1.77c1.14,0.89,2.29,1.98,3.78,2.02c0.04,0,0.08,0,0.11,0
			c0.27-0.01,0.56-0.08,0.79-0.21c0.23-0.13,0.4-0.33,0.45-0.58c0.07-0.42-0.25-0.79-0.56-1.09"/>
		<path class="st28" d="M93.53,70.8c1.66,0.28,3.28,0.74,4.82,1.38c1.36,0.56,5.2,1.85,5.9,1.94"/>
	</g>
	<path class="st28" d="M114.04,79.27c0,0,1.28,2.97,5.11,4.03c3.06,0.85,3.69,0.28,3.69,0.28"/>
	<line class="st28" x1="154.36" y1="122.47" x2="155.43" y2="132.56"/>
	<line class="st28" x1="96.73" y1="117.5" x2="95.74" y2="132.98"/>
	<path class="st28" d="M101.91,78.64c0,0,0,1.27-2.13,1.7s-4.26,0.64-4.26,0.64"/>
	<path class="st32" d="M103.94,74.23c0.03-0.13,1.26,0.16,1.49-0.74c0.28-1.11-1.06-2.6-1.06-2.6s1.38,0.32,1.17-0.85
		s-2.34-2.37-2.34-2.37l-1.17-1.66v-4.03c0,0,0.11-3.5,1.06-3.82c0.96-0.32,3.4-0.74,5.43-0.64c2.02,0.11,7.66,1.06,9.04,1.17
		c1.38,0.11,2.13-0.21,2.23,0.42s-0.85,2.55-0.85,3.08c0,0.53-0.21,1.17-0.21,1.17s-1.06,1.27-1.17,2.02
		c-0.11,0.74,0.43,1.91,0.43,1.91s-1.17,0.74-0.85,1.8c0.32,1.06,1.17,2.12,1.17,2.12s-1.06,1.49-0.11,2.23
		c0.96,0.74,1.81,1.27,1.81,1.27L119.57,78c0,0-0.25,1.03-1.21,1.13c-0.96,0.11-9.33-0.02-9.33-0.02l-6.22-0.05
		c0,0-1.12-0.64-1.12-1.17c0-0.53-0.21-1.38-0.21-1.38s1.49,0.32,2.45-0.32"/>
	<path class="st33" d="M14.47,108.36c0,0-0.76-1.3-0.74-3.82c0.03-5.05,0.99-14.05,2.13-20.7c1.7-9.98,4.36-16.98,11.17-21.02
		s15.96-6.47,15.96-6.47l-0.21,4.03c0,0,2.77,3.4,6.17,4.03c3.4,0.64,13.72,1.7,16.28-0.21c2.55-1.91,2.87-3.93,2.87-3.93
		l-0.11-2.44c0,0,10.53,1.27,13.51,1.91c2.98,0.64,10.64,5.73,11.49,8.92c0.85,3.18,3.62,9.09,2.56,24.8
		c-0.13,1.85-0.07,3.45-0.05,5c0.02,1.54-0.2,2.85-0.25,4.01c-0.3,7.49-0.35,8.23-0.35,8.23l-1.06,1.7c0,0-10.64-0.85-10.85-0.21
		c-0.21,0.64-2.34,15.28-2.34,15.28l2.2,5.31l-44.96,0.14l-3.62-29.44L14.47,108.36z"/>
	<path class="st9" d="M69.25,20.82c0,0,0.26,6.38,4.23,0.15c4.77-7.47-9.93-27.74-29.5-18.68c-17.26,7.99-17.56,21.99-13.9,30.29
		c4.27,9.68,13.55,14.86,13.55,14.86l-0.64-9.34"/>
	<path class="st0" d="M45.57,63.16c0,0,5.61-0.47,16.38-3.05c0.41-0.1,0.8-0.21,1.17-0.33c0.46-0.15,1.06,0.52,0.85,1.19
		c-0.88,2.84,3.11,0.92,3.63,0.61c0.48-0.28,0.07-1.47,0.35-1.66c0.54-0.37-0.68-2.41-0.25-2.83c2-1.97,2.81-4.39,3.37-6.26
		c0.9-3,4.74-15.14,4.74-15.14s2.31-0.4,3.3-1.08c2.27-1.57-1.89-5.26-5.61-8.57c-3.05-2.71-6.46-9.17-6.46-9.17
		s-2.36,3.43-7.14,6.98c-4.78,3.55-15.99,1.66-15.99,1.66l-0.78,7.02l0.29,10.46l-0.06,5.75l-0.24,6.05l-0.72,5.81l1.02,1.02
		L45.57,63.16z"/>
	<path class="st28" d="M42.55,60.59c1.28-8.07,0.58-27.72,0.58-27.72"/>
	<path class="st28" d="M45.67,53.66c0,0,5.96,8.27,15.4,6.51c6.67-1.24,8.79-5.28,9.72-8.45c0.9-3.07,4.96-16.03,4.96-16.03
		s2.46-0.43,3.45-1.13c2.27-1.61-1.96-4.9-5.69-8.29c-3.05-2.78-6.47-9.4-6.47-9.4"/>
	<g>
		<path class="st34" d="M69.24,64.02c-0.21-0.37-0.49-0.71-0.82-0.97c-0.04-0.04-0.09-0.07-0.14-0.1c-0.73-0.51-1.65-0.62-2.53-0.68
			c-0.55-0.03-1.11-0.05-1.63,0.14c-0.02,0.01-0.05,0.02-0.07,0.03c-0.01-0.11-0.02-0.22-0.04-0.32l0.01,0
			c0.03-0.85-0.03-1.87-0.78-2.28c-0.23-0.12-0.5-0.14-0.75-0.21c-3.13-0.88-6.48-0.87-9.75-1.05c-1.75-0.1-3.53-0.14-5.22,0.29
			c-0.42,0.1-0.86,0.26-1.11,0.6c-0.23,0.31-0.26,0.72-0.29,1.1c-0.08,1.19-0.23,5.39-0.16,5.34L45.32,78.3c0,0.94,0.76,1.7,1.7,1.7
			h15.04c0.94,0,1.7-0.76,1.7-1.7v-3.74c0.05,0.06,0.11,0.12,0.16,0.19c0.14-0.16,0.27-0.31,0.41-0.47c0.7-0.39,1.35-0.88,1.96-1.4
			c1.29-1.1,2.45-2.4,3.1-3.97C70.03,67.35,70.09,65.48,69.24,64.02z M66.68,69.3c-0.68,0.99-1.63,1.75-2.57,2.5
			c-0.07,0.06-0.14,0.12-0.22,0.17l-0.13-0.16v-6.17l0.14-0.18c0.02-0.1,0.05-0.2,0.06-0.3c0.42-0.27,0.86-0.5,1.34-0.59
			c0.57-0.11,1.21-0.01,1.63,0.39c0.26,0.25,0.42,0.59,0.52,0.94C67.76,67.06,67.36,68.31,66.68,69.3z"/>
	</g>
	<path class="st0" d="M15.74,108.15l17.77-4.56l3.62-5.41l4.79-8.28c0,0-2.55-8.7-0.64-10.83s1.81-3.93,1.81-3.93
		s1.38-5.84,3.51-7.75c2.13-1.91,3.62-3.29,4.47-2.02s0.64,2.76,0.64,2.76c4.86,0.9,5.45,0.35,8.51,2.02
		c2.34,1.27,4.89,3.61,5.74,7.64c0.85,4.03,2.02,8.81,2.02,8.81s12.87,17.62,13.3,18.68c0.43,1.06,2.55,1.8,2.55,1.8
		s3.19-0.21,5.53,1.27c2.34,1.49,4.47,3.61,4.47,3.61s-0.03,9.66-2.16,14.33c-2.13,4.67-3.16,6.89-6.25,8.16
		c-1.39,0.57-4.79-0.73-6.28-1.58s-4.68-5.2-7.66-10.51c-2.98-5.31-7.13-17.62-7.98-18.26c-0.85-0.64-4.36-11.68-4.36-11.68
		l-2.77-4.35l-3.3-0.85l0.11,1.17l-0.64,3.71l-1.91,3.71l-7.98,27.28c0,0-2.87,8.17-4.36,9.66c-1.49,1.49-4.82,2.05-7.17,1.94
		c-3.17-0.15-6.53-2.31-8.87-8.47c-0.84-2.2-2.35-4.83-3.38-7.7C17.03,113.38,15.74,108.15,15.74,108.15z"/>
	<path class="st9" d="M57.97,31.76c-0.04,0.97-0.87,1.72-1.84,1.68c-0.98-0.04-1.73-0.87-1.69-1.84c0.04-0.97,0.87-1.72,1.84-1.68
		C57.26,29.96,58.01,30.78,57.97,31.76"/>
	<path class="st30" d="M43.79,38.13c0,0-1.35,0.8-2.89-0.03c-1.53-0.83-3.98-3.42-2.02-7.22c1.65-3.2,5.63,0.57,5.63,0.57"/>
	<path class="st28" d="M58.55,46.3c0.3,1.39,4.03,3.34,7.01,1.67"/>
	<path class="st28" d="M42.55,56.56c-10.51,2.66-21.69,6.79-25.32,19.74c-1.83,6.54-3.19,17.06-3.4,20.59
		c-0.12,1.89-0.72,10.52,0.64,11.89c0.98-0.62,18.64-4.67,19.18-5.31"/>
	<path class="st28" d="M93.83,111.97c0,12.03-4.89,30.36-16.81,19.11c-5.64-5.33-14.04-27.45-16.88-36.23c0,0-0.35-1.98-2.06-3.89
		c-1.7-1.91-1.69-2.93-1.69-2.93c-0.96-0.37-12.33-1.45-11.83-4.06c0.55-2.85,5.08-0.87,9.34-0.59"/>
	<path class="st28" d="M15.96,108.36c1.3,7.38,5.98,17.97,9.57,23.56c2.42,3.76,10.33,3.52,12.55,1.06
		c5.43-5.99,9.7-32.93,13.97-40.4"/>
	<path class="st28" d="M26.81,115.79c-1.05,1.64,7.64-13.59,15.32-26.04"/>
	<g>
		<path class="st28" d="M68.09,86.63c8.53,10.16,5.57,9.36,15.09,20.5l0.15-0.13c3.81,0.06,7.15,1.75,9.85,4.43
			c0,0,0,0.01,0.02,0.02c0.1,0.13,0.63,0.83,0.64,0.84c0.39,0.14,1-1.39,1.02-1.6c0.59-9.16,0.93-18.31,0.7-27.5
			c-0.09-3.44-0.25-6.91-1.1-10.25c-0.85-3.34-2.45-6.57-5.03-8.86c-1.97-1.75-4.41-2.87-6.86-3.85c-3.7-1.49-14.49-2.14-14.77-2.47
			c0,0,0.63,3.2-0.35,3.89c-1.06,0.74-0.96,0.64-0.96,0.64"/>
	</g>
	<path class="st30" d="M44.25,72.97c-0.63-3.78,7.47-12.54,7.47-5.26"/>
	<path class="st28" d="M48.84,86.91c0.66,0.94,1.13,2.02,1.36,3.15"/>
	<path class="st28" d="M53.19,87.55c0.08,3.28-0.14,5.02-4.4,7.71"/>
	<path class="st28" d="M68.09,86.6c-2.13-9.34-0.9-15.15-11.63-18.08c-0.08-0.02-8.51-1.13-6.84,1.32c1.55,2.28,7.2,2.34,9.56,4.56"
		/>
	<path class="st30" d="M42.56,76.03c-0.09-5.68,6.52-6.4,6.72-6.48"/>
	<path class="st30" d="M42.13,89.78c-1.37-5.67-2.43-10.95,2.16-15.1"/>
	<path class="st30" d="M57.73,79.84c0-0.14-12.48-2.97-14.18-0.85c-2.99,3.73,8.26,4.05,8.94,4.25"/>
	<path class="st30" d="M59.43,74.58c-2.13-0.66-14.77-4.38-15.12-0.22c-0.16,1.74,11.14,3.46,13.28,5.48"/>
	<path class="st28" d="M42.66,60.7c0.85,1.49,3.09,2.44,3.09,2.44"/>
	<path class="st28" d="M76.6,98.17c0,0,0,0,0.43-1.7c0.43-1.7,0-7.22,0-7.22"/>
	<path class="st28" d="M36.6,98.17c0,0-1.48-7.01-1.91-8.7"/>
</g>
</svg>
