<?xml version="1.0" encoding="utf-8"?>
<!-- Generator: Adobe Illustrator 27.6.1, SVG Export Plug-In . SVG Version: 6.00 Build 0)  -->
<svg version="1.1" id="Layer_1" xmlns="http://www.w3.org/2000/svg" xmlns:xlink="http://www.w3.org/1999/xlink" x="0px" y="0px"
	 viewBox="0 0 190 135" style="enable-background:new 0 0 190 135;" xml:space="preserve">
<style type="text/css">
	.st0{fill:#FFFFFF;}
	.st1{fill-rule:evenodd;clip-rule:evenodd;fill:#85C1B7;}
	.st2{fill-rule:evenodd;clip-rule:evenodd;fill:#29255C;}
	.st3{fill-rule:evenodd;clip-rule:evenodd;fill:#FEF1EE;stroke:#29255C;stroke-width:0.5305;stroke-miterlimit:10;}
	.st4{fill-rule:evenodd;clip-rule:evenodd;fill:#FDE1DD;stroke:#29255C;stroke-width:0.5305;stroke-miterlimit:10;}
	.st5{fill-rule:evenodd;clip-rule:evenodd;fill:#F8ACA8;stroke:#29255C;stroke-width:0.5305;stroke-miterlimit:10;}
	.st6{fill-rule:evenodd;clip-rule:evenodd;fill:#FAC6C1;stroke:#29255C;stroke-width:0.5305;stroke-miterlimit:10;}
	.st7{fill-rule:evenodd;clip-rule:evenodd;fill:#EE6F78;stroke:#29255C;stroke-width:0.5305;stroke-miterlimit:10;}
	.st8{fill-rule:evenodd;clip-rule:evenodd;fill:#F59291;stroke:#29255C;stroke-width:0.5305;stroke-miterlimit:10;}
	.st9{fill:#29255C;}
	.st10{fill-rule:evenodd;clip-rule:evenodd;fill:#ECD9E6;}
	.st11{fill:#B4E2EA;}
	.st12{fill:none;stroke:#29255C;stroke-width:0.4268;stroke-miterlimit:10;}
	.st13{fill:#EECDCA;stroke:#29255C;stroke-width:0.4268;stroke-linecap:round;stroke-linejoin:round;stroke-miterlimit:10;}
	.st14{fill:#FFFFFF;stroke:#29255C;stroke-width:0.4268;stroke-linecap:round;stroke-linejoin:round;stroke-miterlimit:10;}
	.st15{fill:none;stroke:#29255C;stroke-width:0.3415;stroke-linecap:round;stroke-linejoin:round;stroke-miterlimit:10;}
	.st16{fill:none;stroke:#29255C;stroke-width:0.4952;stroke-linecap:round;stroke-linejoin:round;stroke-miterlimit:10;}
	.st17{fill:#FDCA95;stroke:#29255C;stroke-width:0.4268;stroke-linecap:round;stroke-linejoin:round;stroke-miterlimit:10;}
	.st18{fill:#FFFFFF;stroke:#29255C;stroke-width:0.4268;stroke-miterlimit:10;}
	.st19{fill:none;stroke:#29255C;stroke-width:0.495;stroke-linecap:round;stroke-linejoin:round;stroke-miterlimit:10;}
	.st20{fill:none;stroke:#29255C;stroke-width:0.4168;stroke-linecap:round;stroke-linejoin:round;stroke-miterlimit:10;}
	.st21{fill:none;stroke:#29255C;stroke-width:0.417;stroke-linecap:round;stroke-linejoin:round;stroke-miterlimit:10;}
	.st22{fill:#FFFFFF;stroke:#29255C;stroke-width:0.4241;stroke-miterlimit:10;}
	.st23{fill:none;stroke:#29255C;stroke-width:0.4241;stroke-linecap:round;stroke-linejoin:round;stroke-miterlimit:10;}
	.st24{fill:#B4E2EA;stroke:#29255C;stroke-width:0.4268;stroke-linecap:round;stroke-linejoin:round;stroke-miterlimit:10;}
	.st25{fill:none;stroke:#29255C;stroke-width:0.4268;stroke-linecap:round;stroke-linejoin:round;stroke-miterlimit:10;}
	.st26{fill:none;stroke:#29255C;stroke-width:0.4497;stroke-miterlimit:10;}
	.st27{fill:none;stroke:#29255C;stroke-width:0.442;stroke-linecap:round;stroke-linejoin:round;stroke-miterlimit:10;}
	.st28{fill:none;stroke:#29255C;stroke-width:0.6024;stroke-linecap:round;stroke-linejoin:round;stroke-miterlimit:10;}
	.st29{fill:#FCDCCB;}
	.st30{fill:#FFFFFF;stroke:#29255C;stroke-width:0.6024;stroke-linecap:round;stroke-linejoin:round;stroke-miterlimit:10;}
	.st31{fill:#FFFFFF;stroke:#28255C;stroke-width:0.6024;stroke-linejoin:round;stroke-miterlimit:10;}
	.st32{fill:#85C1B7;stroke:#29255C;stroke-width:0.4506;stroke-miterlimit:10;}
	.st33{fill:#ECD9E6;}
	.st34{fill:#85C1B7;stroke:#29255C;stroke-width:0.6024;stroke-linecap:round;stroke-linejoin:round;stroke-miterlimit:10;}
	.st35{fill:#C6D0D7;}
	.st36{fill:#97ADB9;}
	.st37{fill:#E8D3D1;}
	.st38{fill:#E0C0BE;}
	.st39{fill:#FEEDEB;}
	.st40{fill:#829EAD;stroke:#29255C;stroke-width:0.4269;stroke-linecap:round;stroke-linejoin:round;stroke-miterlimit:10;}
	.st41{fill:#F4C9C4;stroke:#29255C;stroke-width:0.4269;stroke-linecap:round;stroke-linejoin:round;stroke-miterlimit:10;}
	.st42{fill:#FFFFFF;stroke:#29255C;stroke-width:0.3977;stroke-linecap:round;stroke-linejoin:round;stroke-miterlimit:10;}
	.st43{fill:#D9D7D7;}
	.st44{fill:#9F433D;}
	.st45{fill:#FFFFFF;stroke:#FFFFFF;stroke-width:0.502;stroke-miterlimit:10;}
	.st46{fill:#E3E3ED;}
	.st47{fill:#4A4370;stroke:#29255C;stroke-width:0.4269;stroke-miterlimit:10;}
	.st48{fill:#F2F2F9;}
	.st49{fill:#85C1B7;stroke:#29255C;stroke-width:0.4269;stroke-linecap:round;stroke-linejoin:round;stroke-miterlimit:10;}
	.st50{fill:#FFFFFF;stroke:#29255C;stroke-width:0.4269;stroke-linecap:round;stroke-linejoin:round;stroke-miterlimit:10;}
	.st51{fill:none;stroke:#29255C;stroke-width:0.5369;stroke-linecap:round;stroke-linejoin:round;stroke-miterlimit:10;}
	.st52{fill:none;stroke:#29255C;stroke-width:0.4269;stroke-linecap:round;stroke-linejoin:round;stroke-miterlimit:10;}
	.st53{fill:#FFFFFF;stroke:#28255C;stroke-width:0.3977;stroke-linecap:round;stroke-linejoin:round;stroke-miterlimit:10;}
	.st54{fill:#B55243;}
	.st55{fill:none;stroke:#29255C;stroke-width:0.4973;stroke-linecap:round;stroke-linejoin:round;stroke-miterlimit:10;}
	.st56{fill:none;stroke:#29255C;stroke-width:0.4055;stroke-linecap:round;stroke-linejoin:round;stroke-miterlimit:10;}
	.st57{fill-rule:evenodd;clip-rule:evenodd;fill:#F58220;stroke:#F58220;stroke-width:0.0101;stroke-miterlimit:2.6131;}
	.st58{fill:none;stroke:#29255C;stroke-width:0.5796;stroke-linecap:round;stroke-linejoin:round;stroke-miterlimit:10;}
	.st59{fill:#FFFFFF;stroke:#29255C;stroke-width:0.5796;stroke-linecap:round;stroke-linejoin:round;stroke-miterlimit:10;}
	
		.st60{fill-rule:evenodd;clip-rule:evenodd;fill:none;stroke:#29255C;stroke-width:0.648;stroke-linecap:round;stroke-miterlimit:10;}
	
		.st61{fill-rule:evenodd;clip-rule:evenodd;fill:#FFFFFF;stroke:#29255C;stroke-width:0.4947;stroke-linecap:round;stroke-linejoin:round;stroke-miterlimit:10;}
	
		.st62{fill-rule:evenodd;clip-rule:evenodd;fill:#829EAD;stroke:#29255C;stroke-width:0.5796;stroke-linecap:round;stroke-linejoin:round;stroke-miterlimit:10;}
	.st63{fill:none;stroke:#29255C;stroke-width:0.5796;stroke-linecap:round;stroke-miterlimit:10;}
	.st64{fill-rule:evenodd;clip-rule:evenodd;fill:#858485;stroke:#29255C;stroke-width:0.5796;stroke-miterlimit:10;}
	
		.st65{fill-rule:evenodd;clip-rule:evenodd;fill:none;stroke:#29255C;stroke-width:0.5796;stroke-linecap:round;stroke-miterlimit:10;}
	
		.st66{fill-rule:evenodd;clip-rule:evenodd;fill:#DFB7AE;stroke:#29255C;stroke-width:0.5796;stroke-linecap:round;stroke-linejoin:round;stroke-miterlimit:10;}
	
		.st67{fill-rule:evenodd;clip-rule:evenodd;fill:none;stroke:#29255C;stroke-width:0.5796;stroke-linecap:round;stroke-linejoin:round;stroke-miterlimit:10;}
	
		.st68{fill-rule:evenodd;clip-rule:evenodd;fill:#85C1B7;stroke:#29255C;stroke-width:0.5796;stroke-linecap:round;stroke-linejoin:round;stroke-miterlimit:10;}
	
		.st69{fill-rule:evenodd;clip-rule:evenodd;fill:#85C1B7;stroke:#29255C;stroke-width:0.5184;stroke-linecap:round;stroke-linejoin:round;stroke-miterlimit:10;}
	
		.st70{fill-rule:evenodd;clip-rule:evenodd;fill:#FFFFFF;stroke:#29255C;stroke-width:0.5796;stroke-linecap:round;stroke-miterlimit:10;}
	.st71{fill:#FBD8AE;}
	.st72{fill:#FDC443;}
	.st73{fill:#FDE6CB;}
	.st74{fill:#FFD37B;}
	.st75{fill-rule:evenodd;clip-rule:evenodd;fill:#FFFFFF;stroke:#29255C;stroke-width:0.3863;stroke-miterlimit:10;}
	
		.st76{fill-rule:evenodd;clip-rule:evenodd;fill:#FFFFFF;stroke:#29255C;stroke-width:0.3863;stroke-linecap:round;stroke-linejoin:round;stroke-miterlimit:10;}
	.st77{fill-rule:evenodd;clip-rule:evenodd;fill:#4A4370;}
	.st78{fill-rule:evenodd;clip-rule:evenodd;fill:#655D83;}
	
		.st79{fill-rule:evenodd;clip-rule:evenodd;fill:#8CA5B3;stroke:#29255C;stroke-width:0.3863;stroke-linecap:round;stroke-linejoin:round;stroke-miterlimit:10;}
	
		.st80{fill-rule:evenodd;clip-rule:evenodd;fill:#8BD2D2;stroke:#29255C;stroke-width:0.3863;stroke-linecap:round;stroke-linejoin:round;stroke-miterlimit:10;}
	
		.st81{fill-rule:evenodd;clip-rule:evenodd;fill:#ECD9E6;stroke:#29255C;stroke-width:0.3997;stroke-linecap:round;stroke-linejoin:round;stroke-miterlimit:10;}
	.st82{fill-rule:evenodd;clip-rule:evenodd;fill:#29255C;stroke:#29255C;stroke-width:0.309;stroke-miterlimit:10;}
	.st83{fill-rule:evenodd;clip-rule:evenodd;fill:#4A4370;stroke:#29255C;stroke-width:0.309;stroke-miterlimit:10;}
	.st84{fill-rule:evenodd;clip-rule:evenodd;fill:#8F8FA1;}
	.st85{fill-rule:evenodd;clip-rule:evenodd;fill:#7A798C;}
	.st86{fill-rule:evenodd;clip-rule:evenodd;fill:#FEEFED;}
	.st87{fill-rule:evenodd;clip-rule:evenodd;fill:#EED5D6;}
	.st88{fill:#8CA5B3;stroke:#29255C;stroke-width:0.3863;stroke-linecap:round;stroke-linejoin:round;stroke-miterlimit:10;}
	.st89{fill:#262761;stroke:#29255C;stroke-width:0.3863;stroke-linecap:round;stroke-linejoin:round;stroke-miterlimit:10;}
	.st90{fill:#1F0F09;}
	.st91{fill:#FFFFFF;stroke:#29255C;stroke-width:0.3863;stroke-miterlimit:10;}
	.st92{fill:#F15848;}
	.st93{fill:#C7483B;}
	.st94{fill:#FDF5F0;}
	.st95{fill:#EDE6E2;}
	.st96{fill:#A17371;}
	.st97{fill:#896360;}
	.st98{fill:#CBA96F;}
	.st99{fill:#F298A8;}
	.st100{fill:#D4D4CA;}
	.st101{fill:#F8ADB0;}
	.st102{fill:#73C48C;}
	.st103{fill:#E6E5DA;}
	.st104{fill:#D9EDEF;stroke:#29255C;stroke-width:0.3863;stroke-linecap:round;stroke-linejoin:round;stroke-miterlimit:10;}
	.st105{fill:#E7F4F5;stroke:#29255C;stroke-width:0.3863;stroke-linecap:round;stroke-linejoin:round;stroke-miterlimit:10;}
	.st106{fill:#A9D0DF;stroke:#29255C;stroke-width:0.3863;stroke-linecap:round;stroke-linejoin:round;stroke-miterlimit:10;}
	.st107{fill:#A9D0DF;}
	.st108{fill:#E9EFCB;}
	.st109{fill:#FFFFFF;stroke:#29255C;stroke-width:0.3863;stroke-linecap:round;stroke-linejoin:round;stroke-miterlimit:10;}
	.st110{fill:none;stroke:#29255C;stroke-width:0.3863;stroke-linecap:round;stroke-linejoin:round;stroke-miterlimit:10;}
	
		.st111{fill-rule:evenodd;clip-rule:evenodd;fill:none;stroke:#29255C;stroke-width:0.3863;stroke-linecap:round;stroke-linejoin:round;stroke-miterlimit:10;}
	.st112{fill:none;stroke:#29255C;stroke-width:0.3202;stroke-linecap:round;stroke-linejoin:round;stroke-miterlimit:10;}
	.st113{fill:none;stroke:#29255C;stroke-width:0.3863;stroke-linecap:round;stroke-miterlimit:10;}
	.st114{fill:#EDCABF;stroke:#29255C;stroke-width:0.3863;stroke-linecap:round;stroke-linejoin:round;stroke-miterlimit:10;}
	.st115{fill:#FFFFFF;stroke:#29255C;stroke-width:0.4224;stroke-miterlimit:10;}
	.st116{fill:#B0D5A4;}
	.st117{opacity:0.5;}
	.st118{fill:#CEE4C6;}
	.st119{fill:#829EAD;stroke:#29255C;stroke-width:0.4224;stroke-linecap:round;stroke-linejoin:round;stroke-miterlimit:10;}
	.st120{fill:#FFFFFF;stroke:#29255C;stroke-width:0.4224;stroke-linecap:round;stroke-linejoin:round;stroke-miterlimit:10;}
	.st121{fill:#9B8579;}
	.st122{opacity:0.49;}
	.st123{fill:#DFB7AE;stroke:#29255C;stroke-width:0.4224;stroke-linecap:round;stroke-linejoin:round;stroke-miterlimit:10;}
	.st124{fill:#ECD9E6;stroke:#29255C;stroke-width:0.4224;stroke-linecap:round;stroke-linejoin:round;stroke-miterlimit:10;}
	.st125{fill:#FFFFFF;stroke:#262761;stroke-width:0.4224;stroke-linecap:round;stroke-linejoin:round;stroke-miterlimit:10;}
	.st126{fill:#FFFFFF;stroke:#29255C;stroke-width:0.3985;stroke-linecap:round;stroke-linejoin:round;stroke-miterlimit:10;}
	.st127{fill:none;stroke:#29255C;stroke-width:0.4224;stroke-linecap:round;stroke-linejoin:round;stroke-miterlimit:10;}
	.st128{fill:#848585;stroke:#29255C;stroke-width:0.4224;stroke-miterlimit:10;}
	.st129{fill:#829EAD;stroke:#29255C;stroke-width:0.4052;stroke-linecap:round;stroke-linejoin:round;stroke-miterlimit:10;}
	.st130{fill:#85C1B7;stroke:#29255C;stroke-width:0.4224;stroke-linecap:round;stroke-linejoin:round;stroke-miterlimit:10;}
	.st131{fill:#E0D6D2;}
	.st132{fill:#718180;stroke:#29255C;stroke-width:0.4664;stroke-miterlimit:10;}
	.st133{fill:#E6E7E8;}
	.st134{fill:#85C1B7;}
	.st135{fill:#EFF7EF;}
	.st136{fill:#829EAD;}
	.st137{fill:#FFFFFF;stroke:#262761;stroke-width:0.4664;stroke-linecap:round;stroke-linejoin:round;stroke-miterlimit:10;}
	.st138{fill:none;stroke:#29255C;stroke-width:0.4664;stroke-linecap:round;stroke-linejoin:round;stroke-miterlimit:10;}
	.st139{fill:#718180;}
	.st140{fill:#FFFFFF;stroke:#29255C;stroke-width:0.4664;stroke-linecap:round;stroke-linejoin:round;stroke-miterlimit:10;}
	.st141{fill:#FFFFFF;stroke:#262761;stroke-width:0.6581;stroke-linecap:round;stroke-linejoin:round;stroke-miterlimit:10;}
	.st142{fill:#FFFFFF;stroke:#262761;stroke-width:0.3731;stroke-linecap:round;stroke-linejoin:round;stroke-miterlimit:10;}
	.st143{fill:none;stroke:#29255C;stroke-width:0.3731;stroke-linecap:round;stroke-linejoin:round;stroke-miterlimit:10;}
	.st144{fill:#E6E7E8;stroke:#29255C;stroke-width:0.4664;stroke-linecap:round;stroke-linejoin:round;stroke-miterlimit:10;}
	.st145{fill:#4AA4DB;}
	.st146{fill:#B9D532;}
	.st147{fill:#262761;}
</style>
<g>
	<g>
		<path class="st71" d="M56.03,95.44c5.04-2.82,10.18-5.41,15.3-8.06c7.44-3.85,14.9-7.87,21.71-12.86l-10.01-2.25
			c-3.13,2.39-6.4,4.58-9.75,6.6C63.43,84.82,52.96,89.5,42.99,95.2c-4.69,2.68-9.27,5.58-13.71,8.7l9.33,2.68
			c0.65-0.47,1.3-0.94,1.96-1.4C45.56,101.65,50.72,98.41,56.03,95.44z"/>
		<path class="st71" d="M68.85,98.61c5.04-2.82,10.18-5.41,15.3-8.06c7.55-3.91,15.11-7.98,22.01-13.08l-10.02-2.26
			c-3.21,2.48-6.58,4.73-10.04,6.82c-9.85,5.95-20.31,10.63-30.29,16.33c-4.88,2.78-9.62,5.81-14.23,9.07l9.34,2.68
			c0.82-0.6,1.64-1.19,2.46-1.77C58.37,104.82,63.54,101.57,68.85,98.61z"/>
		<path class="st71" d="M81.66,101.77c5.04-2.82,10.18-5.41,15.3-8.06c7.66-3.97,15.33-8.1,22.3-13.3l-10.03-2.26
			c-3.3,2.57-6.76,4.89-10.32,7.04c-9.85,5.95-20.31,10.63-30.29,16.33c-5.06,2.89-9.98,6.04-14.74,9.43l9.36,2.69
			c0.98-0.72,1.97-1.44,2.96-2.14C71.19,107.99,76.35,104.74,81.66,101.77z"/>
		<path class="st71" d="M94.48,104.94c5.04-2.82,10.18-5.41,15.3-8.06c7.76-4.02,15.54-8.22,22.59-13.51l-10.04-2.26
			c-3.38,2.65-6.94,5.05-10.6,7.26c-9.85,5.95-20.31,10.63-30.29,16.33c-5.24,2.99-10.33,6.26-15.26,9.8l9.37,2.69
			c1.15-0.85,2.3-1.69,3.46-2.51C84,111.16,89.17,107.91,94.48,104.94z"/>
		<path class="st72" d="M43.21,92.27c5.04-2.82,10.18-5.41,15.3-8.05c7.33-3.8,14.68-7.75,21.42-12.65l-10-2.25
			c-3.04,2.31-6.22,4.42-9.47,6.38c-9.85,5.95-20.31,10.63-30.29,16.33c-4.51,2.57-8.91,5.36-13.19,8.34l9.32,2.68
			c0.48-0.35,0.96-0.69,1.45-1.04C32.74,98.49,37.91,95.24,43.21,92.27z"/>
		<path class="st71" d="M107.3,108.11c5.04-2.82,10.18-5.41,15.3-8.05c7.87-4.08,15.76-8.33,22.88-13.73l-10.05-2.26
			c-3.47,2.74-7.13,5.21-10.89,7.48c-9.85,5.95-20.31,10.63-30.29,16.33c-5.42,3.09-10.68,6.49-15.77,10.16l9.38,2.69
			c1.31-0.98,2.63-1.94,3.97-2.88C96.82,114.33,101.99,111.08,107.3,108.11z"/>
		<path class="st71" d="M17.58,85.94c5.04-2.82,10.18-5.41,15.3-8.06c7.12-3.69,14.25-7.52,20.82-12.22l-5.01-1.13L0.45,95.62
			l1.24,0.35c0.14-0.1,0.28-0.2,0.42-0.3C7.11,92.15,12.27,88.9,17.58,85.94z"/>
		<path class="st71" d="M30.4,89.1c5.04-2.82,10.18-5.41,15.3-8.06c7.23-3.74,14.47-7.64,21.12-12.43l-10-2.25
			c-2.95,2.22-6.03,4.26-9.18,6.17c-9.85,5.95-20.31,10.63-30.29,16.33c-4.33,2.47-8.55,5.13-12.67,7.97l9.31,2.67
			c0.31-0.22,0.62-0.45,0.93-0.67C19.92,95.32,25.09,92.07,30.4,89.1z"/>
		<path class="st71" d="M145.52,120.54c-6.14,3.5-12.08,7.39-17.78,11.64l9.83,2.82L190,96.34l-2.21-0.5
			c-3.79,3.1-7.82,5.85-11.99,8.37C165.96,110.16,155.49,114.84,145.52,120.54z"/>
		<path class="st71" d="M132.93,114.44c5.04-2.82,10.18-5.41,15.3-8.05c8.08-4.19,16.18-8.56,23.45-14.17l-10.07-2.27
			c-3.63,2.92-7.47,5.53-11.44,7.92c-9.85,5.95-20.31,10.63-30.29,16.33c-5.78,3.3-11.38,6.94-16.78,10.9l9.4,2.7
			c1.63-1.24,3.28-2.45,4.95-3.62C122.45,120.66,127.62,117.41,132.93,114.44z"/>
		<path class="st71" d="M120.11,111.28c5.04-2.82,10.18-5.41,15.3-8.05c7.97-4.13,15.97-8.45,23.17-13.95L148.52,87
			c-3.55,2.83-7.3,5.37-11.16,7.7c-9.84,5.95-20.31,10.63-30.29,16.33c-5.6,3.2-11.03,6.72-16.27,10.53l9.39,2.7
			c1.47-1.11,2.96-2.19,4.46-3.25C109.64,117.49,114.8,114.24,120.11,111.28z"/>
		<path class="st71" d="M145.74,117.61c5.04-2.82,10.18-5.41,15.3-8.06c8.19-4.24,16.39-8.67,23.74-14.39L174.7,92.9
			c-3.71,3.01-7.65,5.69-11.71,8.14c-9.85,5.95-20.31,10.63-30.29,16.33c-5.96,3.4-11.73,7.17-17.28,11.27l9.42,2.7
			c1.79-1.37,3.6-2.7,5.44-4C135.27,123.83,140.44,120.58,145.74,117.61z"/>
		<path class="st73" d="M47.64,72.53c3.15-1.9,6.23-3.94,9.18-6.17l-3.12-0.7c-6.57,4.7-13.7,8.53-20.82,12.22
			c-5.12,2.65-10.26,5.24-15.3,8.06c-5.31,2.97-10.47,6.22-15.47,9.74c-0.14,0.1-0.28,0.2-0.42,0.3l3,0.86
			c4.11-2.84,8.34-5.5,12.67-7.97C27.33,83.17,37.79,78.48,47.64,72.53z"/>
		<path class="st74" d="M60.46,75.7c3.25-1.97,6.43-4.08,9.47-6.38l-3.11-0.7c-6.65,4.79-13.9,8.69-21.12,12.43
			c-5.12,2.65-10.26,5.24-15.3,8.06c-5.31,2.97-10.47,6.22-15.47,9.74c-0.31,0.22-0.62,0.45-0.93,0.67l2.98,0.86
			c4.28-2.98,8.68-5.76,13.19-8.34C40.14,86.34,50.61,81.65,60.46,75.7z"/>
		<path class="st74" d="M73.27,78.87c3.35-2.03,6.63-4.21,9.75-6.6l-3.1-0.7c-6.74,4.89-14.08,8.85-21.42,12.65
			c-5.12,2.65-10.26,5.24-15.3,8.05c-5.31,2.97-10.47,6.22-15.47,9.74c-0.49,0.34-0.97,0.69-1.45,1.04l2.97,0.85
			c4.44-3.12,9.02-6.02,13.71-8.7C52.96,89.5,63.43,84.82,73.27,78.87z"/>
		<path class="st73" d="M86.09,82.04c3.46-2.09,6.83-4.34,10.04-6.82l-3.09-0.7c-6.82,4.99-14.27,9.01-21.71,12.86
			c-5.12,2.65-10.26,5.24-15.3,8.06c-5.31,2.97-10.47,6.22-15.47,9.74c-0.66,0.46-1.31,0.93-1.96,1.4l2.97,0.85
			c4.6-3.25,9.35-6.28,14.23-9.07C65.78,92.67,76.24,87.99,86.09,82.04z"/>
		<path class="st73" d="M98.91,85.2c3.56-2.15,7.02-4.48,10.32-7.04l-3.08-0.69c-6.9,5.09-14.46,9.17-22.01,13.08
			c-5.12,2.65-10.26,5.24-15.3,8.06c-5.31,2.97-10.47,6.22-15.47,9.74c-0.83,0.58-1.65,1.17-2.46,1.77l2.96,0.85
			c4.76-3.39,9.69-6.54,14.74-9.43C78.59,95.84,89.06,91.15,98.91,85.2z"/>
		<path class="st73" d="M111.72,88.37c3.66-2.21,7.22-4.61,10.6-7.26l-3.06-0.69c-6.97,5.2-14.65,9.33-22.3,13.3
			c-5.12,2.65-10.26,5.24-15.3,8.06c-5.31,2.97-10.47,6.22-15.47,9.74c-1,0.7-1.98,1.42-2.96,2.14l2.95,0.85
			c4.92-3.53,10.02-6.81,15.26-9.8C91.41,99.01,101.88,94.32,111.72,88.37z"/>
		<path class="st73" d="M124.54,91.54c3.76-2.27,7.42-4.74,10.89-7.48l-3.06-0.69c-7.05,5.3-14.83,9.49-22.59,13.51
			c-5.12,2.65-10.26,5.24-15.3,8.06c-5.31,2.97-10.47,6.22-15.47,9.74c-1.16,0.82-2.32,1.66-3.46,2.51l2.94,0.84
			c5.08-3.67,10.35-7.07,15.77-10.16C104.22,102.17,114.69,97.49,124.54,91.54z"/>
		<path class="st73" d="M137.35,94.71c3.86-2.33,7.61-4.87,11.16-7.7l-3.04-0.68c-7.13,5.4-15.01,9.66-22.88,13.73
			c-5.12,2.65-10.26,5.24-15.3,8.05c-5.31,2.97-10.47,6.22-15.47,9.74c-1.33,0.94-2.66,1.9-3.97,2.88l2.93,0.84
			c5.24-3.82,10.67-7.34,16.27-10.53C117.04,105.34,127.51,100.66,137.35,94.71z"/>
		<path class="st73" d="M150.17,97.87c3.96-2.39,7.81-5.01,11.44-7.92l-3.03-0.68c-7.2,5.51-15.19,9.82-23.17,13.95
			c-5.12,2.65-10.26,5.24-15.3,8.05c-5.31,2.97-10.47,6.22-15.47,9.74c-1.5,1.06-2.99,2.14-4.46,3.25l2.92,0.84
			c5.39-3.96,11-7.6,16.78-10.9C129.86,108.51,140.33,103.82,150.17,97.87z"/>
		<path class="st73" d="M162.99,101.04c4.06-2.45,8-5.14,11.71-8.14l-3.02-0.68c-7.28,5.61-15.37,9.99-23.45,14.17
			c-5.12,2.65-10.26,5.24-15.3,8.05c-5.31,2.97-10.47,6.22-15.47,9.74c-1.67,1.18-3.32,2.39-4.95,3.62l2.91,0.84
			c5.55-4.1,11.32-7.87,17.28-11.27C142.67,111.67,153.14,106.99,162.99,101.04z"/>
		<path class="st73" d="M161.04,109.56c-5.12,2.65-10.26,5.24-15.3,8.06c-5.31,2.97-10.47,6.22-15.47,9.74
			c-1.84,1.29-3.65,2.63-5.44,4l2.9,0.83c5.7-4.25,11.64-8.14,17.78-11.64c9.97-5.69,20.44-10.38,30.29-16.33
			c4.16-2.51,8.2-5.27,11.99-8.37l-3.01-0.68C177.43,100.88,169.23,105.32,161.04,109.56z"/>
	</g>
	<path class="st75" d="M116.01,76c0.27,0.21,2.33,0.22,5.47,1.53c3.14,1.31,5.06,3.11,3.51,2.99c-1.54-0.12-7.49-1.72-8.38-1.58
		c-0.89,0.14,1.73,1.06,2.15,1.59c0.42,0.53-1.22,0.11-3-0.41c-1.78-0.52-3.46-0.66-3.46-0.66L110.94,76H116.01z"/>
	<path class="st76" d="M158.82,97.43c0,0,2.23,3.71,2.49,4.74c0.26,1.03-1.06,4.56,0.15,5.26c1.21,0.7,4.17,0.44,6.22,0.62
		c2.05,0.18,4.43,2.06,7.54,1.58c3.11-0.48,4.68-0.77,4.43-1.4c-0.26-0.63-4.43-2.79-7.57-4.49c-3.15-1.69-4.94-3.09-5.82-4.63
		c-0.88-1.54-2.45-4.19-2.45-4.19L158.82,97.43z"/>
	<path class="st76" d="M154.02,102.18c0,0,2.23,3.71,2.49,4.74c0.26,1.03-1.06,4.56,0.15,5.26c1.21,0.7,4.17,0.44,6.22,0.63
		c2.05,0.18,4.43,2.06,7.54,1.58c3.11-0.48,4.68-0.77,4.43-1.4c-0.26-0.63-4.43-2.8-7.57-4.49c-3.15-1.69-4.94-3.09-5.82-4.63
		c-0.88-1.54-2.45-4.19-2.45-4.19L154.02,102.18z"/>
	<path class="st76" d="M108.32,91.46c0,0,5.21,0.5,5.17-3.39c-0.04-3.88-2.48-9.7-2.48-9.7l-8.22,4.76
		C102.8,83.13,102.76,90.33,108.32,91.46z"/>
	<g>
		<path class="st77" d="M13.54,105.52c0,0-5.41,1.72-6.79,1.1c-1.37-0.63-1.41-16.45-1.35-17.71c0.06-1.27,2.74,0.75,3.92,3.93
			c1.17,3.18,2.26,6.82,3.01,6.96c0.76,0.14,2.09-0.13,2.09-0.13S15.13,103.96,13.54,105.52z"/>
		<path class="st2" d="M6.75,106.61c0,0,0.76-1.28,0.16-3.21c-0.6-1.93-0.75-4.94-0.58-7.4c0.17-2.46,1.2-7.06-0.93-7.8
			c-2.12-0.74-3.67,1.52-2.58,6.7c1.09,5.18,1.31,8.05,1.39,9.2C4.3,105.26,5.19,107.01,6.75,106.61z"/>
		<path class="st77" d="M7.57,98.5c0,0,1.98-0.33,3-2.17c0.6,1.59,1.58,3.36,1.58,3.36s-1.1,1.83-1.36,3.2
			c-0.26,1.37,0.17,2.47-0.09,2.48c-0.25,0-2.76,0.32-2.93,0.16c-0.16-0.16,0.27-1.98-0.45-3.57C6.61,100.36,7.57,98.5,7.57,98.5z"
			/>
	</g>
	<path class="st78" d="M17.14,105.6c0,0-3.89,4.16-5.39,4.28c-1.5,0.13-9.21-13.67-9.78-14.8c-0.56-1.13,2.76-0.69,5.33,1.51
		c2.57,2.2,5.28,4.85,6.01,4.6c0.73-0.25,1.76-1.13,1.76-1.13S17.77,103.46,17.14,105.6z"/>
	<path class="st2" d="M11.75,109.88c0,0,0.04-1.49-1.42-2.88c-1.46-1.39-3.05-3.95-4.1-6.17c-1.04-2.23-2.38-6.75-4.6-6.36
		c-2.21,0.39-2.47,3.12,1,7.11c3.47,3.99,5.06,6.38,5.68,7.35C8.95,109.91,10.58,111,11.75,109.88z"/>
	<path class="st79" d="M76.98,88.25c0,0-14.78,3.13-19.46,5.41c-4.68,2.28-30.09,12-37.75,13.83c-2.05-2.18-1.56-5.98-1.56-5.98
		s24.37-18.97,35.92-24.96c11.55-5.99,28.37-7.26,28.46-9.71c0.09-2.45,10.59,0.22,11.15,1.56c0.56,1.34,2.43,5.8,2.43,5.8
		L76.98,88.25z"/>
	<path class="st80" d="M91.04,28.69c0,0,12.15-2.64,16.04,8.47c3.89,11.11,9.92,38.79,9.92,38.79l-6.4,1.17l-3.09-8.21l-5.09-17.56
		c0,0,0.89,8.92,0.6,15.06c-0.29,6.14-4.73,7.06-4.73,7.06s-11.64-0.93-15.68-5.47c-4.04-4.54-8.87-14.19-8.87-14.19l-1.05-8.03
		l-4.76,9.7l3.81,1.91l-2.72,6.97c0,0-10.08-0.66-11.28-6.42c-1.21-5.75,6.13-19.13,11.19-23.86c5.07-4.74,10.56-5.5,10.56-5.5
		L91.04,28.69z"/>
	<path class="st81" d="M75,75.68c0,0-7.81,3.38-5.21,8.66c2.6,5.28,6.6,9.76,6.6,9.76l17.52,5.77c0,0,7.16,2.54,11.55,4.67
		c3.24-1.68,8.49-13.73,8.49-13.73s-9.24-4.88-9.63-8.57c-0.38-3.69-8.55-9.05-8.55-9.05s-4.96-3.48-10.27-1.11
		C80.18,74.47,75,75.68,75,75.68z"/>
	<path class="st79" d="M67.79,63.62c0,0-17.48,3.41-24.22,9.28c-6.74,5.87-31.68,26.67-31.68,26.67l4.47,7.79
		c0,0,14.58-6.91,20.59-11.51c6.01-4.6,10.42-9.14,14.37-12.14c3.95-3,17.78-10.48,17.78-10.48L67.79,63.62z"/>
	<path class="st82" d="M143.06,76.47c0,0,6.58-6.29,11.08,0.06c4.49,6.36,13.42,21.5,13.42,21.5l-6.57,3.02l-17.7-7.57
		c0,0-8.59,8.94-13.4,11.1c-4.81,2.16-7.75,2.15-7.75,2.15S139.34,78.78,143.06,76.47z"/>
	<path class="st83" d="M105.45,104.55c0,0,9.47,6.26,15.02,3.25c5.56-3.02,16.75-15.47,19.91-19.24
		c3.08,6.87,12.77,16.45,12.77,16.45l7.84-3.96c0,0-11.82-21.25-16.86-26.23c-5.03-4.98-30.2,16.01-30.2,16.01
		S107.33,96.25,105.45,104.55z"/>
	<path class="st76" d="M85.49,72.09c0,0-2.27,0.17-3.35-0.4c-0.51-0.27-1.11-1.29-1.5-2.2c1.83-0.78,2.24-2.84,2.05-5.1
		c-0.34-4.09-4.41-10.19-4.41-10.19s-2.99,2.27-7.89,2.17c1.62,3,3.28,7.39,2.65,11.92c0,0,1.83,3.14,2.59,4.8
		c0.76,1.66-0.63,2.6-0.63,2.6s3.53,3.19,7.19,1.21C85.85,74.92,85.49,72.09,85.49,72.09z"/>
	<g>
		<path class="st84" d="M97.25,62.62l0.33,20.46l11.68,2.83l1.19-20.18L97.25,62.62z"/>
		<polygon class="st85" points="110.44,65.74 112.58,65.6 111.24,85.19 109.26,85.91 		"/>
		<path class="st85" d="M112.58,65.6l-1.77-6.04c0,0-0.32-0.15-0.31,0.08c0.01,0.23,1.56,5.75,1.56,5.75l-1.68,0.11
			c0,0-12.53-3.01-12.71-3.06c-0.18-0.05-0.42,0.19-0.42,0.19l13.2,3.11L112.58,65.6z"/>
		<polygon class="st86" points="110.5,59.63 109.07,59.49 110.27,64.66 98.7,61.4 97.67,62.43 110.38,65.49 112.06,65.39 		"/>
		<polygon class="st87" points="109.07,59.49 108.02,64.03 110.27,64.66 		"/>
	</g>
	<g>
		<g>
			<polygon class="st88" points="123.1,109.72 122.24,114.16 126.28,118.59 137.77,116.12 137.88,111.76 			"/>
			<polygon class="st89" points="133.54,107.67 123.04,109.72 127.36,113.81 137.97,111.75 			"/>
			<path class="st0" d="M124.87,111.19c0,0,2.01-2.08,2.74-1.32c0.72,0.76,0.94,3.48,0.94,3.48l-1.2,0.16L124.87,111.19z"/>
			<path class="st0" d="M127.71,110.65c0,0,2.01-2.08,2.74-1.31c0.72,0.76,0.94,3.48,0.94,3.48l-2.88,0.53L127.71,110.65z"/>
			<polygon class="st90" points="129.78,113.14 129.85,111.71 128.54,110.75 128.32,111.31 128.54,113.35 			"/>
			<path class="st0" d="M130.6,110.19c0,0,2.02-2.09,2.74-1.32c0.72,0.77,0.94,3.49,0.94,3.49l-2.88,0.54L130.6,110.19z"/>
			<polygon class="st90" points="132.58,112.62 132.74,111.25 131.43,110.29 131.2,110.85 131.43,112.9 			"/>
		</g>
		<g>
			<ellipse class="st91" cx="108.87" cy="114.79" rx="11.33" ry="5.17"/>
			<g>
				<path class="st92" d="M113.66,111.82c-0.08,0.7-0.73,1.11-1.49,1.02c-0.76-0.09-1.34-0.64-1.26-1.34
					c0.08-0.7,0.75-1.27,1.51-1.18C113.17,110.41,113.74,111.12,113.66,111.82z"/>
				<path class="st93" d="M113.64,111.82c-0.08,0.71-0.73,1.11-1.49,1.02c-0.68-0.08-1.22-0.53-1.26-1.13
					c0.05-0.02,0.1-0.03,0.18-0.01c0.1,0.03,0.19,0.15,0.28,0.2c0.26,0.15,0.59,0.17,0.88,0.07c0.31-0.1,1.07-0.89,1.41-0.44
					C113.65,111.62,113.65,111.72,113.64,111.82z"/>
				<path class="st94" d="M115.57,112.95c-0.09,0.78-0.8,1.22-1.64,1.12c-0.84-0.1-1.48-0.71-1.39-1.48c0.09-0.78,0.83-1.4,1.66-1.3
					C115.03,111.39,115.66,112.17,115.57,112.95z"/>
				<path class="st95" d="M115.55,112.96c-0.09,0.78-0.81,1.22-1.64,1.12c-0.75-0.09-1.34-0.59-1.39-1.25
					c0.05-0.03,0.11-0.03,0.19-0.01c0.11,0.03,0.21,0.17,0.31,0.22c0.29,0.16,0.65,0.18,0.97,0.08c0.34-0.11,1.18-0.98,1.55-0.48
					C115.56,112.75,115.56,112.85,115.55,112.96z"/>
				<path class="st96" d="M117.36,114.17c-0.09,0.78-0.81,1.22-1.64,1.12c-0.48-0.06-0.97-0.3-1.23-0.73
					c-0.13-0.21-0.13-0.42-0.18-0.66c-0.02-0.1-0.09-0.2-0.1-0.31c-0.01-0.14,0.09-0.18,0.12-0.31c0.02-0.08-0.04-0.16,0.01-0.24
					c0.06-0.11,0.17-0.08,0.25-0.15c0.08-0.07,0.11-0.19,0.2-0.27c0.07-0.06,0.16-0.14,0.25-0.17c0.08-0.02,0.16,0.01,0.24-0.02
					c0.09-0.04,0.16-0.11,0.27-0.13c0.13-0.03,0.23,0.01,0.35,0.03c0.11,0.02,0.16,0,0.27-0.01c0.14-0.01,0.16,0.05,0.27,0.12
					c0.06,0.04,0.14,0.06,0.18,0.11c0.07,0.07,0.05,0.16,0.14,0.21c0.06,0.03,0.15-0.01,0.22,0.04c0.05,0.03,0.11,0.12,0.14,0.17
					c0.08,0.11,0.18,0.26,0.19,0.41c0,0.07-0.03,0.12-0.02,0.19c0,0.09,0.05,0.19,0.06,0.28
					C117.37,113.95,117.38,114.06,117.36,114.17z"/>
				<path class="st97" d="M117.36,114.17c-0.09,0.78-0.81,1.22-1.64,1.12c-0.75-0.09-1.34-0.59-1.39-1.25
					c0.05-0.03,0.11-0.03,0.19-0.01c0.11,0.03,0.21,0.17,0.31,0.22c0.07,0.04,0.11,0.1,0.16,0.14c0.06,0.03,0.12,0.03,0.17,0.05
					c0.12,0.05,0.14,0.18,0.2,0.28c0.11,0.15,0.12,0.05,0.27,0.01c0.15-0.05,0.35,0.1,0.47-0.02c0.07-0.07,0.1-0.23,0.17-0.31
					c0.08-0.1,0.11-0.14,0.24-0.2c0.09-0.04,0.14-0.05,0.2-0.12c0.06-0.07,0.07-0.17,0.13-0.24c0.09-0.1,0.3-0.11,0.41-0.05
					C117.41,113.86,117.38,114.02,117.36,114.17z"/>
				<path class="st98" d="M118.65,116.08c-0.03,0-0.06-0.01-0.08-0.03l-1.95-1.45c-0.06-0.05-0.07-0.13-0.03-0.19
					c0.05-0.06,0.13-0.07,0.19-0.03l1.95,1.45c0.06,0.05,0.07,0.13,0.03,0.19C118.73,116.06,118.69,116.08,118.65,116.08z"/>
			</g>
			<g>
				<path class="st92" d="M112.14,112.11c-0.08,0.7-0.73,1.11-1.49,1.02c-0.76-0.09-1.34-0.64-1.26-1.35
					c0.08-0.7,0.75-1.27,1.51-1.18C111.66,110.69,112.23,111.4,112.14,112.11z"/>
				<path class="st99" d="M112.15,112.06c-0.09,0.78-0.8,1.22-1.64,1.12c-0.75-0.09-1.34-0.59-1.39-1.25
					c0.05-0.03,0.11-0.03,0.19-0.01c0.11,0.03,0.21,0.17,0.31,0.22c0.29,0.16,0.65,0.18,0.97,0.08c0.34-0.11,1.18-0.98,1.55-0.48
					C112.16,111.84,112.16,111.95,112.15,112.06z"/>
				<path class="st94" d="M113.81,113.32c-0.09,0.78-0.8,1.22-1.64,1.12c-0.84-0.1-1.48-0.71-1.39-1.48c0.09-0.78,0.83-1.4,1.66-1.3
					C113.28,111.76,113.9,112.54,113.81,113.32z"/>
				<path class="st95" d="M113.79,113.34c-0.09,0.78-0.81,1.22-1.64,1.12c-0.75-0.09-1.35-0.59-1.39-1.25
					c0.05-0.03,0.12-0.03,0.19-0.01c0.11,0.03,0.21,0.17,0.31,0.22c0.29,0.16,0.65,0.18,0.97,0.08c0.34-0.11,1.18-0.98,1.55-0.48
					C113.8,113.12,113.8,113.23,113.79,113.34z"/>
				<path class="st96" d="M115.61,114.55c-0.09,0.78-0.81,1.22-1.64,1.12c-0.75-0.09-1.34-0.59-1.39-1.25
					c-0.01-0.08-0.04-0.18-0.04-0.25c0-0.09,0.01-0.1,0.05-0.19c0.03-0.07,0.04-0.05,0.04-0.14c0-0.1-0.06-0.18-0.02-0.29
					c0.05-0.12,0.14-0.1,0.22-0.17c0.1-0.09,0-0.15,0.05-0.25c0.04-0.09,0.1-0.06,0.19-0.09c0.12-0.03,0.16-0.12,0.26-0.16
					c0.1-0.05,0.18-0.01,0.29,0c0.12,0.01,0.15-0.02,0.27-0.09c0.14-0.07,0.16-0.06,0.28-0.02c0.16,0.05,0.34,0.06,0.51,0.15
					c0.08,0.04,0.18,0.03,0.25,0.07c0.08,0.04,0.16,0.16,0.22,0.23c0.13,0.14,0.04,0.25,0.2,0.35c0.23,0.13,0.23,0.43,0.26,0.68
					C115.62,114.33,115.62,114.44,115.61,114.55z"/>
				<path class="st97" d="M115.62,114.55c-0.02,0.18-0.11,0.38-0.18,0.5c-0.3,0.51-0.92,0.69-1.48,0.62
					c-0.75-0.09-1.34-0.59-1.39-1.25c0.23-0.12,0.38,0.16,0.55,0.25c0.19,0.1,0.41,0.03,0.6,0.11c0.14,0.06,0.15,0.15,0.3,0.12
					c0.07-0.02,0.23-0.05,0.3-0.09c0.18-0.12,0.23-0.5,0.48-0.47c0.08,0.01,0.15,0.09,0.24,0.06c0.13-0.04,0.1-0.22,0.26-0.26
					c0.12-0.03,0.24,0.03,0.29,0.13C115.62,114.35,115.63,114.45,115.62,114.55z"/>
				<path class="st98" d="M116.9,116.46c-0.03,0-0.06-0.01-0.08-0.03l-1.95-1.45c-0.06-0.05-0.07-0.13-0.03-0.19
					c0.05-0.06,0.13-0.07,0.19-0.03l1.95,1.44c0.06,0.05,0.07,0.13,0.03,0.19C116.98,116.44,116.94,116.46,116.9,116.46z"/>
			</g>
			<g>
				<polygon class="st100" points="99.17,115.36 99.6,115.64 105.81,114.64 105.6,108.87 105.35,108.54 				"/>
				<path class="st101" d="M101.93,114.47c0.08-0.06,0.14-0.11,0.18-0.14c0.53-0.33,0.96-0.79,1.3-1.31
					c0.33-0.51,0.52-1.13,1.02-1.5c0.47-0.35,0.77-0.64,1.03-1.18c0.13-0.27,0.51-1.02,0.04-1.18c-0.48-0.17-0.85,0.45-1.09,0.76
					c-0.59,0.75-1.1,1.55-1.7,2.29c-0.57,0.69-1.21,1.31-1.75,2.02c-0.09,0.12-0.53,0.59-0.42,0.78
					C100.78,115.41,101.53,114.78,101.93,114.47z"/>
				<path class="st102" d="M104.59,112.73c0.37-0.5,0.79-0.98,1.15-1.49c0.26-0.37,0.63-0.76,0.57-1.25
					c-0.03-0.26-0.05-0.62-0.27-0.78c-0.22-0.15-0.56-0.17-0.75,0.04c-0.13,0.14-0.1,0.31-0.19,0.45c-0.11,0.19-0.17,0.11-0.37,0.19
					c-0.31,0.13-0.19,0.25-0.3,0.53c-0.11,0.28-0.37,0.28-0.58,0.46c-0.22,0.19-0.13,0.33-0.2,0.58c-0.08,0.28-0.29,0.24-0.51,0.38
					c-0.3,0.19-0.17,0.38-0.3,0.62c-0.14,0.26-0.55,0.34-0.74,0.56c-0.18,0.19-0.07,0.34-0.16,0.54c-0.09,0.2-0.42,0.24-0.6,0.35
					c-0.2,0.12-0.4,0.26-0.46,0.5c-0.04,0.13,0.02,0.33-0.02,0.45c-0.09,0.24-0.68,0.16-0.65,0.46c0.03,0.35,0.65,0.44,0.9,0.39
					c0.56-0.12,1.26-0.65,1.68-1.01c0.36-0.32,0.63-0.71,0.95-1.07C104,113.33,104.33,113.07,104.59,112.73z"/>
				<polygon class="st100" points="100.17,116.04 100.6,116.31 106.81,115.32 106.6,109.55 106.36,109.21 				"/>
				<polygon class="st103" points="100.45,116.32 107.09,115.6 106.63,109.49 				"/>
			</g>
			<g>
				<polygon class="st100" points="101.42,116.37 101.85,116.65 108.06,115.65 107.85,109.88 107.61,109.55 				"/>
				<path class="st101" d="M104.18,115.48c0.08-0.06,0.14-0.11,0.18-0.14c0.53-0.33,0.96-0.79,1.3-1.31
					c0.34-0.51,0.52-1.13,1.02-1.5c0.47-0.35,0.77-0.64,1.04-1.18c0.13-0.27,0.51-1.02,0.04-1.18c-0.48-0.17-0.85,0.45-1.09,0.76
					c-0.59,0.74-1.1,1.55-1.7,2.29c-0.57,0.69-1.21,1.31-1.76,2.02c-0.09,0.12-0.53,0.59-0.42,0.77
					C103.03,116.42,103.79,115.79,104.18,115.48z"/>
				<path class="st102" d="M106.84,113.74c0.37-0.5,0.78-0.98,1.15-1.49c0.26-0.37,0.63-0.76,0.57-1.25
					c-0.03-0.26-0.05-0.62-0.27-0.78c-0.22-0.15-0.56-0.17-0.75,0.04c-0.13,0.14-0.1,0.3-0.19,0.45c-0.11,0.19-0.17,0.11-0.37,0.19
					c-0.31,0.13-0.19,0.25-0.3,0.53c-0.11,0.28-0.37,0.28-0.58,0.46c-0.22,0.19-0.13,0.33-0.2,0.58c-0.08,0.28-0.29,0.24-0.51,0.38
					c-0.3,0.19-0.17,0.38-0.3,0.63c-0.14,0.26-0.55,0.34-0.74,0.56c-0.18,0.19-0.07,0.34-0.16,0.54c-0.09,0.2-0.42,0.24-0.6,0.35
					c-0.2,0.12-0.4,0.26-0.47,0.5c-0.04,0.13,0.03,0.33-0.02,0.45c-0.09,0.23-0.68,0.16-0.65,0.46c0.03,0.35,0.65,0.44,0.9,0.39
					c0.56-0.12,1.26-0.65,1.68-1.01c0.36-0.32,0.63-0.72,0.95-1.07C106.25,114.34,106.59,114.08,106.84,113.74z"/>
				<polygon class="st100" points="102.43,117.05 102.85,117.32 109.07,116.32 108.85,110.55 108.61,110.22 				"/>
				<polygon class="st103" points="102.71,117.33 109.34,116.6 108.89,110.5 				"/>
			</g>
			<g>
				<polygon class="st100" points="103.9,117.43 104.33,117.7 110.54,116.71 110.32,110.94 110.08,110.6 				"/>
				<path class="st101" d="M106.66,116.53c0.08-0.06,0.14-0.11,0.18-0.14c0.52-0.33,0.96-0.79,1.3-1.31
					c0.34-0.51,0.52-1.13,1.02-1.5c0.47-0.35,0.77-0.64,1.04-1.18c0.13-0.27,0.51-1.02,0.04-1.18c-0.48-0.17-0.85,0.45-1.09,0.76
					c-0.59,0.75-1.1,1.55-1.7,2.29c-0.56,0.69-1.21,1.31-1.76,2.02c-0.09,0.12-0.53,0.59-0.42,0.77
					C105.51,117.47,106.26,116.84,106.66,116.53z"/>
				<path class="st102" d="M109.32,114.79c0.37-0.5,0.78-0.98,1.15-1.49c0.26-0.37,0.63-0.76,0.57-1.25
					c-0.03-0.26-0.05-0.62-0.27-0.78c-0.21-0.15-0.56-0.17-0.75,0.04c-0.13,0.14-0.1,0.3-0.19,0.45c-0.11,0.19-0.17,0.11-0.37,0.19
					c-0.31,0.13-0.19,0.25-0.3,0.53c-0.11,0.28-0.37,0.28-0.58,0.46c-0.22,0.19-0.13,0.33-0.2,0.58c-0.08,0.28-0.29,0.24-0.51,0.38
					c-0.3,0.19-0.17,0.38-0.3,0.62c-0.14,0.26-0.54,0.34-0.74,0.56c-0.18,0.19-0.06,0.34-0.16,0.54c-0.09,0.2-0.42,0.24-0.6,0.35
					c-0.2,0.12-0.39,0.26-0.46,0.5c-0.04,0.13,0.03,0.33-0.02,0.45c-0.09,0.23-0.68,0.16-0.65,0.46c0.03,0.35,0.65,0.44,0.9,0.39
					c0.56-0.12,1.26-0.65,1.68-1.01c0.36-0.32,0.63-0.71,0.95-1.07C108.73,115.39,109.06,115.13,109.32,114.79z"/>
				<polygon class="st100" points="104.9,118.1 105.33,118.37 111.54,117.38 111.33,111.61 111.08,111.27 				"/>
				<polygon class="st103" points="105.18,118.38 111.82,117.66 111.36,111.56 				"/>
			</g>
		</g>
	</g>
	<g>
		<path class="st104" d="M69.95,96.03C69.95,96.03,69.95,96.03,69.95,96.03l-6.77,7.51l-4.29,4.76c0,0,0,0,0,0
			c-0.07-0.07-4.35-4.51-9.67-8.5c-0.46-0.34-0.92-0.68-1.39-1.01l12.24-11.19c0,0,1.81,1.15,3.91,2.7
			C66.35,92.05,69.1,94.34,69.95,96.03z"/>
		<path class="st105" d="M84.43,94.95l-8.36,12.75c-0.28-0.11-0.63-0.2-1.05-0.27c-4.5-0.74-16.14,0.86-16.14,0.86
			c1.62-1.84,3.02-3.43,4.22-4.78c5.22-5.86,6.78-7.43,6.84-7.49c0,0,0,0,0,0C77.07,94.89,84.43,94.95,84.43,94.95z"/>
		<path class="st106" d="M58.88,108.3c-3.53-2.87-11.06-7.24-11.06-7.24l1.39-1.26C54.53,103.79,58.81,108.22,58.88,108.3z"/>
		<path class="st106" d="M75.02,107.43l-0.9,1.58c-2.18-0.84-15.24-0.72-15.24-0.72S70.53,106.69,75.02,107.43z"/>
		<path class="st107" d="M58.11,104.68c-0.03,0-0.07-0.01-0.09-0.04l-7.48-6.4c-0.06-0.05-0.07-0.15-0.02-0.21
			c0.05-0.06,0.15-0.07,0.21-0.02l7.48,6.4c0.06,0.05,0.07,0.15,0.02,0.21C58.2,104.66,58.16,104.68,58.11,104.68z"/>
		<path class="st107" d="M57.14,100.7c-0.03,0-0.07-0.01-0.09-0.03l-4.77-3.83c-0.06-0.05-0.08-0.15-0.03-0.21
			c0.05-0.06,0.14-0.08,0.21-0.02l4.77,3.83c0.06,0.05,0.08,0.15,0.03,0.21C57.23,100.68,57.19,100.7,57.14,100.7z"/>
		<path class="st107" d="M59.08,99.14c-0.03,0-0.06-0.01-0.09-0.03l-4.89-3.71c-0.06-0.05-0.08-0.14-0.03-0.21
			c0.05-0.07,0.14-0.08,0.21-0.03l4.89,3.71c0.06,0.05,0.08,0.14,0.03,0.21C59.18,99.12,59.13,99.14,59.08,99.14z"/>
		<path class="st107" d="M62.26,106.68c-0.07,0-0.13-0.05-0.15-0.13c-0.01-0.08,0.04-0.16,0.12-0.17c0.09-0.01,9.14-1.37,13.71-0.48
			c0.08,0.02,0.13,0.09,0.12,0.18c-0.01,0.08-0.09,0.13-0.17,0.12c-4.51-0.88-13.52,0.47-13.61,0.48
			C62.28,106.68,62.27,106.68,62.26,106.68z"/>
		<path class="st107" d="M64.27,104.65c-0.07,0-0.14-0.06-0.15-0.13c-0.01-0.08,0.05-0.16,0.13-0.17c0.08-0.01,8.02-1.13,12.82-0.42
			c0.08,0.01,0.14,0.09,0.12,0.17c-0.01,0.08-0.09,0.14-0.17,0.13c-4.75-0.71-12.65,0.41-12.73,0.42
			C64.28,104.65,64.27,104.65,64.27,104.65z"/>
		<path class="st107" d="M66.33,102.67c-0.07,0-0.14-0.06-0.15-0.13c-0.01-0.08,0.05-0.16,0.13-0.17c0.38-0.05,9.37-1.13,11.9-0.23
			c0.08,0.03,0.12,0.11,0.09,0.19c-0.03,0.08-0.11,0.12-0.19,0.09c-2.47-0.88-11.67,0.23-11.77,0.25
			C66.34,102.67,66.33,102.67,66.33,102.67z"/>
		<path class="st107" d="M68.21,100.7c-0.07,0-0.14-0.05-0.15-0.13c-0.01-0.08,0.05-0.16,0.13-0.17c0.34-0.05,8.43-1.13,11.13-0.17
			c0.08,0.03,0.12,0.11,0.09,0.19c-0.03,0.08-0.11,0.12-0.19,0.09c-2.65-0.93-10.92,0.17-11,0.19
			C68.22,100.7,68.22,100.7,68.21,100.7z"/>
		<path class="st107" d="M82,96.05c-0.02-0.05-0.06-0.08-0.11-0.08c-0.03,0-2.57-0.3-4.51,0c-0.04,0.01-0.08,0.03-0.11,0.08
			l-0.22,0.41l-1.02,1.87c-0.03,0.05-0.02,0.11,0,0.15c0.03,0.05,0.08,0.07,0.13,0.07c0.03,0,3.28-0.11,4.12,0.23
			c0.02,0.01,0.04,0.01,0.05,0.01c0.05,0,0.1-0.03,0.13-0.07l1.53-2.51c0,0,0-0.01,0.01-0.01C82.02,96.15,82.02,96.09,82,96.05z
			 M81.62,96.24l-1.35,2.21c-0.62-0.19-1.92-0.23-2.9-0.23c-0.4,0-0.74,0.01-0.96,0.01l0.98-1.81l0.09-0.17
			c1.33-0.19,2.94-0.11,3.78-0.04h0C81.41,96.22,81.53,96.23,81.62,96.24z"/>
		<path class="st107" d="M69.98,98.24c-0.07,0-0.14-0.06-0.15-0.14c-0.01-0.08,0.05-0.15,0.13-0.16c0.5-0.04,4.94-0.41,5.65-0.17
			c0.08,0.03,0.12,0.11,0.09,0.19c-0.03,0.08-0.11,0.12-0.19,0.09c-0.56-0.19-4.18,0.07-5.53,0.19
			C69.98,98.24,69.98,98.24,69.98,98.24z"/>
		<path class="st107" d="M71.1,96.87c-0.07,0-0.14-0.06-0.15-0.13c-0.01-0.08,0.05-0.16,0.13-0.17c0.17-0.02,4.22-0.54,5.13-0.23
			c0.08,0.03,0.12,0.11,0.09,0.19c-0.02,0.08-0.11,0.12-0.19,0.09c-0.7-0.24-3.84,0.1-5,0.25C71.11,96.87,71.1,96.87,71.1,96.87z"/>
	</g>
	<path class="st80" d="M76.08,29.78c0,0,1.23,5.08,8.57,4.3c0,0,4.21-1.23,6.32-3.01c2.11-1.78,2.38-2.46,2.38-2.46"/>
	<line class="st108" x1="88.55" y1="26.33" x2="88.32" y2="29.05"/>
	<path class="st9" d="M95.86,12.16c0,0,3.53,2.31,4.1,0.09c0.98-3.81-3.48-13.88-11.42-12.02c-7.87,1.84-8.54,5.76-9.52,9.85
		c-1.43,6.02,3.17,9.27,3.17,9.27"/>
	<path class="st109" d="M96.8,15.79c-0.96-1.51-0.9-7.17-0.9-7.17s-1.34,1.26-3.7,2.31c-2.36,1.05-9.31-0.49-9.31-0.49l-0.59,4.15
		c0,0-1.39,12.17-1.6,12.96c-0.21,0.78-2.85,1.33-2.85,1.33s1.64,3.52,5.99,3.4c4.35-0.11,7.31-3.59,7.31-3.59s-1.92-0.82-2.27-1.62
		c0,0,0-0.01-0.01-0.02c2.71,0.75,4.09-1.93,5.02-3.01c0.88-1.02,2.45-3.96,2.45-3.96s0.88,0.13,1.36-0.07
		C98.8,19.56,97.97,17.64,96.8,15.79z"/>
	<path class="st9" d="M92.71,14.8c-0.12,0.4-0.54,0.63-0.94,0.51c-0.4-0.12-0.62-0.54-0.5-0.94c0.12-0.4,0.54-0.63,0.93-0.51
		C92.61,13.98,92.83,14.4,92.71,14.8"/>
	<path class="st110" d="M92.47,22.78c0,0-1.33-0.25-2.21-1.09c-0.77-0.74-0.99-1.34-0.99-1.34"/>
	<path class="st109" d="M84.86,10.83c0,0-1.7-2.2-3.13-0.55c-1.44,1.65-0.26,2.98,0.54,3.44c0.8,0.46,1.63,0.16,1.63,0.16"/>
	<path class="st76" d="M88.87,27.05c0,0-1.8-0.62-3.07-1.71c-1.27-1.09-2.52-4.17-2.52-4.17"/>
	<path class="st111" d="M80.64,69.49c0,0-0.62,0.45-2.93-0.37C75.4,68.3,75.4,68.3,75.4,68.3"/>
	<path class="st111" d="M76.38,94.1c0,0,1.1-1.44,2.73-2.81c1.31-1.1,2.72-2.08,2.72-2.08l-4.4-5.2"/>
	<path class="st91" d="M103.78,76.72c-0.64-0.32-1.03,0.81-1.03,0.81s0.39-1.22-0.02-1.4c-0.58-0.25-0.99,0.56-0.99,0.56
		s0.46-1.47,0.06-1.65c-0.64-0.28-1.07,0.75-1.17,1.03c0.04-0.11,0.09-0.36,0-0.72c-0.16-0.66-0.84-0.46-1.01,0.01
		c-0.3,0.82-2.96,8.39-2.96,8.39c-0.34,0.97-4.88,14.05-5.87,14.81c-1.02,0.78-8.96-9.34-8.96-9.34c-0.73,0.18-1.42,0.53-2.03,0.97
		c-2.08,1.48-3.42,3.92-3.42,3.92s4.92,5.82,9.59,10.03c4.67,4.21,8.96,4.16,10.32-0.14c1.3-4.09,7.25-25.29,7.25-25.29
		S104.33,77,103.78,76.72z"/>
	<path class="st0" d="M100.61,76.13c0,0-0.68,1.93-0.99,2.56"/>
	<path class="st112" d="M100.61,76.13c0,0-0.28,1.07-0.59,1.7"/>
	<path class="st0" d="M101.73,76.7c0,0-0.77,2.1-1.11,2.72"/>
	<path class="st112" d="M101.73,76.7c0,0-0.37,1.24-0.71,1.86"/>
	<path class="st0" d="M102.8,77.4c0,0-0.65,1.77-0.99,2.39"/>
	<path class="st112" d="M102.8,77.4c0,0-0.25,0.91-0.59,1.53"/>
	<line class="st76" x1="92.35" y1="76.73" x2="97.43" y2="79.37"/>
	<g>
		<path class="st113" d="M82.79,76.71c0,0-2.7,2.78-1.68,3.39c1.03,0.61,2.04-1.36,2.05-1.85C83.17,77.75,82.79,76.71,82.79,76.71z"
			/>
		<path class="st113" d="M82.66,76.75c0,0,3.41,1.85,3.71,0.7c0.31-1.15-1.86-1.6-2.33-1.47C83.56,76.1,82.66,76.75,82.66,76.75z"/>
		<path class="st114" d="M82.81,76.99c0,0,0.94,0.61,1.57,2.77c0.62,2.16,1.14,3.06,1.14,3.06"/>
		<path class="st114" d="M83.17,77.06c0,0,0.61,1.1,1.83,2.64c1.23,1.54,2.66,2.48,2.66,2.48"/>
	</g>
	<path class="st9" d="M70.29,46.31c0,0-4.61,2.59-5.02,6.73s0.53,12.11,1.68,16.36c1.66,6.13,8.32,6.13,8.32,6.13l0.55-1.43
		c0,0,0.28-1.69-0.19-3.27"/>
	<path class="st109" d="M83.02,71.99l-1.84-2.8c0,0,1.86-0.38,3.19-1.57c1.71-1.53,1.88-4.27,1.76-5.29
		c-0.11-1.02-1.08-4.95-1.08-4.95s2.06-1.59,1.5-2.19c-2.86-3.01-5.37-5.8-7.21-7.1c-1.94-1.39-8.16,0.18-9.37,3.86
		c-1.21,3.68,3.54,10.95,3.54,10.95s1.49,5.39,2.11,7.95c0.74,3.03-0.41,4.99-0.41,4.99"/>
	<path class="st9" d="M68.98,64.15c-0.82-2.37-4.8-8.06-2.65-12.72c2.26-4.89,5.95-7.28,10.69-6.37c4.74,0.91,6.54,6.9,6.54,6.9
		s-2.78-1.01-3.26-1.14c-0.49-0.13-1.83-0.45-1.83-0.45s-1.15,3.56-2.79,5.05c-1.99,1.82-3.9,3.1-3.9,3.1s2.31,6.26,2.76,7.97
		c0.86,3.27,1.41,5.75,1.41,5.75"/>
	<path class="st0" d="M73.31,59.46c0,0-2.1-0.79-2.33,1.39c-0.22,2.18,1.46,2.34,2.38,2.25c0.92-0.09,0.92-0.6,0.92-0.6"/>
	<path class="st110" d="M73.42,59.66c0,0-2.36-0.81-2.5,1.19c-0.14,1.99,1.4,2.41,2.21,2.35c0.81-0.05,1.23-0.71,1.23-0.71"/>
	<path class="st110" d="M81.25,63.29c0,0,1.08,0.67,2.21,0.64c0.99-0.03,1.53-0.31,1.53-0.31"/>
	<path class="st110" d="M78.8,57.09c0,0,0.68-1.56,2.38-1.15"/>
	<path class="st9" d="M83.08,72.06c0,0,1.76-1.08,2.17-2.5c0.41-1.42-0.2-2.42-0.2-2.42l-3.6,2.12L83.08,72.06z"/>
	<path class="st109" d="M76.49,66.39c0,0,0.18,0.59,1.5,1.64c0,0,1.9,1.23,3.19,1.02c1.51-0.24,1.22-0.22,1.16-0.21"/>
</g>
</svg>
