<?xml version="1.0" encoding="utf-8"?>
<!-- Generator: Adobe Illustrator 27.6.1, SVG Export Plug-In . SVG Version: 6.00 Build 0)  -->
<svg version="1.1" id="Layer_1" xmlns="http://www.w3.org/2000/svg" xmlns:xlink="http://www.w3.org/1999/xlink" x="0px" y="0px"
	 viewBox="0 0 200 114" style="enable-background:new 0 0 200 114;" xml:space="preserve">
<style type="text/css">
	.st0{fill:#FFFFFF;}
	.st1{fill-rule:evenodd;clip-rule:evenodd;fill:#85C1B7;}
	.st2{fill-rule:evenodd;clip-rule:evenodd;fill:#29255C;}
	.st3{fill-rule:evenodd;clip-rule:evenodd;fill:#FEF1EE;stroke:#29255C;stroke-width:0.5305;stroke-miterlimit:10;}
	.st4{fill-rule:evenodd;clip-rule:evenodd;fill:#FDE1DD;stroke:#29255C;stroke-width:0.5305;stroke-miterlimit:10;}
	.st5{fill-rule:evenodd;clip-rule:evenodd;fill:#F8ACA8;stroke:#29255C;stroke-width:0.5305;stroke-miterlimit:10;}
	.st6{fill-rule:evenodd;clip-rule:evenodd;fill:#FAC6C1;stroke:#29255C;stroke-width:0.5305;stroke-miterlimit:10;}
	.st7{fill-rule:evenodd;clip-rule:evenodd;fill:#EE6F78;stroke:#29255C;stroke-width:0.5305;stroke-miterlimit:10;}
	.st8{fill-rule:evenodd;clip-rule:evenodd;fill:#F59291;stroke:#29255C;stroke-width:0.5305;stroke-miterlimit:10;}
	.st9{fill:#29255C;}
	.st10{fill-rule:evenodd;clip-rule:evenodd;fill:#ECD9E6;}
	.st11{fill:#B4E2EA;}
	.st12{fill:none;stroke:#29255C;stroke-width:0.4268;stroke-miterlimit:10;}
	.st13{fill:#EECDCA;stroke:#29255C;stroke-width:0.4268;stroke-linecap:round;stroke-linejoin:round;stroke-miterlimit:10;}
	.st14{fill:#FFFFFF;stroke:#29255C;stroke-width:0.4268;stroke-linecap:round;stroke-linejoin:round;stroke-miterlimit:10;}
	.st15{fill:none;stroke:#29255C;stroke-width:0.3415;stroke-linecap:round;stroke-linejoin:round;stroke-miterlimit:10;}
	.st16{fill:none;stroke:#29255C;stroke-width:0.4952;stroke-linecap:round;stroke-linejoin:round;stroke-miterlimit:10;}
	.st17{fill:#FDCA95;stroke:#29255C;stroke-width:0.4268;stroke-linecap:round;stroke-linejoin:round;stroke-miterlimit:10;}
	.st18{fill:#FFFFFF;stroke:#29255C;stroke-width:0.4268;stroke-miterlimit:10;}
	.st19{fill:none;stroke:#29255C;stroke-width:0.495;stroke-linecap:round;stroke-linejoin:round;stroke-miterlimit:10;}
	.st20{fill:none;stroke:#29255C;stroke-width:0.4168;stroke-linecap:round;stroke-linejoin:round;stroke-miterlimit:10;}
	.st21{fill:none;stroke:#29255C;stroke-width:0.417;stroke-linecap:round;stroke-linejoin:round;stroke-miterlimit:10;}
	.st22{fill:#FFFFFF;stroke:#29255C;stroke-width:0.4241;stroke-miterlimit:10;}
	.st23{fill:none;stroke:#29255C;stroke-width:0.4241;stroke-linecap:round;stroke-linejoin:round;stroke-miterlimit:10;}
	.st24{fill:#B4E2EA;stroke:#29255C;stroke-width:0.4268;stroke-linecap:round;stroke-linejoin:round;stroke-miterlimit:10;}
	.st25{fill:none;stroke:#29255C;stroke-width:0.4268;stroke-linecap:round;stroke-linejoin:round;stroke-miterlimit:10;}
	.st26{fill:none;stroke:#29255C;stroke-width:0.4497;stroke-miterlimit:10;}
	.st27{fill:none;stroke:#29255C;stroke-width:0.442;stroke-linecap:round;stroke-linejoin:round;stroke-miterlimit:10;}
	.st28{fill:none;stroke:#29255C;stroke-width:0.6024;stroke-linecap:round;stroke-linejoin:round;stroke-miterlimit:10;}
	.st29{fill:#FCDCCB;}
	.st30{fill:#FFFFFF;stroke:#29255C;stroke-width:0.6024;stroke-linecap:round;stroke-linejoin:round;stroke-miterlimit:10;}
	.st31{fill:#FFFFFF;stroke:#28255C;stroke-width:0.6024;stroke-linejoin:round;stroke-miterlimit:10;}
	.st32{fill:#85C1B7;stroke:#29255C;stroke-width:0.4506;stroke-miterlimit:10;}
	.st33{fill:#ECD9E6;}
	.st34{fill:#85C1B7;stroke:#29255C;stroke-width:0.6024;stroke-linecap:round;stroke-linejoin:round;stroke-miterlimit:10;}
	.st35{fill:#C6D0D7;}
	.st36{fill:#97ADB9;}
	.st37{fill:#E8D3D1;}
	.st38{fill:#E0C0BE;}
	.st39{fill:#FEEDEB;}
	.st40{fill:#829EAD;stroke:#29255C;stroke-width:0.4269;stroke-linecap:round;stroke-linejoin:round;stroke-miterlimit:10;}
	.st41{fill:#F4C9C4;stroke:#29255C;stroke-width:0.4269;stroke-linecap:round;stroke-linejoin:round;stroke-miterlimit:10;}
	.st42{fill:#FFFFFF;stroke:#29255C;stroke-width:0.3977;stroke-linecap:round;stroke-linejoin:round;stroke-miterlimit:10;}
	.st43{fill:#D9D7D7;}
	.st44{fill:#9F433D;}
	.st45{fill:#FFFFFF;stroke:#FFFFFF;stroke-width:0.502;stroke-miterlimit:10;}
	.st46{fill:#E3E3ED;}
	.st47{fill:#4A4370;stroke:#29255C;stroke-width:0.4269;stroke-miterlimit:10;}
	.st48{fill:#F2F2F9;}
	.st49{fill:#85C1B7;stroke:#29255C;stroke-width:0.4269;stroke-linecap:round;stroke-linejoin:round;stroke-miterlimit:10;}
	.st50{fill:#FFFFFF;stroke:#29255C;stroke-width:0.4269;stroke-linecap:round;stroke-linejoin:round;stroke-miterlimit:10;}
	.st51{fill:none;stroke:#29255C;stroke-width:0.5369;stroke-linecap:round;stroke-linejoin:round;stroke-miterlimit:10;}
	.st52{fill:none;stroke:#29255C;stroke-width:0.4269;stroke-linecap:round;stroke-linejoin:round;stroke-miterlimit:10;}
	.st53{fill:#FFFFFF;stroke:#28255C;stroke-width:0.3977;stroke-linecap:round;stroke-linejoin:round;stroke-miterlimit:10;}
	.st54{fill:#B55243;}
	.st55{fill:none;stroke:#29255C;stroke-width:0.4973;stroke-linecap:round;stroke-linejoin:round;stroke-miterlimit:10;}
	.st56{fill:none;stroke:#29255C;stroke-width:0.4055;stroke-linecap:round;stroke-linejoin:round;stroke-miterlimit:10;}
	.st57{fill-rule:evenodd;clip-rule:evenodd;fill:#F58220;stroke:#F58220;stroke-width:0.0101;stroke-miterlimit:2.6131;}
	.st58{fill:none;stroke:#29255C;stroke-width:0.5796;stroke-linecap:round;stroke-linejoin:round;stroke-miterlimit:10;}
	.st59{fill:#FFFFFF;stroke:#29255C;stroke-width:0.5796;stroke-linecap:round;stroke-linejoin:round;stroke-miterlimit:10;}
	
		.st60{fill-rule:evenodd;clip-rule:evenodd;fill:none;stroke:#29255C;stroke-width:0.648;stroke-linecap:round;stroke-miterlimit:10;}
	
		.st61{fill-rule:evenodd;clip-rule:evenodd;fill:#FFFFFF;stroke:#29255C;stroke-width:0.4947;stroke-linecap:round;stroke-linejoin:round;stroke-miterlimit:10;}
	
		.st62{fill-rule:evenodd;clip-rule:evenodd;fill:#829EAD;stroke:#29255C;stroke-width:0.5796;stroke-linecap:round;stroke-linejoin:round;stroke-miterlimit:10;}
	.st63{fill:none;stroke:#29255C;stroke-width:0.5796;stroke-linecap:round;stroke-miterlimit:10;}
	.st64{fill-rule:evenodd;clip-rule:evenodd;fill:#858485;stroke:#29255C;stroke-width:0.5796;stroke-miterlimit:10;}
	
		.st65{fill-rule:evenodd;clip-rule:evenodd;fill:none;stroke:#29255C;stroke-width:0.5796;stroke-linecap:round;stroke-miterlimit:10;}
	
		.st66{fill-rule:evenodd;clip-rule:evenodd;fill:#DFB7AE;stroke:#29255C;stroke-width:0.5796;stroke-linecap:round;stroke-linejoin:round;stroke-miterlimit:10;}
	
		.st67{fill-rule:evenodd;clip-rule:evenodd;fill:none;stroke:#29255C;stroke-width:0.5796;stroke-linecap:round;stroke-linejoin:round;stroke-miterlimit:10;}
	
		.st68{fill-rule:evenodd;clip-rule:evenodd;fill:#85C1B7;stroke:#29255C;stroke-width:0.5796;stroke-linecap:round;stroke-linejoin:round;stroke-miterlimit:10;}
	
		.st69{fill-rule:evenodd;clip-rule:evenodd;fill:#85C1B7;stroke:#29255C;stroke-width:0.5184;stroke-linecap:round;stroke-linejoin:round;stroke-miterlimit:10;}
	
		.st70{fill-rule:evenodd;clip-rule:evenodd;fill:#FFFFFF;stroke:#29255C;stroke-width:0.5796;stroke-linecap:round;stroke-miterlimit:10;}
	.st71{fill:#FBD8AE;}
	.st72{fill:#FDC443;}
	.st73{fill:#FDE6CB;}
	.st74{fill:#FFD37B;}
	.st75{fill-rule:evenodd;clip-rule:evenodd;fill:#FFFFFF;stroke:#29255C;stroke-width:0.3863;stroke-miterlimit:10;}
	
		.st76{fill-rule:evenodd;clip-rule:evenodd;fill:#FFFFFF;stroke:#29255C;stroke-width:0.3863;stroke-linecap:round;stroke-linejoin:round;stroke-miterlimit:10;}
	.st77{fill-rule:evenodd;clip-rule:evenodd;fill:#4A4370;}
	.st78{fill-rule:evenodd;clip-rule:evenodd;fill:#655D83;}
	
		.st79{fill-rule:evenodd;clip-rule:evenodd;fill:#8CA5B3;stroke:#29255C;stroke-width:0.3863;stroke-linecap:round;stroke-linejoin:round;stroke-miterlimit:10;}
	
		.st80{fill-rule:evenodd;clip-rule:evenodd;fill:#8BD2D2;stroke:#29255C;stroke-width:0.3863;stroke-linecap:round;stroke-linejoin:round;stroke-miterlimit:10;}
	
		.st81{fill-rule:evenodd;clip-rule:evenodd;fill:#ECD9E6;stroke:#29255C;stroke-width:0.3997;stroke-linecap:round;stroke-linejoin:round;stroke-miterlimit:10;}
	.st82{fill-rule:evenodd;clip-rule:evenodd;fill:#29255C;stroke:#29255C;stroke-width:0.309;stroke-miterlimit:10;}
	.st83{fill-rule:evenodd;clip-rule:evenodd;fill:#4A4370;stroke:#29255C;stroke-width:0.309;stroke-miterlimit:10;}
	.st84{fill-rule:evenodd;clip-rule:evenodd;fill:#8F8FA1;}
	.st85{fill-rule:evenodd;clip-rule:evenodd;fill:#7A798C;}
	.st86{fill-rule:evenodd;clip-rule:evenodd;fill:#FEEFED;}
	.st87{fill-rule:evenodd;clip-rule:evenodd;fill:#EED5D6;}
	.st88{fill:#8CA5B3;stroke:#29255C;stroke-width:0.3863;stroke-linecap:round;stroke-linejoin:round;stroke-miterlimit:10;}
	.st89{fill:#262761;stroke:#29255C;stroke-width:0.3863;stroke-linecap:round;stroke-linejoin:round;stroke-miterlimit:10;}
	.st90{fill:#1F0F09;}
	.st91{fill:#FFFFFF;stroke:#29255C;stroke-width:0.3863;stroke-miterlimit:10;}
	.st92{fill:#F15848;}
	.st93{fill:#C7483B;}
	.st94{fill:#FDF5F0;}
	.st95{fill:#EDE6E2;}
	.st96{fill:#A17371;}
	.st97{fill:#896360;}
	.st98{fill:#CBA96F;}
	.st99{fill:#F298A8;}
	.st100{fill:#D4D4CA;}
	.st101{fill:#F8ADB0;}
	.st102{fill:#73C48C;}
	.st103{fill:#E6E5DA;}
	.st104{fill:#D9EDEF;stroke:#29255C;stroke-width:0.3863;stroke-linecap:round;stroke-linejoin:round;stroke-miterlimit:10;}
	.st105{fill:#E7F4F5;stroke:#29255C;stroke-width:0.3863;stroke-linecap:round;stroke-linejoin:round;stroke-miterlimit:10;}
	.st106{fill:#A9D0DF;stroke:#29255C;stroke-width:0.3863;stroke-linecap:round;stroke-linejoin:round;stroke-miterlimit:10;}
	.st107{fill:#A9D0DF;}
	.st108{fill:#E9EFCB;}
	.st109{fill:#FFFFFF;stroke:#29255C;stroke-width:0.3863;stroke-linecap:round;stroke-linejoin:round;stroke-miterlimit:10;}
	.st110{fill:none;stroke:#29255C;stroke-width:0.3863;stroke-linecap:round;stroke-linejoin:round;stroke-miterlimit:10;}
	
		.st111{fill-rule:evenodd;clip-rule:evenodd;fill:none;stroke:#29255C;stroke-width:0.3863;stroke-linecap:round;stroke-linejoin:round;stroke-miterlimit:10;}
	.st112{fill:none;stroke:#29255C;stroke-width:0.3202;stroke-linecap:round;stroke-linejoin:round;stroke-miterlimit:10;}
	.st113{fill:none;stroke:#29255C;stroke-width:0.3863;stroke-linecap:round;stroke-miterlimit:10;}
	.st114{fill:#EDCABF;stroke:#29255C;stroke-width:0.3863;stroke-linecap:round;stroke-linejoin:round;stroke-miterlimit:10;}
	.st115{fill:#FFFFFF;stroke:#29255C;stroke-width:0.4224;stroke-miterlimit:10;}
	.st116{fill:#B0D5A4;}
	.st117{opacity:0.5;}
	.st118{fill:#CEE4C6;}
	.st119{fill:#829EAD;stroke:#29255C;stroke-width:0.4224;stroke-linecap:round;stroke-linejoin:round;stroke-miterlimit:10;}
	.st120{fill:#FFFFFF;stroke:#29255C;stroke-width:0.4224;stroke-linecap:round;stroke-linejoin:round;stroke-miterlimit:10;}
	.st121{fill:#9B8579;}
	.st122{opacity:0.49;}
	.st123{fill:#DFB7AE;stroke:#29255C;stroke-width:0.4224;stroke-linecap:round;stroke-linejoin:round;stroke-miterlimit:10;}
	.st124{fill:#ECD9E6;stroke:#29255C;stroke-width:0.4224;stroke-linecap:round;stroke-linejoin:round;stroke-miterlimit:10;}
	.st125{fill:#FFFFFF;stroke:#262761;stroke-width:0.4224;stroke-linecap:round;stroke-linejoin:round;stroke-miterlimit:10;}
	.st126{fill:#FFFFFF;stroke:#29255C;stroke-width:0.3985;stroke-linecap:round;stroke-linejoin:round;stroke-miterlimit:10;}
	.st127{fill:none;stroke:#29255C;stroke-width:0.4224;stroke-linecap:round;stroke-linejoin:round;stroke-miterlimit:10;}
	.st128{fill:#848585;stroke:#29255C;stroke-width:0.4224;stroke-miterlimit:10;}
	.st129{fill:#829EAD;stroke:#29255C;stroke-width:0.4052;stroke-linecap:round;stroke-linejoin:round;stroke-miterlimit:10;}
	.st130{fill:#85C1B7;stroke:#29255C;stroke-width:0.4224;stroke-linecap:round;stroke-linejoin:round;stroke-miterlimit:10;}
	.st131{fill:#E0D6D2;}
	.st132{fill:#718180;stroke:#29255C;stroke-width:0.4664;stroke-miterlimit:10;}
	.st133{fill:#E6E7E8;}
	.st134{fill:#85C1B7;}
	.st135{fill:#EFF7EF;}
	.st136{fill:#829EAD;}
	.st137{fill:#FFFFFF;stroke:#262761;stroke-width:0.4664;stroke-linecap:round;stroke-linejoin:round;stroke-miterlimit:10;}
	.st138{fill:none;stroke:#29255C;stroke-width:0.4664;stroke-linecap:round;stroke-linejoin:round;stroke-miterlimit:10;}
	.st139{fill:#718180;}
	.st140{fill:#FFFFFF;stroke:#29255C;stroke-width:0.4664;stroke-linecap:round;stroke-linejoin:round;stroke-miterlimit:10;}
	.st141{fill:#FFFFFF;stroke:#262761;stroke-width:0.6581;stroke-linecap:round;stroke-linejoin:round;stroke-miterlimit:10;}
	.st142{fill:#FFFFFF;stroke:#262761;stroke-width:0.3731;stroke-linecap:round;stroke-linejoin:round;stroke-miterlimit:10;}
	.st143{fill:none;stroke:#29255C;stroke-width:0.3731;stroke-linecap:round;stroke-linejoin:round;stroke-miterlimit:10;}
	.st144{fill:#E6E7E8;stroke:#29255C;stroke-width:0.4664;stroke-linecap:round;stroke-linejoin:round;stroke-miterlimit:10;}
	.st145{fill:#4AA4DB;}
	.st146{fill:#B9D532;}
	.st147{fill:#262761;}
</style>
<polygon class="st0" points="66.03,99.07 71.34,99.54 71.78,101.12 72.33,102.21 73.04,102.92 73.02,103.67 72.42,103.83 
	71.8,103.45 70.9,102.47 70.23,101.96 69.55,102.36 69.48,103.38 69.68,105.45 69.35,106.27 68.35,106.74 67.84,106.34 67.84,104.5 
	67.51,102.65 64.1,106.12 63.39,106.12 63.42,105.32 64.68,102.81 62.84,103.96 61.07,104.72 60.36,104.61 60.74,103.9 "/>
<polygon class="st0" points="104.68,92.52 104.4,94.17 104.65,95.4 105.19,96.67 106.76,97.9 101.28,97.59 102.38,96.26 
	103.05,94.77 103.71,93.41 "/>
<g>
	<path class="st57" d="M148.24,0c11.1,0,20.11,9.05,20.11,20.21c0,11.16-9,20.21-20.11,20.21c-11.1,0-20.1-9.05-20.1-20.21
		C128.13,9.05,137.14,0,148.24,0L148.24,0z"/>
	<path class="st58" d="M101.95,37.02c52.46-8.19,39.46,3.37,27.29,6.13c-8.09,3.01,17.69,4.92,7.22,10.01
		c-25.43,12.38,19.73,4.96,7.7,16.02c-7.03,8.42,32.08,18.05,21.09,4.79c-8.98-8.47,17.23-10.65-1.77-15.74
		c-17.7-1.76-6.5,0.39,5.61-1.91c29.54-5.62-38.77-8.32,1.79-12.71c66.63-8.06-64.84-17.81-48.16-13.62
		c11.28,2.97,124.03-1.32,44.45-6.21c0.68-8.76-6.76-18.34-16.88-18.62c-15.77-0.44-21.72,16.3-20.46,20.53
		c0.9,0.99,32.3,3.37,32.25,0.31c-0.04-2.27-82.53-1.8-83.49-1.8"/>
	<g>
		<g>
			<path class="st58" d="M153.07,102.35c-0.13-0.19,1.5-0.09,1.7-0.22c0.65-0.43,2.42,0.71,3.03,0.49c0.89-0.32,1.66-0.59,2.32-1.45
				c0.05-0.1,0.16-0.34,0.45-0.38c0.35-0.04,0.54,0.12,0.63,0.23c0.34,0.41,0.09,1.15-0.16,1.94c-0.02,0.05-0.04,0.11-0.05,0.17
				c0.06-0.07,0.12-0.14,0.15-0.19c0.25-0.33,0.43-0.57,0.76-0.5c0.14,0.03,0.26,0.11,0.33,0.24c0.03,0.05,0.05,0.1,0.05,0.15
				c0.44-0.37,0.95-1.02,1.4-1.57c1.05-1.3,2.13-2.65,3.27-2.42c0.14,0.03,0.27,0.13,0.31,0.27c0.09,0.25,0.06,0.28-0.57,1.05
				c-0.48,0.59-1.9,2.32-2.06,2.86c0.39,0.16,1.46-0.3,2.04-0.55c0.78-0.33,1.16-0.5,1.47-0.33c0.13,0.08,0.22,0.21,0.24,0.37
				c0.06,0.48-0.35,0.87-0.79,1.27c-0.22,0.21-0.64,0.6-0.63,0.76c0,0.01,0.03,0.05,0.09,0.11c0.02,0.01,0.04,0,0.16,0
				c4.33,0.11,5.03-2.16,8.31-2.49c0.23-0.02,0.43-0.08,0.59,0.06c0.32,0.29,0.17,0.8-0.09,1.61l-0.05,0.14
				c-0.03,0.1-0.11,0.26-0.23,0.46c0.02,0.29,0.06,0.55,0.12,0.72c0.03-0.04,0.07-0.07,0.11-0.11c0.67-0.69,1.12-1.1,1.53-1.03
				c0.17,0.03,0.32,0.14,0.39,0.3c0.13,0.27,0.06,0.66-0.03,1.15c-0.05,0.27-0.14,0.8-0.09,0.99c0.22,0.03,0.5-0.12,0.79-0.27
				c0.41-0.21,0.87-0.45,1.35-0.31c0.21,0.06,0.36,0.21,0.41,0.4c0.11,0.38-0.17,0.75-0.62,1.25c0.33-0.06,0.77-0.2,1.01-0.27
				c0.72-0.22,1.19-0.37,1.45,0.01c0.31,0.47-0.18,0.9-0.62,1.27c-0.13,0.11-0.34,0.29-0.44,0.41c0.55,0.25,3.14-0.05,3.77-0.35
				c0.21-0.1,0.46-0.01,0.56,0.2l-0.19,0.56"/>
		</g>
		<g>
			<path class="st58" d="M185.23,109.49c-0.03,0.76,1.01,0.45,1.17,0.28c0.25-0.28,0.01-1.19-0.09-1.78
				c-0.09-0.54-0.19-1.15,0.21-1.6c0.23-0.25,0.47-0.22,0.57-0.2c0.43,0.1,0.58,0.64,0.8,1.38c0.05,0.19,0.13,0.45,0.2,0.65
				c0.13-0.19,0.3-0.46,0.46-0.71c1.04-1.66,1.78-2.73,2.54-2.51c0.23,0.06,0.4,0.21,0.48,0.41c0.21,0.51-0.17,1.18-0.6,1.96
				c-0.06,0.1-0.13,0.22-0.19,0.34c0.22-0.18,0.48-0.39,0.69-0.57c1.56-1.3,2.05-1.65,2.4-1.6c0.11,0.01,0.26,0.09,0.33,0.18
				c0.35,0.46-0.04,1.24-0.9,2.83c-0.4,0.75-1.07,1.99-1.03,2.32c0.04,0.26,0.19,0.45,0.46,0.56c0.39,0.16,0.94,0.09,1.24-0.15
				c0.17-0.13,0.38-0.54,0.56-0.86c0.32-0.6,0.56-1.04,0.98-1.04c0.12,0,0.36,0.04,0.54,0.35c0.31,0.57,0.15,1.24,0,1.89
				c-0.11,0.47-0.23,0.95-0.12,1.28c0.15-0.1,0.38-0.31,0.53-0.45c0.45-0.42,0.84-0.78,1.27-0.66c0.5,0.15,0.35,0.71,0.22,1.17
				c-0.04,0.13-0.09,0.33-0.12,0.49c0.24-0.09,0.48-0.27,0.73-0.47c0.24-0.19,0.49-0.38,0.77-0.5c0.33-0.15,0.52,0.03,0.57,0.08
				c0.24,0.26,0.09,0.55-0.09,0.89c-0.05,0.1-0.14,0.26-0.19,0.4"/>
		</g>
	</g>
	<path class="st59" d="M63.34,39.42l-0.33,13.05l11.84-0.63l-2.81-5.99c0,0,3.19,0.58,4.68-1.54c1.49-2.12,0.76-6.45,0.94-7.11
		c0.24-0.92,1.07-2.28,0.38-3.01c-0.36-0.38-0.49-0.04-2.72-2.05c-2.05-1.85-2.13-5.73-2.13-5.73c-1.55,1.8-4.72,3.16-7.07,3.44
		c-2.36,0.28-4.75-1.03-4.75-1.03"/>
	<path class="st60" d="M127.6,99.81c0.08-1.23,4.6-1.19,4.64-0.86c0.05,0.43-2.16,0.51-2.42,0.62c-0.99,0.41-1.12,1.61-1.07,2.4
		c0.06,0.9,0.45,1.85,1.35,2.42c0.22,0.14,3.23,0.46,3.36,0.11c-0.78,2.11-10.21-0.55-11.04,0.79c0.31-0.5,2.14-1.08,2.69-1.57
		c1.47-1.3,1.75-2.88,2.71-4.4C127.75,99.49,127.68,99.65,127.6,99.81C127.68,98.65,127.6,99.81,127.6,99.81z"/>
	<path class="st61" d="M141.02,97.4c0.3,0.12,5.76,1,4.56,0.69c-0.26-0.07-3.73,1.67-3.85,2.32c-0.04,0.25,0.89,2.71,0.88,2.71
		c-3.34,0.79-2.46-5.85-1.94-5.64C140.82,97.53,140.55,97.21,141.02,97.4z"/>
	<path class="st62" d="M141.46,101.61c-0.9-4.52,3.43-3.77,5.88-3.83c1.43-0.04,2.43-0.89,3.76-1.22c1.46-0.36,2.66,0.29,3.61,1.35
		c1.86,2.08,0.11,5.49-3.52,5.45C148.54,103.33,142.33,105.99,141.46,101.61C141.18,100.2,141.82,103.46,141.46,101.61z"/>
	<path class="st2" d="M49.9,93.17c0-3.24,31.82-3.38,35.59-1.71c1.44,0.64,1.92,6.08,1.92,6.98c0,0.69-0.42,2.62-1.05,4.13
		c-0.87,2.1-2.23,3.92-4.36,5.19c-1.39,0.82-2.53,1.23-4.31,1.31c-2.73,0.12-6.24-0.41-8.74-0.41c-1.3,0-4.59,0.41-7.51,0.44
		c-2.54,0.03-4.73-0.28-5.81-0.82c-2.2-1.08-4.13-3.04-4.96-5.4c-0.78-2.21-1.12-4.18-1.1-6.13C49.59,95.38,49.9,93.76,49.9,93.17z"
		/>
	<g>
		<g>
			<path class="st63" d="M0,112.34c0.46-0.09,1.02-0.16,1.61-0.23c1.92-0.23,4.32-0.52,5.27-1.7c0.15-0.18-0.13-0.67-0.8-1.45
				c-0.07-0.07-0.12-0.14-0.16-0.19c-0.05-0.06-0.24-0.2-0.36-0.29c-0.33-0.24-0.61-0.45-0.47-0.79c0.06-0.15,0.24-0.3,0.53-0.27
				c1.14,0.13,1.57,0.44,1.83,0.62c0.04,0.03,0.1,0.07,0.12,0.07c0.01,0,0.15-0.04,0.65-0.31c0.46-0.26,0.94,0.03,1.26,0.22
				c0.07,0.04,0.16,0.1,0.23,0.13c0.16-0.45,0.08-0.99-0.01-1.55c-0.12-0.75-0.24-1.53,0.15-2.22c0.2-0.35,0.5-0.32,0.59-0.3
				c0.45,0.09,0.51,0.56,0.62,1.7c0.02,0.16,0.03,0.3,0.04,0.41c0.01,0.09,0.02,0.2,0.03,0.32c0.06,0.72,0.16,1.42,0.56,1.59
				c0.31-0.33,1.03-1.5,1.47-2.22c1.15-1.88,1.34-2.13,1.73-2.09c0,0,0.01,0,0.01,0c0.18,0.02,0.35,0.18,0.4,0.34
				c0.22,0.75-0.09,1.49-0.36,2.15c-0.22,0.53-0.42,1.03-0.35,1.46c0.04,0.23,0.11,0.29,0.11,0.29c0.15,0.05,0.74-0.3,0.96-0.43
				c0.48-0.29,0.89-0.55,1.25-0.26c0.3,0.24,0.27,0.66,0.23,1.14c-0.01,0.15-0.03,0.4-0.02,0.56c0.23-0.1,0.63-0.33,0.89-0.48
				c0.3-0.17,0.59-0.33,0.76-0.42c0.22-0.1,0.48-0.02,0.6,0.19"/>
		</g>
		<g>
			<path class="st63" d="M49.6,104.45c-0.19,0.13-0.87,0.74-1.09,0.64c-0.27-0.12-0.31-0.12-0.55,0.31
				c-0.14,0.26-0.32,0.58-0.69,0.65c-0.24,0.05-0.5-0.02-0.77-0.21c-0.62-0.44-0.53-1.03-0.48-1.38c0.02-0.15,0.03-0.24,0.03-0.3
				c-0.04,0.04-0.09,0.09-0.13,0.13c-0.24,0.26-0.55,0.58-0.98,0.56c-0.26-0.01-0.48-0.13-0.68-0.37c-0.36-0.43-0.04-1.07,0.37-1.87
				c0.01-0.01,0.01-0.02,0.02-0.04c-0.1,0.15-0.19,0.29-0.27,0.42c-0.77,1.23-1.23,1.92-1.85,1.84c-0.87-0.1-1.19-0.79-1-2.5
				 M31.36,106.19c-1.83,1.38-4.38,1.61-6.85,1.83c-1.62,0.14-3.15,0.28-4.44,0.72c-0.07,0.02-0.14,0.03-0.2,0.02
				c-0.16-0.02-0.31-0.12-0.37-0.28 M41.58,102.21c-0.34,2.11-0.53,3.13-1.26,3.18c-0.24,0.02-0.46-0.08-0.68-0.34
				c-0.06,0.8-0.22,1.57-0.57,2.09c-0.33,0.49-0.75,0.64-1.05,0.67c-0.31,0.03-0.31,0.04-2.5-2.67l-0.02-0.02
				c-0.09,0.08-0.2,0.19-0.28,0.27c-0.36,0.35-0.67,0.66-1.03,0.67c-0.96,0.02-1.09-0.64-1.15-0.93c-0.02-0.07-0.04-0.19-0.06-0.22
				l0,0c0,0-0.02-0.02-0.1-0.03c-0.07-0.01-1.33,1.13-1.47,1.3"/>
		</g>
		<g>
			<path class="st63" d="M55.04,101.73c-0.4,0.87-0.74,1.62-1.13,1.97c-0.31,0.27-0.59,0.35-0.86,0.22
				c-0.28-0.12-0.38-0.4-0.41-0.74c-0.26,0.51-0.53,0.95-0.92,1.09c-0.39,0.13-0.76,0.1-1.09-0.09c-0.02,0.16-0.05,0.32-0.08,0.48
				c-0.02,0.14-0.05,0.27-0.07,0.41c-0.03,0.23-0.24,0.39-0.49,0.37c-0.24-0.03-0.41-0.24-0.39-0.47c0.02-0.15,0.04-0.3,0.07-0.46"
				/>
			<path class="st63" d="M58.93,101.86c-0.13,0.2-0.41,0.25-0.61,0.12c-0.34-0.21-0.48-0.49-0.49-0.79
				c-0.62,1.01-1.22,1.77-1.93,1.85c-0.39,0.05-0.74-1.24-0.83-1.35"/>
		</g>
	</g>
	<path class="st64" d="M104.33,90.29c7.22-0.13,14.47-1.89,21.68-2.02c1.32-0.02,1.15,1.69,1.65,3.09c0.33,0.93-0.01,1.91,1.1,2.27
		c1.11,0.36,2.23,0.73,3.35,1.06c2.05,0.61,4.13,1.15,6.21,1.65c0.67,0.16,2.6,0.24,3.11,0.76c0.26,0.27-0.49,3.39-0.78,3.68
		c-0.05,0.05-2.91-1.75-3.39-1.94c-2.11-0.84-2.47-0.11-4.33,0.23c-1.56,0.28-3.01-0.39-4.41,0.61c-1.17,0.84-1.54,2.91-2.42,4.1
		c-1.23,1.66-2.8,1.4-4.09,2.61c-1.37,1.27-2.74,1.84-4.54,2.26c-2.98,0.7-6.77,0.49-9.81,0.16c-5.15-0.56-15.96-1.98-16.06-9.13
		c-0.05-3.52,1.02-6.68,5.05-6.96C99.37,92.53,101.84,91.41,104.33,90.29L104.33,90.29z"/>
	<path class="st65" d="M91.24,105.13c2.41,0.65,3.15-0.46,4.04,1.8c0.33,0.85,0.5,2.3,1.26,2.96c1.09,0.93,0.21,1.77-0.75,0.91
		c-0.29-0.26-1.29-1.66-1.87-1.47c-1.01,0.33-0.46,2.37-0.35,3.73c0.07,0.79-1.76,1.49-1.8,0.33c-0.03-0.87,0.1-2.59-0.35-3.35
		c-0.17-0.29-2.99,3.33-3.51,3.46c-1.83,0.45,0.81-3.09,0.93-3.68c-0.02,0.08-1.39,1.09-1.65,1.27c-0.13,0.09-3.33,1.78-2.83,0.52
		C84.63,110.94,90.55,106.44,91.24,105.13L91.24,105.13z"/>
	<path class="st66" d="M100.56,49.96c0,0-2.53,1.24,1.62,4.46c7.74,6.01,9.56,0.36,14.34,7.92c1.7,3.42,6.46,15.52,7.46,17.47
		c1.44,2.81,2.04,5.74,2.99,9.02c-1.68,4.14-14.94,3.58-16.38,3.76c-1.55,0.2-4.86-0.22-7.73-0.8c-2.33-0.47-6.32-10.23-6.78-11.61
		c-0.45-1.31-0.71-2.33-1.07-1.6c-0.05,0.1,0.21,2.15,0.36,3.46c0.24,2.22,0.39,5.26,0.54,8.27c0.21,4.33,0.24,16.25-0.28,16.49
		c-0.27,0.12-2.09-0.04-3.13-0.12c-1.05-0.07-2.85-0.15-2.87-0.57c-0.13-3.16-1.43-18.25-1.9-21.67
		c-0.47-3.43-1.69-15.93-2.06-17.67c-0.71-3.37,0.03-8.57,1.55-10.23c0.91-1,3.51-2.26,5.11-3.44
		C93.4,52.31,100.56,49.96,100.56,49.96z"/>
	<path class="st0" d="M103.18,55.66l3.89-5.15c0,0,1.77-0.66,3.38-1.67c2.15-1.34,1.73-3.79,1.66-4.92
		c-0.07-1.13-0.28-3.36-0.28-3.36s0.98-2.37,0.19-2.81c-2.88-1.6-4.34-4.39-6.29-5.93c-2.07-1.63-9.39-1.05-10.92,2.94
		c-1.53,3.99,3.32,12.25,3.32,12.25s1.35,6.01,1.89,8.86c0.65,3.37-0.28,7.93-0.28,7.93"/>
	<path class="st58" d="M104.67,57.44c-1.57-2.49,3.98-4.45,2.41-6.94c2.35-0.9,4.97-2.01,5.12-4.86c0.05-0.96-0.08-1.94-0.16-2.89
		c-0.06-0.72-0.37-1.73-0.11-2.42c0.23-0.62,0.75-1.9,0.23-2.49c-0.46-0.53-1.34-0.87-1.89-1.35c-0.72-0.62-1.36-1.32-1.99-2.04
		c-0.85-0.97-1.7-2.2-2.84-2.85c-0.92-0.52-2.07-0.64-3.1-0.64c-2.38-0.01-5.21,0.66-6.8,2.58c-1.45,1.76-1.06,4.21-0.5,6.25
		c0.57,2.08,1.45,4.07,2.44,5.98c0.49,0.94,0.74,1.54,0.97,2.58c0.58,2.61,1.25,5.23,1.66,7.88c0.39,2.48,0.13,5.12-0.34,7.57"/>
	<path class="st9" d="M108.02,34.68c0.39-0.01,0.68,0.29,0.64,0.68c-0.04,0.39-0.38,0.71-0.78,0.73c-0.39,0.01-0.68-0.29-0.64-0.68
		C107.29,35.02,107.63,34.7,108.02,34.68"/>
	<path class="st2" d="M107.12,39.35c-1.37-4.58-0.2-10.11-6.66-10.73c-4.83-0.47-9.91,2.85-10.23,7.52
		c-0.62,9,3.05,10.91-1.41,18.33c-4.13,6.88,2.41,7.65,1.43,14.29c-0.84,5.67,10.69,6.91,9.24,1.49
		c-1.48-5.57,11.83,1.39,11.03-4.11c-1.22-8.44,4.71-14.87-0.68-16.95C105.77,47.62,107.67,41.19,107.12,39.35z"/>
	<path class="st9" d="M104.83,35.12c-3.81-4.06-2.47,2.07-1.83,1.53c0.23-0.2-0.03,0.89-0.68,1.98c-2.99-2.36-6.85-4.97-9.63-7.32
		c2.02-1.66,4.83-3.31,8.31-3.12c5.18,0.28,7.66,4.11,7.66,4.11s-1.23,1.87-2.49,2.82C105.74,35.43,107.25,37.71,104.83,35.12z"/>
	<path class="st62" d="M133.45,105.3c-3.48,0.38-5.66-1.79-4.88-4.94c0.46-1.84,5.07-1.46,6.84-2.09c3.17-1.13,6.3,1.55,6.21,3.83
		C141.56,103.85,134.84,105.14,133.45,105.3C131.88,105.47,134.67,105.16,133.45,105.3z"/>
	<path class="st67" d="M94.52,71.62c0.46,4.47,0.32,2.62,0.46,6.99"/>
	<path class="st58" d="M112.1,43.39c-1.15,1.51-2.23,0.6-2.23,0.6"/>
	<path class="st68" d="M112.15,55.07c0,0-1.5,0.41-11.83,0.41s-17.89-5.01-22.16-4.92c-2.09,0.04-2.93-2.24-4.63-2.58
		c-2.93-0.59-11.18-0.62-11.47,1.28c-0.09,0.63-0.24,0.96-0.47,1.16c-0.34,0.29-0.87,0.3-1.74,0.53c-3.31,0.86-6.04,1.4-9.08,3.03
		c-3.33,1.79-3.88,8.97-4.67,12.34c-1.06,4.48-2.25,9.68-2.25,14.33c0,1.7,1.68,3.25,3.5,4.04c0.76,0.33,3.81,1.41,3.93,1.94
		c0.16,0.75-2.02,6.48-1.46,6.6c4.74,1.01,9.11,2.09,14.01,2.24c4.74,0.15,9.48-0.15,14.16-0.94c2.07-0.35,4.22-0.75,6.13-1.66
		c1.68-0.81,1.44-1.33,1.27-2.99c-0.49-4.88,1.32-16.06,1-25.25c0.21,0.02,1.97,0.91,6.87,1.12c2.03,0.08,9.99,0.33,14.68-0.96
		c4.49-1.23,7.61-3.55,7.61-3.55L112.15,55.07z"/>
	<path class="st9" d="M72.42,22.52c-3.06-1.97-7.4-0.37-10.34,0.86c-3.2,1.34-5.9,1.99-7.05,5.63c-0.8,2.51-0.8,5.51,0.01,8.02
		c1.92,5.95,7.9,10.09,13.88,7.29c6.53-3.05,1.76-9.54,2.45-14.75c0.54-1.06,1.62-1.38,1.83-1.79c0.44-0.86,1.17-1.28,1.24-2.4
		C74.54,23.55,74.36,23.16,72.42,22.52"/>
	<path class="st59" d="M72.72,34.95c0,0-2.55-1.61-2.74,0.14c-0.29,2.68,2.49,2.64,2.49,2.64"/>
	<path class="st9" d="M59.71,36.96c-1.17-2.55-3.87-3.56-4.51-6.3c-1.07-4.63,4.94-8.08,8.52-9.62c2.21-0.89,5.86-1.31,8.09-0.48
		c3.09,1.15,3.83,5.02,1.51,6.87"/>
	<path class="st9" d="M73.53,31.96c0.22,0.46,0.75,0.65,1.18,0.42c0.44-0.22,0.01-0.58-0.21-1.04c-0.22-0.46-0.14-0.84-0.58-0.62
		C73.49,30.96,73.32,31.51,73.53,31.96"/>
	<path class="st58" d="M75.73,40.03c0,0,1.29,0,1.82-0.69"/>
	<path class="st69" d="M61.82,50.57c3.49,0.38,12.31,0.69,14.21-0.61"/>
	<path class="st68" d="M51.22,86.51c0,0,3-12.87,1.33-22.65"/>
	<path class="st59" d="M107.31,38.58c0,0-2.23-0.59-1.9,1.34c0.51,2.93,3.05,1.32,3.05,1.32"/>
	<path class="st70" d="M112.28,54.93c0,0-0.48-1.78,0.54-1.37c1.02,0.41,1.36,1.09,1.36,1.09s3.4-1.23,3.94,3.55
		c0.09,0.81,1.09,1.78,0.27,2.19c-0.82,0.41-2.85,0.75-2.85,0.75L112.28,54.93z"/>
</g>
</svg>
