<?xml version="1.0" encoding="utf-8"?>
<!-- Generator: Adobe Illustrator 27.6.1, SVG Export Plug-In . SVG Version: 6.00 Build 0)  -->
<svg version="1.1" id="Layer_1" xmlns="http://www.w3.org/2000/svg" xmlns:xlink="http://www.w3.org/1999/xlink" x="0px" y="0px"
	 viewBox="0 0 200 111" style="enable-background:new 0 0 200 111;" xml:space="preserve">
<style type="text/css">
	.st0{fill:#FFFFFF;}
	.st1{fill-rule:evenodd;clip-rule:evenodd;fill:#85C1B7;}
	.st2{fill-rule:evenodd;clip-rule:evenodd;fill:#29255C;}
	.st3{fill-rule:evenodd;clip-rule:evenodd;fill:#FEF1EE;stroke:#29255C;stroke-width:0.5305;stroke-miterlimit:10;}
	.st4{fill-rule:evenodd;clip-rule:evenodd;fill:#FDE1DD;stroke:#29255C;stroke-width:0.5305;stroke-miterlimit:10;}
	.st5{fill-rule:evenodd;clip-rule:evenodd;fill:#F8ACA8;stroke:#29255C;stroke-width:0.5305;stroke-miterlimit:10;}
	.st6{fill-rule:evenodd;clip-rule:evenodd;fill:#FAC6C1;stroke:#29255C;stroke-width:0.5305;stroke-miterlimit:10;}
	.st7{fill-rule:evenodd;clip-rule:evenodd;fill:#EE6F78;stroke:#29255C;stroke-width:0.5305;stroke-miterlimit:10;}
	.st8{fill-rule:evenodd;clip-rule:evenodd;fill:#F59291;stroke:#29255C;stroke-width:0.5305;stroke-miterlimit:10;}
	.st9{fill:#29255C;}
	.st10{fill-rule:evenodd;clip-rule:evenodd;fill:#ECD9E6;}
	.st11{fill:#B4E2EA;}
	.st12{fill:none;stroke:#29255C;stroke-width:0.4268;stroke-miterlimit:10;}
	.st13{fill:#EECDCA;stroke:#29255C;stroke-width:0.4268;stroke-linecap:round;stroke-linejoin:round;stroke-miterlimit:10;}
	.st14{fill:#FFFFFF;stroke:#29255C;stroke-width:0.4268;stroke-linecap:round;stroke-linejoin:round;stroke-miterlimit:10;}
	.st15{fill:none;stroke:#29255C;stroke-width:0.3415;stroke-linecap:round;stroke-linejoin:round;stroke-miterlimit:10;}
	.st16{fill:none;stroke:#29255C;stroke-width:0.4952;stroke-linecap:round;stroke-linejoin:round;stroke-miterlimit:10;}
	.st17{fill:#FDCA95;stroke:#29255C;stroke-width:0.4268;stroke-linecap:round;stroke-linejoin:round;stroke-miterlimit:10;}
	.st18{fill:#FFFFFF;stroke:#29255C;stroke-width:0.4268;stroke-miterlimit:10;}
	.st19{fill:none;stroke:#29255C;stroke-width:0.495;stroke-linecap:round;stroke-linejoin:round;stroke-miterlimit:10;}
	.st20{fill:none;stroke:#29255C;stroke-width:0.4168;stroke-linecap:round;stroke-linejoin:round;stroke-miterlimit:10;}
	.st21{fill:none;stroke:#29255C;stroke-width:0.417;stroke-linecap:round;stroke-linejoin:round;stroke-miterlimit:10;}
	.st22{fill:#FFFFFF;stroke:#29255C;stroke-width:0.4241;stroke-miterlimit:10;}
	.st23{fill:none;stroke:#29255C;stroke-width:0.4241;stroke-linecap:round;stroke-linejoin:round;stroke-miterlimit:10;}
	.st24{fill:#B4E2EA;stroke:#29255C;stroke-width:0.4268;stroke-linecap:round;stroke-linejoin:round;stroke-miterlimit:10;}
	.st25{fill:none;stroke:#29255C;stroke-width:0.4268;stroke-linecap:round;stroke-linejoin:round;stroke-miterlimit:10;}
	.st26{fill:none;stroke:#29255C;stroke-width:0.4497;stroke-miterlimit:10;}
	.st27{fill:none;stroke:#29255C;stroke-width:0.442;stroke-linecap:round;stroke-linejoin:round;stroke-miterlimit:10;}
	.st28{fill:none;stroke:#29255C;stroke-width:0.6024;stroke-linecap:round;stroke-linejoin:round;stroke-miterlimit:10;}
	.st29{fill:#FCDCCB;}
	.st30{fill:#FFFFFF;stroke:#29255C;stroke-width:0.6024;stroke-linecap:round;stroke-linejoin:round;stroke-miterlimit:10;}
	.st31{fill:#FFFFFF;stroke:#28255C;stroke-width:0.6024;stroke-linejoin:round;stroke-miterlimit:10;}
	.st32{fill:#85C1B7;stroke:#29255C;stroke-width:0.4506;stroke-miterlimit:10;}
	.st33{fill:#ECD9E6;}
	.st34{fill:#85C1B7;stroke:#29255C;stroke-width:0.6024;stroke-linecap:round;stroke-linejoin:round;stroke-miterlimit:10;}
	.st35{fill:#C6D0D7;}
	.st36{fill:#97ADB9;}
	.st37{fill:#E8D3D1;}
	.st38{fill:#E0C0BE;}
	.st39{fill:#FEEDEB;}
	.st40{fill:#829EAD;stroke:#29255C;stroke-width:0.4269;stroke-linecap:round;stroke-linejoin:round;stroke-miterlimit:10;}
	.st41{fill:#F4C9C4;stroke:#29255C;stroke-width:0.4269;stroke-linecap:round;stroke-linejoin:round;stroke-miterlimit:10;}
	.st42{fill:#FFFFFF;stroke:#29255C;stroke-width:0.3977;stroke-linecap:round;stroke-linejoin:round;stroke-miterlimit:10;}
	.st43{fill:#D9D7D7;}
	.st44{fill:#9F433D;}
	.st45{fill:#FFFFFF;stroke:#FFFFFF;stroke-width:0.502;stroke-miterlimit:10;}
	.st46{fill:#E3E3ED;}
	.st47{fill:#4A4370;stroke:#29255C;stroke-width:0.4269;stroke-miterlimit:10;}
	.st48{fill:#F2F2F9;}
	.st49{fill:#85C1B7;stroke:#29255C;stroke-width:0.4269;stroke-linecap:round;stroke-linejoin:round;stroke-miterlimit:10;}
	.st50{fill:#FFFFFF;stroke:#29255C;stroke-width:0.4269;stroke-linecap:round;stroke-linejoin:round;stroke-miterlimit:10;}
	.st51{fill:none;stroke:#29255C;stroke-width:0.5369;stroke-linecap:round;stroke-linejoin:round;stroke-miterlimit:10;}
	.st52{fill:none;stroke:#29255C;stroke-width:0.4269;stroke-linecap:round;stroke-linejoin:round;stroke-miterlimit:10;}
	.st53{fill:#FFFFFF;stroke:#28255C;stroke-width:0.3977;stroke-linecap:round;stroke-linejoin:round;stroke-miterlimit:10;}
	.st54{fill:#B55243;}
	.st55{fill:none;stroke:#29255C;stroke-width:0.4973;stroke-linecap:round;stroke-linejoin:round;stroke-miterlimit:10;}
	.st56{fill:none;stroke:#29255C;stroke-width:0.4055;stroke-linecap:round;stroke-linejoin:round;stroke-miterlimit:10;}
	.st57{fill-rule:evenodd;clip-rule:evenodd;fill:#F58220;stroke:#F58220;stroke-width:0.0101;stroke-miterlimit:2.6131;}
	.st58{fill:none;stroke:#29255C;stroke-width:0.5796;stroke-linecap:round;stroke-linejoin:round;stroke-miterlimit:10;}
	.st59{fill:#FFFFFF;stroke:#29255C;stroke-width:0.5796;stroke-linecap:round;stroke-linejoin:round;stroke-miterlimit:10;}
	
		.st60{fill-rule:evenodd;clip-rule:evenodd;fill:none;stroke:#29255C;stroke-width:0.648;stroke-linecap:round;stroke-miterlimit:10;}
	
		.st61{fill-rule:evenodd;clip-rule:evenodd;fill:#FFFFFF;stroke:#29255C;stroke-width:0.4947;stroke-linecap:round;stroke-linejoin:round;stroke-miterlimit:10;}
	
		.st62{fill-rule:evenodd;clip-rule:evenodd;fill:#829EAD;stroke:#29255C;stroke-width:0.5796;stroke-linecap:round;stroke-linejoin:round;stroke-miterlimit:10;}
	.st63{fill:none;stroke:#29255C;stroke-width:0.5796;stroke-linecap:round;stroke-miterlimit:10;}
	.st64{fill-rule:evenodd;clip-rule:evenodd;fill:#858485;stroke:#29255C;stroke-width:0.5796;stroke-miterlimit:10;}
	
		.st65{fill-rule:evenodd;clip-rule:evenodd;fill:none;stroke:#29255C;stroke-width:0.5796;stroke-linecap:round;stroke-miterlimit:10;}
	
		.st66{fill-rule:evenodd;clip-rule:evenodd;fill:#DFB7AE;stroke:#29255C;stroke-width:0.5796;stroke-linecap:round;stroke-linejoin:round;stroke-miterlimit:10;}
	
		.st67{fill-rule:evenodd;clip-rule:evenodd;fill:none;stroke:#29255C;stroke-width:0.5796;stroke-linecap:round;stroke-linejoin:round;stroke-miterlimit:10;}
	
		.st68{fill-rule:evenodd;clip-rule:evenodd;fill:#85C1B7;stroke:#29255C;stroke-width:0.5796;stroke-linecap:round;stroke-linejoin:round;stroke-miterlimit:10;}
	
		.st69{fill-rule:evenodd;clip-rule:evenodd;fill:#85C1B7;stroke:#29255C;stroke-width:0.5184;stroke-linecap:round;stroke-linejoin:round;stroke-miterlimit:10;}
	
		.st70{fill-rule:evenodd;clip-rule:evenodd;fill:#FFFFFF;stroke:#29255C;stroke-width:0.5796;stroke-linecap:round;stroke-miterlimit:10;}
	.st71{fill:#FBD8AE;}
	.st72{fill:#FDC443;}
	.st73{fill:#FDE6CB;}
	.st74{fill:#FFD37B;}
	.st75{fill-rule:evenodd;clip-rule:evenodd;fill:#FFFFFF;stroke:#29255C;stroke-width:0.3863;stroke-miterlimit:10;}
	
		.st76{fill-rule:evenodd;clip-rule:evenodd;fill:#FFFFFF;stroke:#29255C;stroke-width:0.3863;stroke-linecap:round;stroke-linejoin:round;stroke-miterlimit:10;}
	.st77{fill-rule:evenodd;clip-rule:evenodd;fill:#4A4370;}
	.st78{fill-rule:evenodd;clip-rule:evenodd;fill:#655D83;}
	
		.st79{fill-rule:evenodd;clip-rule:evenodd;fill:#8CA5B3;stroke:#29255C;stroke-width:0.3863;stroke-linecap:round;stroke-linejoin:round;stroke-miterlimit:10;}
	
		.st80{fill-rule:evenodd;clip-rule:evenodd;fill:#8BD2D2;stroke:#29255C;stroke-width:0.3863;stroke-linecap:round;stroke-linejoin:round;stroke-miterlimit:10;}
	
		.st81{fill-rule:evenodd;clip-rule:evenodd;fill:#ECD9E6;stroke:#29255C;stroke-width:0.3997;stroke-linecap:round;stroke-linejoin:round;stroke-miterlimit:10;}
	.st82{fill-rule:evenodd;clip-rule:evenodd;fill:#29255C;stroke:#29255C;stroke-width:0.309;stroke-miterlimit:10;}
	.st83{fill-rule:evenodd;clip-rule:evenodd;fill:#4A4370;stroke:#29255C;stroke-width:0.309;stroke-miterlimit:10;}
	.st84{fill-rule:evenodd;clip-rule:evenodd;fill:#8F8FA1;}
	.st85{fill-rule:evenodd;clip-rule:evenodd;fill:#7A798C;}
	.st86{fill-rule:evenodd;clip-rule:evenodd;fill:#FEEFED;}
	.st87{fill-rule:evenodd;clip-rule:evenodd;fill:#EED5D6;}
	.st88{fill:#8CA5B3;stroke:#29255C;stroke-width:0.3863;stroke-linecap:round;stroke-linejoin:round;stroke-miterlimit:10;}
	.st89{fill:#262761;stroke:#29255C;stroke-width:0.3863;stroke-linecap:round;stroke-linejoin:round;stroke-miterlimit:10;}
	.st90{fill:#1F0F09;}
	.st91{fill:#FFFFFF;stroke:#29255C;stroke-width:0.3863;stroke-miterlimit:10;}
	.st92{fill:#F15848;}
	.st93{fill:#C7483B;}
	.st94{fill:#FDF5F0;}
	.st95{fill:#EDE6E2;}
	.st96{fill:#A17371;}
	.st97{fill:#896360;}
	.st98{fill:#CBA96F;}
	.st99{fill:#F298A8;}
	.st100{fill:#D4D4CA;}
	.st101{fill:#F8ADB0;}
	.st102{fill:#73C48C;}
	.st103{fill:#E6E5DA;}
	.st104{fill:#D9EDEF;stroke:#29255C;stroke-width:0.3863;stroke-linecap:round;stroke-linejoin:round;stroke-miterlimit:10;}
	.st105{fill:#E7F4F5;stroke:#29255C;stroke-width:0.3863;stroke-linecap:round;stroke-linejoin:round;stroke-miterlimit:10;}
	.st106{fill:#A9D0DF;stroke:#29255C;stroke-width:0.3863;stroke-linecap:round;stroke-linejoin:round;stroke-miterlimit:10;}
	.st107{fill:#A9D0DF;}
	.st108{fill:#E9EFCB;}
	.st109{fill:#FFFFFF;stroke:#29255C;stroke-width:0.3863;stroke-linecap:round;stroke-linejoin:round;stroke-miterlimit:10;}
	.st110{fill:none;stroke:#29255C;stroke-width:0.3863;stroke-linecap:round;stroke-linejoin:round;stroke-miterlimit:10;}
	
		.st111{fill-rule:evenodd;clip-rule:evenodd;fill:none;stroke:#29255C;stroke-width:0.3863;stroke-linecap:round;stroke-linejoin:round;stroke-miterlimit:10;}
	.st112{fill:none;stroke:#29255C;stroke-width:0.3202;stroke-linecap:round;stroke-linejoin:round;stroke-miterlimit:10;}
	.st113{fill:none;stroke:#29255C;stroke-width:0.3863;stroke-linecap:round;stroke-miterlimit:10;}
	.st114{fill:#EDCABF;stroke:#29255C;stroke-width:0.3863;stroke-linecap:round;stroke-linejoin:round;stroke-miterlimit:10;}
	.st115{fill:#FFFFFF;stroke:#29255C;stroke-width:0.4224;stroke-miterlimit:10;}
	.st116{fill:#B0D5A4;}
	.st117{opacity:0.5;}
	.st118{fill:#CEE4C6;}
	.st119{fill:#829EAD;stroke:#29255C;stroke-width:0.4224;stroke-linecap:round;stroke-linejoin:round;stroke-miterlimit:10;}
	.st120{fill:#FFFFFF;stroke:#29255C;stroke-width:0.4224;stroke-linecap:round;stroke-linejoin:round;stroke-miterlimit:10;}
	.st121{fill:#9B8579;}
	.st122{opacity:0.49;}
	.st123{fill:#DFB7AE;stroke:#29255C;stroke-width:0.4224;stroke-linecap:round;stroke-linejoin:round;stroke-miterlimit:10;}
	.st124{fill:#ECD9E6;stroke:#29255C;stroke-width:0.4224;stroke-linecap:round;stroke-linejoin:round;stroke-miterlimit:10;}
	.st125{fill:#FFFFFF;stroke:#262761;stroke-width:0.4224;stroke-linecap:round;stroke-linejoin:round;stroke-miterlimit:10;}
	.st126{fill:#FFFFFF;stroke:#29255C;stroke-width:0.3985;stroke-linecap:round;stroke-linejoin:round;stroke-miterlimit:10;}
	.st127{fill:none;stroke:#29255C;stroke-width:0.4224;stroke-linecap:round;stroke-linejoin:round;stroke-miterlimit:10;}
	.st128{fill:#848585;stroke:#29255C;stroke-width:0.4224;stroke-miterlimit:10;}
	.st129{fill:#829EAD;stroke:#29255C;stroke-width:0.4052;stroke-linecap:round;stroke-linejoin:round;stroke-miterlimit:10;}
	.st130{fill:#85C1B7;stroke:#29255C;stroke-width:0.4224;stroke-linecap:round;stroke-linejoin:round;stroke-miterlimit:10;}
	.st131{fill:#E0D6D2;}
	.st132{fill:#718180;stroke:#29255C;stroke-width:0.4664;stroke-miterlimit:10;}
	.st133{fill:#E6E7E8;}
	.st134{fill:#85C1B7;}
	.st135{fill:#EFF7EF;}
	.st136{fill:#829EAD;}
	.st137{fill:#FFFFFF;stroke:#262761;stroke-width:0.4664;stroke-linecap:round;stroke-linejoin:round;stroke-miterlimit:10;}
	.st138{fill:none;stroke:#29255C;stroke-width:0.4664;stroke-linecap:round;stroke-linejoin:round;stroke-miterlimit:10;}
	.st139{fill:#718180;}
	.st140{fill:#FFFFFF;stroke:#29255C;stroke-width:0.4664;stroke-linecap:round;stroke-linejoin:round;stroke-miterlimit:10;}
	.st141{fill:#FFFFFF;stroke:#262761;stroke-width:0.6581;stroke-linecap:round;stroke-linejoin:round;stroke-miterlimit:10;}
	.st142{fill:#FFFFFF;stroke:#262761;stroke-width:0.3731;stroke-linecap:round;stroke-linejoin:round;stroke-miterlimit:10;}
	.st143{fill:none;stroke:#29255C;stroke-width:0.3731;stroke-linecap:round;stroke-linejoin:round;stroke-miterlimit:10;}
	.st144{fill:#E6E7E8;stroke:#29255C;stroke-width:0.4664;stroke-linecap:round;stroke-linejoin:round;stroke-miterlimit:10;}
	.st145{fill:#4AA4DB;}
	.st146{fill:#B9D532;}
	.st147{fill:#262761;}
</style>
<g>
	<path class="st0" d="M131.39,51.68c0,0,4.36-1.4,8.11,4.65l-0.49,0.21l-4.69,5.02l-3.56,3.17l-3.11,2.49l-4.51,2.63l-5.95,2.47
		l-0.33,0.74l-1.07,0.47l-0.58,0.1l-4.18,1.5l-1.11-0.06l-1.48-0.27l-1.19,0.06l-1.01,0.76l-0.27-0.99l0.14-0.97l-0.41-0.88
		l0.68-1.52l-0.41-1.77l0.62-0.49l0.21-1.44l0.41-0.47h0.95l1.01,0.33l1.01,0.31l1.03-0.33l0.43-0.82l0.56-1.56l0.62,0.37l0.47,0.95
		l0.49,1.21l0.6,0.25l1.81-0.84l0.54,0.25l6.3-5.43l5.56-5.49l1.85-2.47L131.39,51.68z"/>
	<polygon class="st0" points="113.13,31.14 113.63,29.86 115.38,29.24 116.43,29.24 119.11,29.78 120.47,30.21 121.13,31.18 
		121.48,33.27 121.64,35.33 121.87,37.62 122.61,39.37 123.81,40.15 124.94,40.69 125.21,41.5 131.39,45.62 129.45,52.14 
		131.59,51.52 130.5,53.42 129.6,52.96 129.1,52.8 125.41,49.11 122.49,45.78 121.87,45.89 120.67,45.23 120.2,43.83 119.38,44.11 
		117.79,43.41 117.01,42.55 118.61,35.76 117.98,34.94 117.17,35.25 116.23,35.22 116.31,36.07 115.85,37.16 116.16,37.89 
		115.81,38.9 115.07,39.06 115.15,40.38 114.56,40.73 113.75,40.61 113.05,38.71 113.4,37.54 113.2,36.3 114.02,35.76 114.14,33.7 
		115.03,33.43 114.49,31.99 	"/>
	<path class="st0" d="M139.15,31.49l2.02-0.29l1.78,0.24l0.96,0.1l2.3-0.72l2.02-0.86l0.58-0.67l-4.03-12.37l0.34-1.3l-0.38-1.73
		l-1.3-0.43l-1.2,0.19l-0.89-2.57c0,0-3.41,1.63-7,0.63c-2.68-0.74-4.45-2.05-4.45-2.05s-0.76,3.08-1.79,4.7
		c-1.26,1.98-2.94,3.37-1.75,3.85c0.52,0.21,1.89,0.49,1.89,0.49s3.25,5.71,4.01,7.02c0.78,1.35,2.32,3.34,5.43,3.33l0.7-0.04
		L139.15,31.49z"/>
	<path class="st131" d="M0,110.45c14.16-15.9,44.68-27.45,99.91-27.45c55.23,0,87.48,8.26,100.09,27.45
		C200,110.45,0,111.68,0,110.45"/>
	<path class="st132" d="M106.84,100.83c0,0,0.72,0.86,1.96,0.88c1.24,0.03,3.49,0.04,2.32-1.21c-1.17-1.25-2.7-2.04-3.27-1.24
		C107.3,100.05,106.84,100.83,106.84,100.83z"/>
	<path class="st133" d="M106.54,75.4l-1.56,5.51c0,0-3.21,2.71-3.87,4.44s-3.13,11.26-3.13,11.26s-0.58,2.47,1.07,3.29
		c1.65,0.82,4.94,1.4,6.59,1.15c1.65-0.25,2.63-0.74,2.8-1.56c0.16-0.82,2.06-10.93,1.89-12.66s-0.91-3.86-0.91-3.86l-0.99-1.56
		l1.56-6.66l-2.14-0.16L106.54,75.4z"/>
	<path class="st133" d="M108.18,66.77l5.43-26.3c0,0,0.58,0.58,0.99,0.25s0.49-1.07,0.49-1.07l0.08-0.82c0,0,0.74,0,0.82-0.41
		c0.08-0.41-0.25-1.4-0.25-1.4s0.66-0.49,0.66-0.82c0-0.33,0.08-1.23,0.08-1.23s0.58,0.25,0.91,0.16c0.33-0.08,0.74-0.25,0.74-0.25
		l0.33,0.74L112.3,64.8l-0.66,1.89c0,0-0.56,0.91-1.31,0.91c-0.74,0-1.49-0.5-1.49-0.5L108.18,66.77z"/>
	<path class="st9" d="M132.88,90.48c0,0-0.11,2.64-4,2.94c-3.89,0.3-4.02,0.29-4.71,0.61c-0.69,0.32-0.54,0.79-0.61,1.39
		c-0.2,1.69,0.98,1.89,0.98,1.89l15.92-0.41c0,0-0.25-2.65-0.48-3.98c-0.19-1.12-0.66-3.14-0.66-3.14L132.88,90.48z"/>
	<path class="st134" d="M119.87,64.96c0,0,0-7.01,1.21-8.22c1.21-1.21,3.51-2.96,5.05-3.29c1.54-0.33,3.4-0.33,3.4-0.33l1.1,0.33
		c0,0-2.63,3.62-3.29,4.06c-0.66,0.44-5.38,5.26-5.38,5.26L119.87,64.96z"/>
	<path class="st135" d="M129.51,52.47c0,0,2.72-10.6,2.96-11.67s2.03-8.14,5.81-9.07c2.64-0.65,3.26-0.48,4.64-0.3
		c1.47,0.19,4.64-1.04,5.54-1.7c0.91-0.66,1.98-0.27,1.98-0.27s3.02,1.15,6.31,5.92s7.57,14.27,7.08,23.89
		c-0.49,9.62-0.11,13.34-0.44,15.4s-1.21,6.66-2.11,7.89c-0.91,1.23-2.47,2.63-3.46,2.79c-0.99,0.16-2.47,0.55-2.47,0.55
		s-2.39-0.22-2.14-0.47s1.37-2.14,0.38-5.67c-0.99-3.53-5.16-7.56-6.39-8.3s-5.52-2.38-6.5-2.3s-5.31,1.56-5.31,1.56
		s-1.36,0-0.86-1.15s3.13-2.42,3.54-5.1c0.17-1.11,0.49-1.73,0.58-3.04c0.08-1.32-1.15-3.37-1.15-3.37l1.89-1.81
		c0,0-1.56-2.71-2.88-3.45c-1.32-0.74-3.21-1.4-3.21-1.4l-2.31,0.08l-1.56,0.66"/>
	<path class="st134" d="M121.63,70.66c0,0,5.71-3.07,6.7-3.95c0.99-0.88,4.72-4.27,4.72-4.27l3.4-3.29l0.99-1.42
		c0,0,1.43,2.63,1.32,3.73c-0.11,1.1-0.55,4.05-0.99,4.6c-0.44,0.55-0.55,1.53-1.32,1.64c-0.77,0.11-1.66,1.59-1.66,1.59
		s-0.48,1.35,0.51,1.35c0.99,0,3.35-0.97,4.56-1.19c1.21-0.22,5.05-0.22,7.03,1.53c1.98,1.75,4.72,4.27,5.71,6.58
		s1.54,2.3,1.32,4.16s-0.33,2.63-0.88,2.96c-0.55,0.33-1.54,1.1-2.63,1.1s-8.34,0.11-8.34,0.11s1.87,1.42,2.09,2.08
		c0.22,0.66,0.99,2.52,0.66,3.29c-0.33,0.77,0.11,1.64-0.88,2.08c-0.99,0.44-5.27,1.86-5.27,1.86s-10.1,2.85-12.84,3.29
		c-2.74,0.44-7.58,1.32-9.11,0.66c-1.54-0.66-4.83-2.85-4.28-6.03c0.55-3.18,0.44-4.71,2.63-6.79c2.2-2.08,3.86-4.48,5.6-5.59
		c1.21-0.77,3.07-3.51,3.07-3.51L121.63,70.66z"/>
	<path class="st136" d="M33.15,77.24l-0.22,2.74l0.44,0.66l-0.33,1.1l1.1,7.01c0,0,14.16,5.04,16.25,5.81
		c2.09,0.77,4.69,1.34,6.67,1.23c1.98-0.11,3.87-0.47,4.64-1.45c0.77-0.99,1.67-4,1.45-4.55c-0.22-0.55-0.69-2.03-0.69-2.03
		s-2.31-0.33-3.29-0.88c-0.99-0.55-2.31-1.75-2.63-3.07c-0.33-1.32-0.88-3.4-0.88-3.4l-1.65-2.52l-1.43-1.75l0.33-0.6l-0.77-1.48
		l-2.42-3.51c0,0-2.52-0.44-3.4-0.44c-0.88,0-10.1,4.71-10.1,4.71L33.15,77.24z"/>
	<path class="st136" d="M55.44,69.68l3.76-3.27l1.4-1.11l1.56,1.81c0,0,0.08,0.71,0.52,1.37c0.44,0.66,0.99,1.1,0.99,1.1l1.45,1.89
		l-4.53,6.22c0,0-1.07-0.88-1.4-1.21c-0.33-0.33-1.34-2.3-1.34-2.3l-1.1-0.88l-0.99-1.97l-0.44-2.08"/>
	<path class="st136" d="M66.85,62.99l0.12,0.45l1.41,1.63l0.4,1c0,0,3.44,0.64,3.77,0.53c0.33-0.11,3.18-0.08,3.18-0.08
		s2.85-0.58,2.96,0.08c0.11,0.66,0.66,0.33,0.11,0.66s-1.21,0.66-1.21,0.66s0.33,0.55,0,0.88c-0.33,0.33-1.32,0.55-1.32,0.55
		l0.33,1.21l-0.77,0.66l0.11,0.88l-1.32,0.77c0,0-3.09,7.42-3.64,8.3s-2.88,3.41-2.88,3.41l3.55,1.22l4.17-7.67l3.76-6.16
		c0,0,2.03-2.67,1.81-4.32c-0.22-1.64-0.74-3.44-1.51-3.99c-0.77-0.55-2.31-1.32-3.4-1.42c-1.1-0.11-3.07,0-3.07,0L66.85,62.99z"/>
	<path class="st33" d="M32.71,77.57c0,0-2.74-5.15-0.44-15.67s5.1-17.48,10.04-22.58s11.17-8.82,11.17-8.82l4.97-2.19l1.81-0.16
		c0,0-0.99,2.47-1.32,3.95c-0.33,1.48-0.16,4.77,0.16,5.26c0.33,0.49,1.38,2.27,2.47,1.42c0.83-0.64,1.15-3.89,1.15-3.89l0.33-2.08
		c0,0,1.4,4.16,1.4,6.47S64,49.02,64,49.02l-1.76,7.73c0,0-1.98,0.71-2.96,1.21c-0.99,0.49-2.43,2.12-2.43,2.12l-1.36-0.86
		c0,0-0.82,3.78-0.99,4.44C54.34,64.31,55,68.58,55,68.58l-2.63-4.11l-2.8-5.59l-0.33-2.96l-0.27-2.27l-6.53,2.11
		c0,0,1.37,5.1,1.7,6.08s3.62,5.92,3.62,5.92l1.98,2.79c0,0-2.63-0.44-3.79-0.11S41,72.03,41,72.03l-5.43,2.96L32.71,77.57z"/>
	<path class="st9" d="M144.26,91.87c0,0,2.61-0.42,3.69,3.32c1.07,3.74,1.08,3.87,1.54,4.49c0.45,0.61,0.88,0.37,1.49,0.32
		c1.69-0.14,1.66-1.34,1.66-1.34l-3.58-15.49c0,0-2.55,0.77-3.81,1.26c-1.06,0.41-2.95,1.28-2.95,1.28L144.26,91.87z"/>
	<path class="st138" d="M121.6,70.6l2.11,7.05c0,0-7.63,7.02-9.29,9.83c-1.66,2.81-2.73,5.37-1.88,7.95
		c0.85,2.58,3.92,4.32,7.75,3.99c3.82-0.33,11.82-2.05,13.01-2.45c1.19-0.4,8.85-2.7,8.85-2.7s1.92-0.6,2.18-1.13
		c0.26-0.53,1.09-2.65,0-4.42c-1.09-1.77-2.18-2.63-2.18-2.63s6.99,0,8.6-0.38c1.61-0.39,2.38-0.57,2.55-0.97"/>
	<path class="st138" d="M130.38,53.29c-2.68-1.5-9.47,1.97-10.21,6c-0.54,2.95-0.5,5.28-0.5,5.28"/>
	<path class="st139" d="M77.8,88.94c0,0,1.12-0.63,1.61-0.76c0.48-0.12,0.19-0.82,0.62-1.03c0.43-0.2,0.84-0.23,1.52,0.12
		c0.68,0.35,0.77,1.16,0.77,1.16s2.21-1.98,3.57-2.08c1.35-0.1,2.51,0.16,2.51,0.16s0.67-1.32,2.13-1.46
		c1.46-0.14,1.6,1.33,2.26,1.48c0.66,0.15,1.81-0.15,2.68-0.02c0.87,0.13,2.05,1.21,2.05,1.21s1.8,0.75,2.14,2.05l-0.52,2.66
		c0,0-1.33-0.89-4.22-0.81c-2.81,0.08-3.58,0-4.92,0.53c-0.92,0.37,0.1,0.32-2.28,0.41c-2.38,0.09-2.12-0.7-3.7-0.96
		c-1.58-0.25-4.45,0.52-5.21-0.49c-0.77-1.02-0.68,0.29-1.56-0.58C76.36,89.69,78.23,88.86,77.8,88.94z"/>
	<path class="st139" d="M97.8,98.02c0,0-4.05,1.21-5.75,1.96c-1.7,0.75-2.43-0.29-4.45-0.12c-2.02,0.17-3.89,0.35-6.38,0
		c-2.49-0.35-2.62-0.37-4.16-0.37c-1.54,0-1.07-0.33-3.13-1.52c-2.06-1.19-8.05-2.28-10.09-2.75c-2.04-0.48-0.21-1.68,2.75-1.78
		c2.37-0.07,2.83,0.2,4.9-0.06c2.07-0.27,3.36,0.29,3.36,0.29s0.48,0.67,1.85,1.81c1.37,1.13,1.96,3.13,2.26,1.75
		c0.3-1.38-1.5-4.34,0.45-4.16c1.96,0.18,1.61,1.17,3.23,2.55c1.61,1.38,0.04-0.32,2.99-0.6c2.96-0.28,2.67,0.53,3.92,0.64
		c1.25,0.11,1.17-1.55,1.55-1.98c0.37-0.43,2.36-1.47,4.21-0.39c1.85,1.07,3.69,0.17,3.69,0.17L97.8,98.02z"/>
	<path class="st139" d="M97.89,101.09c0,0-0.45-0.53-1.21-0.56c-1.38-0.05-2.53,0.53-1.79,0.81c1.19,0.45,2.39,0.07,3.01,0.04
		C98.5,101.34,98.99,101.52,97.89,101.09z"/>
	<path class="st139" d="M82.32,101.92c-0.35-0.28-2.92-0.95-1.72,0.5C81.8,103.87,83.44,102.81,82.32,101.92z"/>
	<path class="st139" d="M78.82,100.68c-0.35-0.28-2.92-0.95-1.72,0.5C78.3,102.64,79.94,101.58,78.82,100.68z"/>
	<path class="st138" d="M129.54,52.12c0.85-3.08,1.98-6.04,2.61-9.19c0.31-1.56,0.6-3.13,1.08-4.64c0.51-1.61,1.23-3.55,2.43-4.78
		c2.03-2.1,4.79-2.71,7.62-2.07c1.31,0.29,6.01-1.66,5.45-2.23"/>
	<path class="st138" d="M129.51,52.25c2.01-1.28,4.43-0.8,6.48,0.22c1.01,0.5,3,2.99,3.59,3.97"/>
	<path class="st140" d="M139.65,56.52c1.44-2.41,1.76-3.84,2.27-5.76c0.34-1.29,0.53-2.74,1.12-3.95c0.58-1.18,1.49-2.25,2.42-3.17"
		/>
	<path class="st138" d="M142.1,86.09c-3.64-0.05-7.13-1.08-10.8-0.85c-1.68,0.11-3.25,0.66-4.62,1.66
		c-0.52,0.38-1.01,0.81-1.47,1.28c-0.21,0.21-0.47,0.61-0.69,0.74"/>
	<path class="st138" d="M116.61,67.26c0.99-0.68,2.38-1.93,3.31-2.71c0,0,6.67-6.16,7.9-7.48c1.23-1.32,1.89-2.22,1.89-2.22
		l1.81-3.12"/>
	<path class="st138" d="M117.12,72.28c10.03-3.2,15.51-8.52,22.23-16.03"/>
	<path class="st138" d="M117.14,72.45c-0.04,0.49-0.51,0.83-0.98,0.99c-1.42,0.49-2.45-1.66-2.52-2.76
		c-0.05-0.85,0.08-2.14,0.71-2.79c0.24-0.25,2.07-1.3,2.27-0.86"/>
	<path class="st138" d="M117.38,72.11c-0.35,0.06-0.69,0.3-1.09,0.01c-0.49-0.36-0.56-1.48-0.57-2.02
		c-0.02-1.03,0.32-2.07,0.96-2.89"/>
	<path class="st138" d="M115.48,73.51l-0.43,0.19c-0.57,0.32-1.21,0.54-1.83,0.74c-0.96,0.3-2.21,0.83-3.23,0.57
		c-1.15-0.29-2.83-0.64-3.62,0.65"/>
	<path class="st138" d="M106.37,75.54c-0.49-0.71-0.39-0.69-0.3-1.61c0.05-0.44-0.31-0.72-0.32-1.13c-0.01-0.53,0.43-1.03,0.59-1.52
		c0.14-0.42-0.74-1.7-0.21-1.98c0.88-0.45,0.17-1.31,0.75-1.95c1.11-1.21,3.58,1.52,4.66-0.54c0.35-0.66,0.37-2.7,1.37-1.26
		c0.57,0.82,0.33,1.94,1.57,2.15"/>
	<path class="st140" d="M128.65,66.96c0.97,1.58,2.12,3.31,3.24,4.8"/>
	<path class="st140" d="M125.04,41.42L125.04,41.42c2.11,1.07,4.45,2.91,6.41,4.23"/>
	<path class="st140" d="M129.47,52.96c-1.89-1.41-5.31-5.25-6.8-7.07"/>
	<path class="st138" d="M122.4,45.9c-0.49,0.16-1.07-0.26-1.25-0.4c-0.19-0.14-0.37-0.31-0.51-0.49c-0.29-0.36-0.32-0.56-0.32-1
		c-0.01-1.17,0.37-2.27,1.2-3.11c0.4-0.4,0.95-0.88,1.51-1c0.39-0.09,2.48,0.79,2.16,1.57"/>
	<path class="st138" d="M122.62,45.73c-0.51-0.56-0.54-1.89-0.33-2.55c0.42-1.26,1.56-1.89,2.83-1.73"/>
	<path class="st138" d="M118.44,35.53c-0.66-1.2-0.81-2.52-1.36-3.74c-0.28-0.62-0.72-0.72-1.35-0.47
		c-0.75,0.29-1.29,1.07-2.11,0.36c-0.83-0.72-0.38-1.53,0.39-1.98c1.42-0.85,2.87-0.52,4.37-0.08c0.61,0.18,1.32,0.24,1.9,0.48
		c0.58,0.24,0.69,0.6,0.8,1.17c0.27,1.32,0.66,2.71,0.69,4.06c0.04,1.76-0.07,3.44,1.59,4.54"/>
	<path class="st138" d="M114.55,32.09c0.19,0.64,0.68,1.89,1.01,2.47c0.2,0.35,0.84,0.76,1.28,0.71c0,0,0.78-0.11,1-0.33"/>
	<path class="st138" d="M116.21,35.2c0.32,0.53,0.21,1.4-0.29,1.78c-0.73,0.56-1.39-0.1-1.72-0.76c-0.22-0.44-0.47-3.12,0.68-2.83"
		/>
	<path class="st138" d="M115.81,37.24c0.6,0.35,0.3,1.66-0.3,1.83c-0.6,0.17-1.22-0.31-1.59-0.71c-0.55-0.6-1.29-2.11-0.13-2.49"/>
	<path class="st138" d="M115.12,39.39c0.04,0.33,0.16,0.88-0.09,1.15c-0.33,0.35-1.07,0.25-1.36-0.08
		c-0.43-0.49-0.52-1.23-0.54-1.86c-0.01-0.21-0.03-0.61,0.06-0.74"/>
	<path class="st138" d="M120.15,43.92c0.02-0.01-0.51,0.14-0.61,0.14c-0.48-0.01-0.99-0.26-1.39-0.49
		c-0.59-0.33-1.32-0.99-0.96-1.76"/>
	<path class="st138" d="M106.36,75.79c-0.16,0.73-0.98,4.53-1.29,5.31c-0.06,0.15-1.26,0.78-1.7,1.17
		c-0.98,0.87-1.74,1.91-2.22,3.13c-0.89,2.24-1.51,4.61-2.13,6.94c-0.33,1.22-0.64,2.45-0.92,3.68c-0.15,0.67-0.41,1.45-0.38,2.14
		c0.09,1.74,3.22,2.67,4.54,2.95c1.51,0.32,3.1,0.3,4.58-0.19c0.73-0.24,1.29-0.38,1.46-1.11c0.47-1.99,0.85-4.02,1.22-6.03
		c0.4-2.14,0.88-4.35,0.91-6.54c0.02-1.51-0.55-2.99-1.21-4.33c-0.25-0.49-0.58-0.95-0.82-1.44c0,0,1.16-4.44,1.57-6.37"/>
	<path class="st138" d="M118.56,35.76c-0.27,1.24-0.63,2.46-0.9,3.69c-1.88,8.65-3.76,17.3-5.64,25.95"/>
	<path class="st144" d="M119.82,29.63c0.2-0.92,0.4-1.84,0.6-2.75c0.19-0.86-0.01-1.6-0.9-1.97c-2.35-0.96-2.9,2.73-3.21,4.16"/>
	<path class="st138" d="M113.73,40.47c-1.59,7.44-3.31,15.83-4.9,23.27c-0.23,1.06-0.45,2.12-0.68,3.17"/>
	<path class="st138" d="M103.14,86.41L103.14,86.41c0.46-0.88,1.19-1.88,2.15-2.25c2.05-0.8,2.62,1.92,2.94,3.32"/>
	<path class="st138" d="M99.63,98.03L99.63,98.03c2.03,0.92,4.62,1.47,6.82,1.07"/>
	<path class="st138" d="M77.78,99.34c-0.67,0.05-1.41,0.12-2.07-0.08c-0.87-0.26-1.08-0.86-1.73-1.35
		c-0.89-0.68-2.27-0.87-3.32-1.16c-1.47-0.41-2.95-0.75-4.44-1.05c-1.24-0.24-3.38-0.22-4-1.54"/>
	<path class="st138" d="M97.56,98.05c-0.59,0.07-3.81,1.05-4.16,1.23c-0.61,0.32-1.23,0.64-1.9,0.8c-0.92,0.22-1.7-0.03-2.59-0.21
		c-1.44-0.28-2.88,0.16-4.33,0.21c-1.79,0.06-3.56-0.2-5.27-0.71"/>
	<path class="st138" d="M89.87,92.2c-0.85,0.11-1.71,0.28-2.57,0.32c-0.89,0.05-1.5-0.35-2.28-0.66c-1.21-0.48-2.46-0.55-3.73-0.31"
		/>
	<path class="st138" d="M98.83,92.11c-2.31-0.5-4.63-0.62-6.98-0.36"/>
	<path class="st138" d="M81.91,89.14L81.91,89.14c1.13-1.62,3.33-3.44,6.4-2.72"/>
	<path class="st138" d="M88.44,86.52L88.44,86.52c0.53-0.82,1.42-1.5,2.44-1.43c1,0.06,1.01,0.93,1.74,1.31
		c0.41,0.22,0.89,0.15,1.33,0.12c0.97-0.06,1.76,0.09,2.57,0.66"/>
	<path class="st138" d="M97.91,87.96L97.91,87.96c0.75,0.4,1.32,0.99,1.7,1.74"/>
	<path class="st138" d="M85.8,89.94L85.8,89.94c0.12-0.59,0.61-1.05,1.22-1.1"/>
	<path class="st138" d="M89.67,89.52L89.67,89.52c-0.4,0.43-0.19,1.18,0.37,1.35"/>
	<path class="st138" d="M95.06,89.31L95.06,89.31c0.21,0.18,0.32,0.46,0.21,0.73c-0.07,0.17-0.04,0.37,0.13,0.47"/>
	<path class="st138" d="M90.77,94.13L90.77,94.13c-0.3,1.68-0.7,3.32-1.23,4.94"/>
	<path class="st138" d="M95.37,94.81L95.37,94.81c-0.3,1.29-0.72,2.53-1.28,3.73"/>
	<path class="st138" d="M82.98,97.78L82.98,97.78c0.1,0.42,0.2,0.83,0.3,1.25"/>
	<path class="st138" d="M73.67,94.17L73.67,94.17c0.91,0.86,1.81,1.71,2.72,2.57"/>
	<path class="st138" d="M80.47,98.25c-0.24-0.42-0.48-0.83-0.71-1.25"/>
	<path class="st138" d="M69.76,95.13c-0.92-0.46-1.84-0.93-2.76-1.39"/>
	<line class="st138" x1="77.04" y1="100.31" x2="77.04" y2="100.31"/>
	<path class="st138" d="M79.08,101.91c0.13-0.29,0.08-0.63-0.09-0.89c-0.42-0.63-1.41-0.76-2.11-0.71"/>
	<path class="st138" d="M80.8,101.27L80.8,101.27c-0.55,0.32-0.52,1.09-0.08,1.49c0.47,0.43,1.39,0.51,1.84,0.01"/>
	<path class="st138" d="M79.49,88.23c0.01,0,0.24-0.62,0.31-0.7c0.17-0.22,0.41-0.39,0.68-0.45c0.62-0.15,1.23,0.26,1.43,0.84"/>
	<path class="st138" d="M78.14,88.93c-0.01-0.43,0.83-0.76,1.28-0.71"/>
	<path class="st9" d="M71.86,85.55c0,0-0.57,2.58,3.12,3.85c3.69,1.27,2.73,1,3.32,1.49c0.59,0.49,0.76,1.01,0.68,1.61
		c-0.24,1.68-0.79,1.76-0.79,1.76l-14.8-4.39c0,0,0.42-2.51,0.97-3.74c0.47-1.04,1.21-2.36,1.21-2.36L71.86,85.55z"/>
	<path class="st9" d="M33.8,88.5c0,0-2.25,0.64-2.12,4.54c0.12,3.89,0.15,4.02-0.1,4.74c-0.25,0.72-0.73,0.62-1.32,0.76
		c-1.66,0.38-1.99-0.77-1.99-0.77l-1.31-15.85c0,0,2.66-0.04,4.01,0.04c1.14,0.07,2.01,0.13,2.01,0.13L33.8,88.5z"/>
	<path class="st139" d="M65.29,70.88l-4.73,6.95c0,0,1.27,1.02,1.8,2.57c0.53,1.56,0.48,2.59,1.23,3.33c0.75,0.74,1.63,1.4,1.6,1.73
		c-0.03,0.32,0.5,0.21,0.5,0.21s2.94-1.22,4.49-3.49c1.55-2.27,3.62-7.03,3.62-7.03s2-2.95,0.96-2.04
		c-0.33,0.29-1.89,0.49-1.89,0.49s0.22,1.19,0.08,0.16c-0.16-1.19-0.06-1.99-0.06-1.99s-0.52,0.12-0.16-0.74
		c0.36-0.86,0.82-0.95,0.82-0.95l0.14-1.51c0,0-3.57,2.11-5.12,2.33C67.01,71.13,66.75,71.42,65.29,70.88z"/>
	<path class="st146" d="M73.16,54.83c0.01,3.13,1.04,4.91,3.96,5.72c-0.28-0.08-0.29-2-0.52-2.39
		C75.77,56.79,74.44,55.76,73.16,54.83L73.16,54.83z"/>
	<path class="st146" d="M78.24,56.39c0-0.1-1.03-1.12-0.38-2.46c0.65-1.34,2.2-4.18,2.2-4.18s0.38,1.62,0.49,2.9
		c0.12,1.28-0.35,2.4-0.96,2.82C78.97,55.89,78.24,56.39,78.24,56.39z"/>
	<path class="st146" d="M77.97,52.23c0,0-1.01,0.74-1.77-0.58c-0.75-1.33-0.49-3.91-0.47-3.98c0.02-0.07,0.68,1.02,1.54,1.97
		c0.86,0.94,0.84,2.36,0.84,2.36L77.97,52.23z"/>
	<path class="st146" d="M84.08,51.61c0.03-0.05-1.75-1.9-1.61-3.83c0.15-1.93,1.06-3.83,1.06-3.83s1.58,1.71,1.78,3.49
		C85.51,49.21,84.08,51.61,84.08,51.61z"/>
	<path class="st146" d="M89.22,47.64c0,0-1.21-1.01-1.04-3.21c0.17-2.2,1.69-4.46,1.69-4.46s1.17,3.12,0.75,4.89
		C90.2,46.63,89.22,47.64,89.22,47.64z"/>
	<path class="st146" d="M85.57,52.44c0,0,2.24-2.24,3.85-1.82c1.61,0.42,2.15,0.99,2.15,0.99s-0.49,0.51-2.26,1.23
		C87.53,53.56,85.7,53.59,85.57,52.44z"/>
	<path class="st146" d="M86.37,59.42c0.15-0.14,0.76-0.96,2.9-0.99c2.14-0.03,3.36-0.1,3.36-0.1s-0.35,0.78-1.61,1.65
		c-1.26,0.86-3.15,0.53-3.15,0.53L86.37,59.42z"/>
	<path class="st138" d="M32.87,77.48c-3.39-6.36-0.32-19.28,1.43-24.33c4.61-13.32,13.5-19.73,21.74-24l4.5-1.21"/>
	<path class="st138" d="M61.19,44.17c-0.52,1.65-0.06,4.38-1.54,7.83c-1.29,3-4.53,6.85-5.08,10.47c-0.38,2.51,0.03,4.43,0.42,6.93"
		/>
	<path class="st140" d="M49.52,40.88c-0.08,2.88,0.89,10.22,1,12.3"/>
	<path class="st140" d="M63.47,69.54c-1.17-0.79-1.67-1.62-0.98-2.91c0.49-0.92,1.3-1.81,2.22-2.31c0.9-0.49,2.5-0.99,3.18-0.03
		c0.34,0.47,0.55,1.13,0.81,1.66"/>
	<path class="st140" d="M64.92,71.54c-0.9,1.66-1.81,2.47-3.21,4.68l-1.15,1.56"/>
	<path class="st138" d="M74.88,73.02c-0.59,1.42-3.57,7.77-4.45,9.02c-1,1.42-2.82,3.1-4.42,3.91"/>
	<path class="st138" d="M77.19,51.34c0.13,2.57,1.41,5.29,0.35,7.76c-0.57,1.46-1.98,5.88-2.41,7.39"/>
	<path class="st138" d="M89.7,45.18c-2.47,7.4-9.82,12.16-12.78,18.82"/>
	<path class="st138" d="M83.95,50.99c-0.12,1.76-0.63,3.62-1.49,5.12"/>
	<path class="st138" d="M67.57,82.23c-0.79-0.84-1.38-1.82-1.74-2.92"/>
	<path class="st138" d="M70.51,79.33c-1.1-0.46-2-1.28-2.48-2.39"/>
	<path class="st138" d="M33.66,81.1c-0.75,0.19-0.89-3.22-0.57-3.72c1-1.59,12.63-9.28,16.8-6.36"/>
	<path class="st138" d="M33.44,81.05c1.67,0.51,1.83,0.39,6.41,1.18c6.17,1.07,8.65,1.18,10.75,4.9"/>
	<path class="st138" d="M62.41,87.81c1.04,1.15,0.78,3.14,0.42,4.5c-0.4,1.51-1.24,2.38-2.71,2.96c-3.88,1.52-8.44-0.44-12.13-1.7
		c-4.55-1.55-9.13-3.03-13.71-4.5c-0.53-0.17-1.63-8.2-1.1-8.03"/>
	<path class="st138" d="M71.59,85.59c1.26-2.36,9.36-15.89,9.36-15.89s3.18-8-8.01-7.34l-6.29,0.77"/>
	<path class="st140" d="M72.99,71.99c-0.42,0.31-0.86,1.42-0.1,1.54c0.37,0.06,0.79-0.12,1.13-0.24c0.37-0.14,2.26-0.93,1.77-1.96"
		/>
	<path class="st138" d="M55.21,69.86c0,0,1.26-1.03,2.91-2.46c1.65-1.42,2.63-1.86,2.63-1.86"/>
	<line class="st138" x1="56.77" y1="60.24" x2="55.65" y2="59.37"/>
	<path class="st9" d="M70.31,11.87c-4.86-5.38-10.76-3.45-15.08,1.01c-3.25,3.35-3.04,16.08,2.73,19.37
		c-0.82-1.32,1.7-9.26,0.73-13.95c-1.06-5.12,7.8-5.96,9.64-4.14c1.48-0.66,0.73-1.95,2.21-2.6L70.31,11.87z"/>
	<line class="st140" x1="139.19" y1="31.43" x2="138.43" y2="29.18"/>
	<line class="st138" x1="148.82" y1="29.21" x2="143.6" y2="13.73"/>
	<path class="st138" d="M144.42,25.13c0,0-1.66,3.9-6.74,3.91c-3.11,0.01-4.65-1.98-5.43-3.33c-0.76-1.31-4.01-7.02-4.01-7.02
		s-1.37-0.28-1.89-0.49c-1.19-0.48,0.49-1.87,1.75-3.85c1.03-1.62,1.79-4.7,1.79-4.7s1.77,1.31,4.45,2.05c3.59,1,7-0.63,7-0.63
		l0.94,2.77"/>
	<path class="st9" d="M133.96,15.59c0.13,0.43,0.58,0.67,1.01,0.54c0.43-0.13,0.67-0.58,0.54-1.01c-0.13-0.43-0.58-0.67-1.01-0.54
		C134.07,14.71,133.83,15.17,133.96,15.59"/>
	<path class="st140" d="M134.04,21.71c0,0-1.15,1.6-2.87,1.69"/>
	<path class="st138" d="M88.52,59.89c-1.72-0.15-5.6-3.37-10.77,2.57c-1.13,1.29-1.57,4.75-1.22,3.81"/>
	<path class="st140" d="M63.67,69.8c-0.36-1.12,1.15-3.02,2.09-3.56c0.7-0.4,2.26-0.36,3.02-0.22"/>
	<path class="st139" d="M99.25,101.64c0,0.31-0.39,0.55-0.86,0.55c-0.48,0-0.86-0.25-0.86-0.55c0-0.31,0.39-0.55,0.86-0.55
		C98.86,101.09,99.25,101.34,99.25,101.64z"/>
	<path class="st138" d="M98.05,101.23c0.32-0.08,0.75-0.19,1.04,0.03c0.19,0.15,0.29,0.44,0.23,0.67c-0.06,0.24-0.28,0.39-0.52,0.42
		c-0.35,0.05-0.56-0.16-0.77-0.42"/>
	<path class="st138" d="M97.53,101.16c0.4,0.21-0.95,0.45-0.95,0.45c-0.17,0.01-0.35,0.01-0.52-0.01c-0.29-0.02-1.89-0.24-1.16-0.77
		c0.32-0.24,0.94-0.18,1.32-0.15c0.52,0.03,0.99,0.17,1.46,0.36"/>
	<path class="st138" d="M123.87,77.54c0,0,4.29-3.17,5.89-4.23c2.22-1.48,4.98-2.84,4.98-2.84"/>
	<path class="st138" d="M148.82,29.37c3.97-0.3,7.44,5.25,9.26,8.08c5.75,8.92,5.78,20.42,5.56,30.67
		c-0.14,6.3,0.2,17.97-8.81,17.77c-0.25-0.01-1.55,0.06-1.62-0.34c-0.1-0.54,0.83-2.03,0.89-2.75c0.2-2.25-0.72-4.34-1.93-6.18
		c-2.4-3.66-6.94-7.89-11.69-7.39c-0.83,0.09-5.63,2.06-5.81,1.15c-0.26-1.28,1.13-2.27,1.96-2.9c1.09-0.83,1.45-2.56,1.76-3.83
		c0.4-1.67,0.45-3.99-0.78-5.35"/>
	<path class="st0" d="M64.79,85.39l0.28-0.01l1.07,0.86c1.98,1.64,0.39,2.15-0.29,2.04c-0.86-0.14-4.88-0.54-6.99-1.31
		c-3.33-1.21-2.06-5.81-4.41-8.13l-0.36-0.44c-0.49-0.53-1.13-1.31-1.25-1.51c-0.72-1.24,1.16-1.8,2.04-2.28
		c0.94-0.51,2.24-1.36,3.03-0.28c0.18,0.24,1.39,2.16,1.56,2.42c0,0,0.42,0.63,0.92,0.88l1.08,1.11l0.84,1.08l0.61,1.68l0.34,1.21
		l0.57,1.01l0.87,0.81L64.79,85.39z"/>
	<path class="st138" d="M57.99,81.46c1.26,0.61,2.54,1.31,3.54,2.29c0.48,0.47,2.61,3.16,3.3,1.58c0.29-0.65-0.69-1.2-1.04-1.62
		c-0.96-1.12-0.85-2.65-1.54-3.89c-0.49-0.87-1.25-1.61-1.98-2.28"/>
	<path class="st138" d="M54.26,78.4c0.52-0.68,3.5-2.3,4.53-2.51"/>
	<polygon class="st0" points="42.43,55.76 48.96,53.65 49.56,58.22 50.46,60.96 52.77,65.16 54.36,68.33 55.76,71.32 56.85,73.77 
		54.49,74.8 52.91,75.54 51.27,72.7 47.11,67 45.44,64.43 43.42,59.59 	"/>
	<path class="st138" d="M50.54,53.27c-4.14,1.45-8.28,1.7-11.33,4.84c-0.78-1.56-1.52-9.34,0.32-13.17"/>
	<path class="st138" d="M52.86,75.4c-1.66-3.01-3.99-5.71-5.88-8.58c-2.21-3.36-3.98-6.99-4.44-11.03"/>
	<path class="st138" d="M48.96,53.87c0.41,1.6,0.47,4.63,1.1,6.16c1.1,2.69,4.4,7.89,5.15,9.83c0.47,1.21,0.91,2.79,1.75,3.82"/>
	<path class="st138" d="M60.39,77.62c-0.49-0.25-0.92-0.88-0.92-0.88c-0.17-0.25-1.38-2.17-1.56-2.42
		c-0.79-1.07-2.09-0.23-3.03,0.28c-0.88,0.48-2.75,1.04-2.04,2.28c0.12,0.21,0.75,0.98,1.25,1.51l0.36,0.44
		c2.35,2.32,1.08,6.92,4.41,8.13c2.11,0.77,6.13,1.17,6.99,1.31c0.68,0.11,2.26-0.39,0.29-2.04l-1.07-0.86l-0.28,0.01"/>
	<path class="st0" d="M61.21,26.72c0,0,1.4,0.12,3.22-0.86l4.91-3.75l5.41-1.07l6.06,9.09l0.03,1.26l-1.46,2.75l-0.97,0.74
		l-1.49-0.26l-0.94-0.42l-3.56,1.75l-3.17,1.36l-2.53,0.06l-2.3-1.68l-1.39-2.59l-0.44,1.36l-0.16,1.56l-0.18,1.56l-0.38,0.98
		l-0.74,0.48l-0.82-0.12l-0.66-0.54l-0.66-1.74l-0.12-1.42l-0.04-2.7l0.52-1.94l0.86-2.22L61.21,26.72z"/>
	<path class="st138" d="M62.93,33.27c-0.64,1.38-0.44,3.67-0.62,4.46c-0.09,0.39-0.71,1.85-2.21,1.04
		c-1.49-0.81-2.53-7.62,1.64-12.46"/>
	<g id="lady_head_1_">
		<path class="st138" d="M76.54,16.56c4.16,0.03,7.29,3.68,6.52,6.13c-0.73,2.31-1.15,9.2-4.37,12.03
			c-0.66,0.58-2.71-0.52-2.71-0.52s-3.71,1.88-4.72,2.33c-1,0.45-3.68,1.67-5.64,0.17c-1.48-1.13-2.48-3.26-2.48-3.26l-0.67-1.89"/>
	</g>
	<g>
		<path class="st9" d="M85.64,22.36c-0.48-5.17-4.68-10.15-10.37-11.18c-4.01-0.72-8.46,1.24-12.21,3.7
			c-0.2,0.25-0.41,0.51-0.63,0.79c-4.28,5.59-1.37,11.29-1.37,11.29s2.05,0.35,3.45-0.92c5.21-4.73,8.13-4.28,8.13-4.28
			s1.98,4.1,4.61,6.52c3.25,2.99,4.8,3.32,4.98,3.41C82.59,31.28,86.1,27.26,85.64,22.36z"/>
		<path class="st147" d="M82.07,31.57c0.06-0.02,0.07-0.02,0.04-0.04C82.09,31.55,82.07,31.57,82.07,31.57z"/>
	</g>
	<path class="st140" d="M68.3,24.51c0,0-0.05-2.98-2.35-2.49c-2.3,0.49-2.13,2.39-1.74,3.3c0.39,0.91,1.31,1.19,1.31,1.19"/>
	<path class="st9" d="M73.67,28.68c-0.4,0.31-0.48,0.87-0.16,1.25c0.31,0.38,0.88,0.43,1.28,0.12c0.4-0.31,0.47-0.87,0.16-1.25
		C74.65,28.42,74.07,28.37,73.67,28.68z"/>
	<path class="st140" d="M68.82,36.19c0,0-1.38-1.03-0.96-2.69"/>
	<polygon class="st0" points="73.6,68.79 73.78,69.92 73.2,70.37 72.69,71.17 72.89,71.77 73.42,72.05 74.36,71.81 75.38,71.39 
		76.14,70.92 76.52,70.41 76.47,69.77 77.05,69.43 77.61,69.08 77.52,68.23 75.4,68.5 74.7,68.44 	"/>
	<path class="st138" d="M76.4,69.77c0.88,0.93-1.63,1.88-2.06,2c-0.34,0.1-0.7,0.23-1.06,0.21c-1.18-0.09-0.3-1.89,0.61-1.92"/>
	<path class="st138" d="M77.56,68.36c0.27,0.91-0.35,1.09-1.1,1.21c-0.29,0.05-0.58,0.09-0.87,0.14c-0.29,0.05-0.58,0.09-0.87,0.14
		c-0.12,0.02-0.23,0.04-0.35,0.05c-0.49,0.21-0.73-0.1-0.72-0.93"/>
	<path class="st140" d="M68.63,65.95c2.58,0.73,5.64,0.77,8.26,0.46c0.25-0.03,2.74-0.15,1.72,1.12c-0.75,0.93-2.89,0.81-3.91,0.9
		c-2.1,0.19-9.56,5.73-11.03,1.37"/>
	<path class="st140" d="M56.97,60.54c0,0,0.25-3.21,5.3-3.43l0.77,0.55l1.04,1.29l1.35,1.87l1.44,2.91c0,0-2.82-0.03-4.7,3.38
		l-2.89-3.11l-1.1-1.16L56.97,60.54z"/>
	<path class="st138" d="M62.19,67.13c-1.76-2-4.26-4.23-5.28-6.74"/>
	<path class="st138" d="M62.28,57.03c1.32,0.64,3.99,5.21,4.61,6.62"/>
	<path class="st138" d="M63.5,34.22c1.81,3.95,0.76,13.42,0.18,15.86c-0.99,4.16-0.55,3.73-1.32,6.79c0.19-0.06-1.51,0.38-1.32,0.33
		c-2.04,0.39-4.02,1.99-4.14,3.07"/>
	<path class="st140" d="M142.89,18.11c0,0,2.57-1.39,2.19-3.13c-0.38-1.74-1.83-1.6-2.52-1.3c-0.69,0.3-0.9,1-0.9,1"/>
	<path class="st9" d="M145.5,19.4c0,0,3.63-1.42,3.06-8.02c-0.39-4.5,0.54-6.75-7.56-9.95c-8.17-3.23-15.23-0.74-14.66,5.01
		c0.25,2.44,3.05,3.21,3.05,3.21l0.83,0.16l1.87,1.15c0,0,4.07,2.33,9.24,0.11l0.89,2.57c0,0,2.4-0.62,2.74,1.01
		c0,0,0.62,2.01-1.54,3.12L145.5,19.4z"/>
</g>
</svg>
