<?xml version="1.0" encoding="utf-8"?>
<!-- Generator: Adobe Illustrator 27.6.1, SVG Export Plug-In . SVG Version: 6.00 Build 0)  -->
<svg version="1.1" id="Layer_1" xmlns="http://www.w3.org/2000/svg" xmlns:xlink="http://www.w3.org/1999/xlink" x="0px" y="0px"
	 viewBox="0 0 132 135" style="enable-background:new 0 0 132 135;" xml:space="preserve">
<style type="text/css">
	.st0{fill:#FFFFFF;}
	.st1{fill-rule:evenodd;clip-rule:evenodd;fill:#85C1B7;}
	.st2{fill-rule:evenodd;clip-rule:evenodd;fill:#29255C;}
	.st3{fill-rule:evenodd;clip-rule:evenodd;fill:#FEF1EE;stroke:#29255C;stroke-width:0.5305;stroke-miterlimit:10;}
	.st4{fill-rule:evenodd;clip-rule:evenodd;fill:#FDE1DD;stroke:#29255C;stroke-width:0.5305;stroke-miterlimit:10;}
	.st5{fill-rule:evenodd;clip-rule:evenodd;fill:#F8ACA8;stroke:#29255C;stroke-width:0.5305;stroke-miterlimit:10;}
	.st6{fill-rule:evenodd;clip-rule:evenodd;fill:#FAC6C1;stroke:#29255C;stroke-width:0.5305;stroke-miterlimit:10;}
	.st7{fill-rule:evenodd;clip-rule:evenodd;fill:#EE6F78;stroke:#29255C;stroke-width:0.5305;stroke-miterlimit:10;}
	.st8{fill-rule:evenodd;clip-rule:evenodd;fill:#F59291;stroke:#29255C;stroke-width:0.5305;stroke-miterlimit:10;}
	.st9{fill:#29255C;}
	.st10{fill-rule:evenodd;clip-rule:evenodd;fill:#ECD9E6;}
	.st11{fill:#B4E2EA;}
	.st12{fill:none;stroke:#29255C;stroke-width:0.4268;stroke-miterlimit:10;}
	.st13{fill:#EECDCA;stroke:#29255C;stroke-width:0.4268;stroke-linecap:round;stroke-linejoin:round;stroke-miterlimit:10;}
	.st14{fill:#FFFFFF;stroke:#29255C;stroke-width:0.4268;stroke-linecap:round;stroke-linejoin:round;stroke-miterlimit:10;}
	.st15{fill:none;stroke:#29255C;stroke-width:0.3415;stroke-linecap:round;stroke-linejoin:round;stroke-miterlimit:10;}
	.st16{fill:none;stroke:#29255C;stroke-width:0.4952;stroke-linecap:round;stroke-linejoin:round;stroke-miterlimit:10;}
	.st17{fill:#FDCA95;stroke:#29255C;stroke-width:0.4268;stroke-linecap:round;stroke-linejoin:round;stroke-miterlimit:10;}
	.st18{fill:#FFFFFF;stroke:#29255C;stroke-width:0.4268;stroke-miterlimit:10;}
	.st19{fill:none;stroke:#29255C;stroke-width:0.495;stroke-linecap:round;stroke-linejoin:round;stroke-miterlimit:10;}
	.st20{fill:none;stroke:#29255C;stroke-width:0.4168;stroke-linecap:round;stroke-linejoin:round;stroke-miterlimit:10;}
	.st21{fill:none;stroke:#29255C;stroke-width:0.417;stroke-linecap:round;stroke-linejoin:round;stroke-miterlimit:10;}
	.st22{fill:#FFFFFF;stroke:#29255C;stroke-width:0.4241;stroke-miterlimit:10;}
	.st23{fill:none;stroke:#29255C;stroke-width:0.4241;stroke-linecap:round;stroke-linejoin:round;stroke-miterlimit:10;}
	.st24{fill:#B4E2EA;stroke:#29255C;stroke-width:0.4268;stroke-linecap:round;stroke-linejoin:round;stroke-miterlimit:10;}
	.st25{fill:none;stroke:#29255C;stroke-width:0.4268;stroke-linecap:round;stroke-linejoin:round;stroke-miterlimit:10;}
	.st26{fill:none;stroke:#29255C;stroke-width:0.4497;stroke-miterlimit:10;}
	.st27{fill:none;stroke:#29255C;stroke-width:0.442;stroke-linecap:round;stroke-linejoin:round;stroke-miterlimit:10;}
	.st28{fill:none;stroke:#29255C;stroke-width:0.6024;stroke-linecap:round;stroke-linejoin:round;stroke-miterlimit:10;}
	.st29{fill:#FCDCCB;}
	.st30{fill:#FFFFFF;stroke:#29255C;stroke-width:0.6024;stroke-linecap:round;stroke-linejoin:round;stroke-miterlimit:10;}
	.st31{fill:#FFFFFF;stroke:#28255C;stroke-width:0.6024;stroke-linejoin:round;stroke-miterlimit:10;}
	.st32{fill:#85C1B7;stroke:#29255C;stroke-width:0.4506;stroke-miterlimit:10;}
	.st33{fill:#ECD9E6;}
	.st34{fill:#85C1B7;stroke:#29255C;stroke-width:0.6024;stroke-linecap:round;stroke-linejoin:round;stroke-miterlimit:10;}
	.st35{fill:#C6D0D7;}
	.st36{fill:#97ADB9;}
	.st37{fill:#E8D3D1;}
	.st38{fill:#E0C0BE;}
	.st39{fill:#FEEDEB;}
	.st40{fill:#829EAD;stroke:#29255C;stroke-width:0.4269;stroke-linecap:round;stroke-linejoin:round;stroke-miterlimit:10;}
	.st41{fill:#F4C9C4;stroke:#29255C;stroke-width:0.4269;stroke-linecap:round;stroke-linejoin:round;stroke-miterlimit:10;}
	.st42{fill:#FFFFFF;stroke:#29255C;stroke-width:0.3977;stroke-linecap:round;stroke-linejoin:round;stroke-miterlimit:10;}
	.st43{fill:#D9D7D7;}
	.st44{fill:#9F433D;}
	.st45{fill:#FFFFFF;stroke:#FFFFFF;stroke-width:0.502;stroke-miterlimit:10;}
	.st46{fill:#E3E3ED;}
	.st47{fill:#4A4370;stroke:#29255C;stroke-width:0.4269;stroke-miterlimit:10;}
	.st48{fill:#F2F2F9;}
	.st49{fill:#85C1B7;stroke:#29255C;stroke-width:0.4269;stroke-linecap:round;stroke-linejoin:round;stroke-miterlimit:10;}
	.st50{fill:#FFFFFF;stroke:#29255C;stroke-width:0.4269;stroke-linecap:round;stroke-linejoin:round;stroke-miterlimit:10;}
	.st51{fill:none;stroke:#29255C;stroke-width:0.5369;stroke-linecap:round;stroke-linejoin:round;stroke-miterlimit:10;}
	.st52{fill:none;stroke:#29255C;stroke-width:0.4269;stroke-linecap:round;stroke-linejoin:round;stroke-miterlimit:10;}
	.st53{fill:#FFFFFF;stroke:#28255C;stroke-width:0.3977;stroke-linecap:round;stroke-linejoin:round;stroke-miterlimit:10;}
	.st54{fill:#B55243;}
	.st55{fill:none;stroke:#29255C;stroke-width:0.4973;stroke-linecap:round;stroke-linejoin:round;stroke-miterlimit:10;}
	.st56{fill:none;stroke:#29255C;stroke-width:0.4055;stroke-linecap:round;stroke-linejoin:round;stroke-miterlimit:10;}
	.st57{fill-rule:evenodd;clip-rule:evenodd;fill:#F58220;stroke:#F58220;stroke-width:0.0101;stroke-miterlimit:2.6131;}
	.st58{fill:none;stroke:#29255C;stroke-width:0.5796;stroke-linecap:round;stroke-linejoin:round;stroke-miterlimit:10;}
	.st59{fill:#FFFFFF;stroke:#29255C;stroke-width:0.5796;stroke-linecap:round;stroke-linejoin:round;stroke-miterlimit:10;}
	
		.st60{fill-rule:evenodd;clip-rule:evenodd;fill:none;stroke:#29255C;stroke-width:0.648;stroke-linecap:round;stroke-miterlimit:10;}
	
		.st61{fill-rule:evenodd;clip-rule:evenodd;fill:#FFFFFF;stroke:#29255C;stroke-width:0.4947;stroke-linecap:round;stroke-linejoin:round;stroke-miterlimit:10;}
	
		.st62{fill-rule:evenodd;clip-rule:evenodd;fill:#829EAD;stroke:#29255C;stroke-width:0.5796;stroke-linecap:round;stroke-linejoin:round;stroke-miterlimit:10;}
	.st63{fill:none;stroke:#29255C;stroke-width:0.5796;stroke-linecap:round;stroke-miterlimit:10;}
	.st64{fill-rule:evenodd;clip-rule:evenodd;fill:#858485;stroke:#29255C;stroke-width:0.5796;stroke-miterlimit:10;}
	
		.st65{fill-rule:evenodd;clip-rule:evenodd;fill:none;stroke:#29255C;stroke-width:0.5796;stroke-linecap:round;stroke-miterlimit:10;}
	
		.st66{fill-rule:evenodd;clip-rule:evenodd;fill:#DFB7AE;stroke:#29255C;stroke-width:0.5796;stroke-linecap:round;stroke-linejoin:round;stroke-miterlimit:10;}
	
		.st67{fill-rule:evenodd;clip-rule:evenodd;fill:none;stroke:#29255C;stroke-width:0.5796;stroke-linecap:round;stroke-linejoin:round;stroke-miterlimit:10;}
	
		.st68{fill-rule:evenodd;clip-rule:evenodd;fill:#85C1B7;stroke:#29255C;stroke-width:0.5796;stroke-linecap:round;stroke-linejoin:round;stroke-miterlimit:10;}
	
		.st69{fill-rule:evenodd;clip-rule:evenodd;fill:#85C1B7;stroke:#29255C;stroke-width:0.5184;stroke-linecap:round;stroke-linejoin:round;stroke-miterlimit:10;}
	
		.st70{fill-rule:evenodd;clip-rule:evenodd;fill:#FFFFFF;stroke:#29255C;stroke-width:0.5796;stroke-linecap:round;stroke-miterlimit:10;}
	.st71{fill:#FBD8AE;}
	.st72{fill:#FDC443;}
	.st73{fill:#FDE6CB;}
	.st74{fill:#FFD37B;}
	.st75{fill-rule:evenodd;clip-rule:evenodd;fill:#FFFFFF;stroke:#29255C;stroke-width:0.3863;stroke-miterlimit:10;}
	
		.st76{fill-rule:evenodd;clip-rule:evenodd;fill:#FFFFFF;stroke:#29255C;stroke-width:0.3863;stroke-linecap:round;stroke-linejoin:round;stroke-miterlimit:10;}
	.st77{fill-rule:evenodd;clip-rule:evenodd;fill:#4A4370;}
	.st78{fill-rule:evenodd;clip-rule:evenodd;fill:#655D83;}
	
		.st79{fill-rule:evenodd;clip-rule:evenodd;fill:#8CA5B3;stroke:#29255C;stroke-width:0.3863;stroke-linecap:round;stroke-linejoin:round;stroke-miterlimit:10;}
	
		.st80{fill-rule:evenodd;clip-rule:evenodd;fill:#8BD2D2;stroke:#29255C;stroke-width:0.3863;stroke-linecap:round;stroke-linejoin:round;stroke-miterlimit:10;}
	
		.st81{fill-rule:evenodd;clip-rule:evenodd;fill:#ECD9E6;stroke:#29255C;stroke-width:0.3997;stroke-linecap:round;stroke-linejoin:round;stroke-miterlimit:10;}
	.st82{fill-rule:evenodd;clip-rule:evenodd;fill:#29255C;stroke:#29255C;stroke-width:0.309;stroke-miterlimit:10;}
	.st83{fill-rule:evenodd;clip-rule:evenodd;fill:#4A4370;stroke:#29255C;stroke-width:0.309;stroke-miterlimit:10;}
	.st84{fill-rule:evenodd;clip-rule:evenodd;fill:#8F8FA1;}
	.st85{fill-rule:evenodd;clip-rule:evenodd;fill:#7A798C;}
	.st86{fill-rule:evenodd;clip-rule:evenodd;fill:#FEEFED;}
	.st87{fill-rule:evenodd;clip-rule:evenodd;fill:#EED5D6;}
	.st88{fill:#8CA5B3;stroke:#29255C;stroke-width:0.3863;stroke-linecap:round;stroke-linejoin:round;stroke-miterlimit:10;}
	.st89{fill:#262761;stroke:#29255C;stroke-width:0.3863;stroke-linecap:round;stroke-linejoin:round;stroke-miterlimit:10;}
	.st90{fill:#1F0F09;}
	.st91{fill:#FFFFFF;stroke:#29255C;stroke-width:0.3863;stroke-miterlimit:10;}
	.st92{fill:#F15848;}
	.st93{fill:#C7483B;}
	.st94{fill:#FDF5F0;}
	.st95{fill:#EDE6E2;}
	.st96{fill:#A17371;}
	.st97{fill:#896360;}
	.st98{fill:#CBA96F;}
	.st99{fill:#F298A8;}
	.st100{fill:#D4D4CA;}
	.st101{fill:#F8ADB0;}
	.st102{fill:#73C48C;}
	.st103{fill:#E6E5DA;}
	.st104{fill:#D9EDEF;stroke:#29255C;stroke-width:0.3863;stroke-linecap:round;stroke-linejoin:round;stroke-miterlimit:10;}
	.st105{fill:#E7F4F5;stroke:#29255C;stroke-width:0.3863;stroke-linecap:round;stroke-linejoin:round;stroke-miterlimit:10;}
	.st106{fill:#A9D0DF;stroke:#29255C;stroke-width:0.3863;stroke-linecap:round;stroke-linejoin:round;stroke-miterlimit:10;}
	.st107{fill:#A9D0DF;}
	.st108{fill:#E9EFCB;}
	.st109{fill:#FFFFFF;stroke:#29255C;stroke-width:0.3863;stroke-linecap:round;stroke-linejoin:round;stroke-miterlimit:10;}
	.st110{fill:none;stroke:#29255C;stroke-width:0.3863;stroke-linecap:round;stroke-linejoin:round;stroke-miterlimit:10;}
	
		.st111{fill-rule:evenodd;clip-rule:evenodd;fill:none;stroke:#29255C;stroke-width:0.3863;stroke-linecap:round;stroke-linejoin:round;stroke-miterlimit:10;}
	.st112{fill:none;stroke:#29255C;stroke-width:0.3202;stroke-linecap:round;stroke-linejoin:round;stroke-miterlimit:10;}
	.st113{fill:none;stroke:#29255C;stroke-width:0.3863;stroke-linecap:round;stroke-miterlimit:10;}
	.st114{fill:#EDCABF;stroke:#29255C;stroke-width:0.3863;stroke-linecap:round;stroke-linejoin:round;stroke-miterlimit:10;}
	.st115{fill:#FFFFFF;stroke:#29255C;stroke-width:0.4224;stroke-miterlimit:10;}
	.st116{fill:#B0D5A4;}
	.st117{opacity:0.5;}
	.st118{fill:#CEE4C6;}
	.st119{fill:#829EAD;stroke:#29255C;stroke-width:0.4224;stroke-linecap:round;stroke-linejoin:round;stroke-miterlimit:10;}
	.st120{fill:#FFFFFF;stroke:#29255C;stroke-width:0.4224;stroke-linecap:round;stroke-linejoin:round;stroke-miterlimit:10;}
	.st121{fill:#9B8579;}
	.st122{opacity:0.49;}
	.st123{fill:#DFB7AE;stroke:#29255C;stroke-width:0.4224;stroke-linecap:round;stroke-linejoin:round;stroke-miterlimit:10;}
	.st124{fill:#ECD9E6;stroke:#29255C;stroke-width:0.4224;stroke-linecap:round;stroke-linejoin:round;stroke-miterlimit:10;}
	.st125{fill:#FFFFFF;stroke:#262761;stroke-width:0.4224;stroke-linecap:round;stroke-linejoin:round;stroke-miterlimit:10;}
	.st126{fill:#FFFFFF;stroke:#29255C;stroke-width:0.3985;stroke-linecap:round;stroke-linejoin:round;stroke-miterlimit:10;}
	.st127{fill:none;stroke:#29255C;stroke-width:0.4224;stroke-linecap:round;stroke-linejoin:round;stroke-miterlimit:10;}
	.st128{fill:#848585;stroke:#29255C;stroke-width:0.4224;stroke-miterlimit:10;}
	.st129{fill:#829EAD;stroke:#29255C;stroke-width:0.4052;stroke-linecap:round;stroke-linejoin:round;stroke-miterlimit:10;}
	.st130{fill:#85C1B7;stroke:#29255C;stroke-width:0.4224;stroke-linecap:round;stroke-linejoin:round;stroke-miterlimit:10;}
	.st131{fill:#E0D6D2;}
	.st132{fill:#718180;stroke:#29255C;stroke-width:0.4664;stroke-miterlimit:10;}
	.st133{fill:#E6E7E8;}
	.st134{fill:#85C1B7;}
	.st135{fill:#EFF7EF;}
	.st136{fill:#829EAD;}
	.st137{fill:#FFFFFF;stroke:#262761;stroke-width:0.4664;stroke-linecap:round;stroke-linejoin:round;stroke-miterlimit:10;}
	.st138{fill:none;stroke:#29255C;stroke-width:0.4664;stroke-linecap:round;stroke-linejoin:round;stroke-miterlimit:10;}
	.st139{fill:#718180;}
	.st140{fill:#FFFFFF;stroke:#29255C;stroke-width:0.4664;stroke-linecap:round;stroke-linejoin:round;stroke-miterlimit:10;}
	.st141{fill:#FFFFFF;stroke:#262761;stroke-width:0.6581;stroke-linecap:round;stroke-linejoin:round;stroke-miterlimit:10;}
	.st142{fill:#FFFFFF;stroke:#262761;stroke-width:0.3731;stroke-linecap:round;stroke-linejoin:round;stroke-miterlimit:10;}
	.st143{fill:none;stroke:#29255C;stroke-width:0.3731;stroke-linecap:round;stroke-linejoin:round;stroke-miterlimit:10;}
	.st144{fill:#E6E7E8;stroke:#29255C;stroke-width:0.4664;stroke-linecap:round;stroke-linejoin:round;stroke-miterlimit:10;}
	.st145{fill:#4AA4DB;}
	.st146{fill:#B9D532;}
	.st147{fill:#262761;}
</style>
<g>
	<g>
		<path class="st35" d="M131.82,83.09c-0.12,0.16-0.3,0.27-0.49,0.36c-0.75,0.36-1.63,0.41-2.41,0.15
			c-0.61-0.21-1.15-0.59-1.66-0.99c-0.73-0.57-1.42-1.18-2.08-1.83c-0.44-0.44-0.89-0.91-1.47-1.15c-0.44-0.18-0.93-0.22-1.41-0.24
			c-0.27-0.01-0.55-0.02-0.79-0.14c-0.27-0.14-0.43-0.42-0.59-0.68c-0.76-1.27-1.55-2.67-1.35-4.14c0.08-0.61,0.33-1.19,0.63-1.74
			c0.33-0.6,0.74-1.19,1.33-1.55c1.47-0.89,2.44,0.18,3.33,1.19c0.09,0.1,0.19,0.21,0.28,0.31c1.22,1.34,2.42,2.71,3.55,4.15
			c0.62,0.8,1.22,1.61,1.78,2.45c0.51,0.76,0.99,1.54,1.33,2.39c0.01,0.02,0.01,0.03,0.02,0.05C132,82.14,132.11,82.7,131.82,83.09z
			"/>
		<path class="st36" d="M131.82,83.09c-0.12,0.16-0.3,0.27-0.49,0.36c-0.75,0.36-1.63,0.41-2.41,0.15
			c-0.61-0.21-1.15-0.59-1.66-0.99c-0.73-0.57-1.42-1.18-2.08-1.83c-0.44-0.44-0.89-0.91-1.47-1.15c-0.44-0.18-0.93-0.22-1.41-0.24
			c-0.27-0.01-0.55-0.02-0.79-0.14c-0.27-0.14-0.43-0.42-0.59-0.68c-0.76-1.27-1.55-2.67-1.35-4.14c0.08-0.61,0.33-1.19,0.63-1.74
			c0.33-0.6,0.74-1.19,1.33-1.55c1.47-0.89,2.44,0.18,3.33,1.19c-0.34,0.64-0.98,1.17-1.42,1.78c-0.3,0.41-0.51,0.89-0.62,1.39
			c-0.15,0.72-0.06,1.55,0.48,2.05c0.4,0.38,0.98,0.5,1.48,0.74c1.74,0.81,2.56,2.86,4.17,3.91c0.55,0.36,1.24,0.59,1.88,0.43
			c0.57-0.14,0.78-0.51,0.98-0.94C132,82.14,132.11,82.7,131.82,83.09z"/>
	</g>
	<path class="st37" d="M114.77,59.24c-1.27-0.72-2.62-1.01-3.85-1.1c-3.39-0.26-6.84,0.16-10.06,1.24
		c-2.07,0.69-4.08,1.68-5.62,3.22c-0.93,0.94-1.66,2.05-2.46,3.1c-3.55,4.68-8.61,8.21-14.24,9.91c-4.18-0.25-8.19-0.56-12.37-0.81
		c-2.7-0.16-5.52-0.3-8,0.77c-2.48,1.07-4.49,3.76-3.85,6.39c0.39,1.59,1.67,2.85,3.13,3.59c1.46,0.74,3.11,1.03,4.73,1.27
		c7.51,1.1,15.12,1.29,22.71,1.35c2.45,0.02,4.93,0.02,7.3-0.58c3.4-0.85,6.47-2.96,8.49-5.82c2.02-2.86,2.98-6.45,2.66-9.94
		c-0.15-1.64-0.58-3.26-0.49-4.9c0.2-3.7,3.39-7.02,7.09-7.37C111.45,59.43,113.29,59.6,114.77,59.24z"/>
	<path class="st38" d="M91.91,73.95c-0.76-0.86-1.73-1.5-2.79-1.94c-2.29-0.98-4.82-1.16-7.27-1.33c-2.97-0.2-5.95-0.32-8.93-0.14
		c-2.92,0.17-5.83,0.64-8.59,1.63c-0.08,0.03-0.16,0.06-0.24,0.09c-0.94,0.21-1.83,0.56-2.66,1.08c-1.08,0.68-2.02,1.6-2.7,2.68
		c-0.37,0.58-0.71,1.24-0.79,1.93c-0.08,0.71,0.17,1.33,0.63,1.86c0.84,0.97,2.51,3.71,7.42,2.81c21.16-3.85,18.31,0.25,21.59,0.01
		c1.26-0.09,2.31-1.06,3.29-1.86c1.01-0.83,1.95-1.9,2.23-3.21C93.4,76.22,92.78,74.94,91.91,73.95z"/>
	<path class="st39" d="M105.89,58.65c-0.85,1.77-2.98,3.2-5.08,2.77c-14.71-3.05-30.53-0.38-45.14,3.05
		c-8.27,1.94-16.44,4.68-24.99,4.96c-8.55,0.28-18.05-2.35-22.25-8.97c0.22-6.7-2.11-13.39-1.13-20.03c0.23-1.57,0.66-3.15,1.59-4.5
		c0.1-0.15,0.21-0.29,0.32-0.43c1.42-1.78,3.67-2.98,6.02-3.65c2.54-0.72,5.24-0.89,7.91-1.01c9.57-0.45,19.18-0.47,28.75-0.05
		c12.29,0.54,24.93-0.84,37.23-0.44c1.88,0.06,3.82,0.15,5.65,0.51c1.32,0.27,2.59,0.67,3.74,1.32c2.38,1.35,3.96,3.59,5.03,5.91
		c2.16,4.68,2.55,9.84,2.92,14.89C106.61,54.89,106.74,56.88,105.89,58.65z"/>
	<path class="st40" d="M124.3,70.4c-0.27-0.63-0.81-1.1-1.34-1.54c-4.13-3.43-7.77-9.36-12.35-12.16c-0.64-0.39-4.1-2.77-4.74-3.16
		c-2.13-1.3-4.37-2.95-6.8-3.5c-2.12-0.48-3.99-0.26-6.04,0.48c0.02,0.03-0.59,0.23-0.57,0.26c-1.38,0.51-2.05,1.01-3.32,1.75
		C78.63,58.55,69.47,66.6,64.03,77.44c1.95,0.78,3.96,1.56,6.01,1.94c1.25,0.23,2.51,0.32,3.78,0.17c1.11-0.13,2.2-0.44,3.26-0.81
		c3.64-1.26,7.05-3.21,9.99-5.7c1.53-1.29,2.63-3.26,3.88-4.82c0.08-0.1,0.16-0.2,0.24-0.3c1.89-2.31,6.72-5.89,6.82-5.85
		c0.11,0.04,3.49-2.21,4.64,0.92c0.56,1.54,1.23,3.03,1.88,4.53c1.57,3.62,4.13,7.09,7.65,8.89c1.36,0.7,2.78,1.27,4.24,1.7
		c0.53,0.16,1.08,0.3,1.63,0.26c0.49-0.03,0.95-0.2,1.4-0.4c3.28-1.47,5.04-2.58,5.07-6.17C124.52,71.32,124.49,70.84,124.3,70.4z"
		/>
	<path class="st41" d="M60.53,35.67c-0.15,3.83-2.52,6.37-3.12,10.15c-0.39,2.4-0.56,4.82-0.73,7.24l-0.82,11.59
		c-0.02,0.21,0.01,0.42,0.07,0.62c0.04,0.12,0.05,0.25,0.03,0.38c-0.15,0.92-0.31,1.85-0.69,2.7c-0.4,0.91-1.09,1.74-2.02,2.1
		c-0.59,0.23-1.24,0.26-1.87,0.24c-2.5-0.07-4.98-0.79-7.13-2.06c-2.35-1.4-4.41-3.48-7.08-4.04c-0.4-0.08-0.81-0.13-1.17-0.31
		c-0.66-0.32-1.06-1.01-1.37-1.67c-0.81-1.72-1.37-3.53-1.69-5.4c-0.51-3.01-2.82-5.2-4.58-7.63c-0.55-0.76-1.05-1.55-1.53-2.34
		c-2.19-3.59-3.22-11.52-2.94-12.17c1.11-2.61,12.72-8.14,12.96-8.23c2.35-0.94,2.48-2.67,2.94-2.43c0.46,0.24,0.86,0.58,1.32,0.81
		c0.99,0.51,2.16,0.51,3.27,0.46c0.59-0.02,1.28,0.46,1.85,0.61c1.76,0.45,6.85,1.43,7.83,1.51c2.2,0.17,3.88,0.67,4.72,2.71
		c0.28,0.68,0.43,1.41,0.5,2.15C59.33,33.26,60.55,35.06,60.53,35.67z"/>
	<path class="st42" d="M58.82,38.28l0.6-3.31c0,0-1.54,0.14-2.99-0.3c-1.91-0.58-2.37-2.91-2.54-3.78c-0.18-0.87-0.6-4.59-0.6-4.59
		s-1.9-1.29-1.29-1.65c1.98-1.19,3.84-5.66,5.02-7.22c1.25-1.66,5.6-0.87,7.58,1.85c1.98,2.72-0.04,9.98-0.04,9.98
		s0.73,4.15,0.89,6.43c0.19,2.69,1.86,6.47,1.86,6.47"/>
	<path class="st43" d="M8.78,117.38c-0.26,0.1-0.53,0.22-0.78,0.34c-13.1,6.22,1.2,12.95,7.82,13.21
		c9.57,0.38,23.47-0.08,32.99,1.15c6.56,0.85,12.88,2.6,19.53,2.88c11.87,0.5,22.78-3.81,34.53-4.12c5.63-0.15,10.94,1.08,16.4-0.94
		c2.35-0.87,4.42-2.79,4.55-5.1c0.18-3.2-3.17-5.97-6.12-7.16c-3-1.21-6.32-1.59-9.59-1.89c-30.88-2.8-61.91-3.37-92.75,0.27
		C13.12,116.27,10.84,116.57,8.78,117.38z"/>
	<path class="st44" d="M12.82,105.12l-0.6,17.26c0,0,0.2,2.41,1,2.61c0.8,0.2,1.41,0.6,2.01-0.4c0.6-1,5.22-18.27,5.22-18.27
		L12.82,105.12z"/>
	<path class="st44" d="M107.23,105.12l0.6,17.26c0,0-0.2,2.41-1,2.61c-0.8,0.2-1.41,0.6-2.01-0.4c-0.6-1-5.22-18.27-5.22-18.27
		L107.23,105.12z"/>
	<path class="st37" d="M19.26,84.24c3.02,2.5,6.92,3.68,10.75,4.54c7.24,1.61,14.69,2.28,22.1,1.96c3.44-0.14,7.13-0.61,9.66-2.95
		c0.69-0.64,1.29-1.45,1.43-2.38c0.29-1.91-1.34-3.55-2.96-4.59c-5.14-3.32-11.42-4.24-17.48-5.09c-6.89-0.96-13.78-1.92-20.66-2.88
		c-2.62-0.36-6.5-0.77-7.07,2.59C14.48,78.67,16.91,82.3,19.26,84.24z"/>
	<path class="st39" d="M119.47,66.47c0.57,6.71,0.73,13.59,0.52,20.63c-0.33,11.09-9.43,19.91-20.53,19.93l-78.87,0.09
		C9.22,107.13,0,97.93,0,86.57V67.25c0-5.05,4.09-9.14,9.15-9.14c5.05,0,9.15,4.09,9.15,9.14v8.98c0,5.05,4.1,9.15,9.16,9.14
		l63.28-0.1c4.98-0.01,9.04-4,9.13-8.98l0.16-9.2c0.09-4.98,4.16-8.98,9.15-8.98h1.18C115.1,58.11,119.06,61.74,119.47,66.47z"/>
	<path class="st38" d="M118.61,75.5c-0.05-1.68-0.15-3.36-0.32-5.03c-0.14-1.47-0.28-2.96-0.65-4.39c-0.34-1.31-0.89-2.58-1.82-3.58
		c-0.85-0.92-1.98-1.55-3.18-1.89c-1.22-0.35-2.51-0.43-3.77-0.29c-1.34,0.15-2.7,0.53-3.84,1.27c-2.47,1.6-3.05,4.59-3.01,7.34
		c0.02,1.65,0.21,3.31,0.11,4.96c-0.08,1.31-0.34,2.62-0.75,3.87c-0.82,2.5-2.27,4.78-4.2,6.57c-0.47,0.44-0.96,0.86-1.45,1.26
		c-0.22,0.18,0.06,0.54,0.3,0.39c1.1-0.69,2.03-1.59,2.86-2.58c0.83-0.99,1.55-2.07,2.13-3.22c1.21-2.4,1.78-5.03,1.73-7.71
		c-0.06-2.86-0.64-6.03,0.87-8.64c1.35-2.33,4.28-3.17,6.83-3.06c1.23,0.05,2.46,0.35,3.53,0.95c1.13,0.63,1.97,1.59,2.53,2.75
		c0.58,1.22,0.84,2.58,1.02,3.91c0.22,1.58,0.36,3.18,0.46,4.77c0.21,3.27,0.22,6.55-0.01,9.82c-0.21,3.08-0.53,6.23-1.47,9.18
		c-0.83,2.59-2.23,4.9-4.15,6.82c-1.82,1.83-3.99,3.27-6.31,4.38c-0.57,0.27-1.14,0.52-1.73,0.75c-0.16,0.06-0.27,0.21-0.22,0.39
		c0.04,0.15,0.23,0.28,0.39,0.22c2.47-0.97,4.8-2.3,6.84-4.01c2.01-1.69,3.71-3.78,4.82-6.17c1.31-2.82,1.78-5.92,2.09-8.99
		C118.58,82.2,118.7,78.84,118.61,75.5z"/>
	<path class="st38" d="M97.79,88.5c-1.34-1.08-2.85-1.92-4.5-2.46c-0.36-0.12-0.51,0.45-0.16,0.57c2.76,0.93,5.2,2.77,6.86,5.15
		c1.8,2.58,2.6,5.72,2.33,8.85c-0.16,1.83-0.69,3.62-1.56,5.24c-0.2,0.37,0.36,0.69,0.56,0.33c1.63-3,2.08-6.58,1.33-9.91
		C101.98,93.22,100.21,90.47,97.79,88.5z"/>
	<path class="st38" d="M18.92,88.05c1.34-1.08,2.85-1.92,4.5-2.46c0.36-0.12,0.51,0.45,0.16,0.57c-2.76,0.93-5.2,2.77-6.86,5.15
		c-1.8,2.58-2.6,5.72-2.33,8.85c0.16,1.83,0.69,3.62,1.56,5.24c0.2,0.37-0.36,0.69-0.56,0.33c-1.63-3-2.08-6.58-1.33-9.91
		C14.73,92.77,16.49,90.01,18.92,88.05z"/>
	<path class="st38" d="M111.14,65.03c0-1.08-0.88-1.96-1.96-1.96c-1.08,0-1.96,0.88-1.96,1.96c0,1.08,0.88,1.96,1.96,1.96
		C110.26,66.99,111.14,66.11,111.14,65.03z"/>
	<g>
		<path class="st38" d="M15.52,64.2c0.5,1.16,0.64,2.45,0.71,3.7c0.18,3.19-0.2,5.57-0.1,8.67c0.07,2.41,0.46,4.89,1.62,7.03
			c0.28,0.52,0.61,1,0.98,1.46c0.23,0.29,0.64-0.12,0.41-0.41c-1.54-1.95-2.16-4.47-2.36-6.9c-0.23-2.88,0.11-5.77,0.08-8.65
			c-0.03-2.45-0.19-5.48-2.26-7.16c-0.91-0.74-2.03-1.16-3.17-1.36c-1.16-0.21-2.37-0.24-3.54-0.06c-1.14,0.17-2.28,0.6-3.12,1.41
			c-0.84,0.82-1.29,1.94-1.54,3.07c-0.28,1.29-0.39,2.62-0.51,3.93c-0.14,1.51-0.25,3.01-0.33,4.52c-0.16,2.99-0.19,5.99-0.1,8.98
			c0.08,2.61,0.25,5.23,0.75,7.8c0.48,2.49,1.29,4.95,2.6,7.13c1.32,2.19,3.14,4.04,5.22,5.52c0.5,0.36,1.03,0.68,1.56,0.99
			c0.35,0.21,0.67-0.34,0.32-0.55c-2.12-1.26-4.08-2.83-5.62-4.77c-1.55-1.96-2.54-4.28-3.17-6.68c-0.64-2.45-0.92-4.98-1.06-7.5
			c-0.16-2.85-0.18-5.72-0.1-8.57c0.09-2.92,0.3-5.84,0.63-8.75c0.13-1.13,0.28-2.31,0.76-3.35c0.48-1.05,1.29-1.85,2.37-2.27
			C7.63,61,8.8,60.92,9.94,60.99c1.12,0.06,2.26,0.27,3.27,0.77C14.26,62.28,15.06,63.12,15.52,64.2z"/>
		<g>
			<path class="st38" d="M98.79,104.43c-10.52,0.55-21.06,0.58-31.59,0.41c-10.49-0.17-20.97-0.51-31.46-0.67
				c-5.88-0.09-11.77-0.14-17.65,0c-0.34,0.01-0.35,0.54,0,0.54c10.54-0.1,21.08,0.07,31.62,0.32c10.48,0.24,20.97,0.51,31.45,0.44
				c5.88-0.04,11.76-0.18,17.64-0.51C99.13,104.93,99.13,104.41,98.79,104.43z"/>
		</g>
		<path class="st38" d="M8.37,62.52c-1.15,0-2.08,0.93-2.08,2.08c0,1.15,0.93,2.08,2.08,2.08c1.15,0,2.08-0.93,2.08-2.08
			C10.45,63.45,9.52,62.52,8.37,62.52z"/>
	</g>
	<path class="st38" d="M90.8,87.74c-4.38-0.08-8.76-0.08-13.14-0.12l-13.14-0.11c-8.76-0.08-17.53-0.15-26.29-0.23
		c-2.46-0.02-4.92-0.05-7.38-0.08c-1.21-0.01-2.41-0.02-3.62-0.03c-1.22-0.01-2.46-0.09-3.67,0.1c-0.17,0.03-0.17,0.32,0,0.35
		c1.08,0.19,2.17,0.14,3.27,0.16c1.07,0.01,2.15,0.02,3.22,0.03c2.19,0.01,4.38,0.03,6.57,0.04c4.38,0.03,8.76,0.07,13.14,0.1
		c8.76,0.07,17.52,0.14,26.29,0.21c4.92,0.04,9.84,0.12,14.75,0.11C91.13,88.27,91.13,87.75,90.8,87.74z"/>
	<path class="st9" d="M27.04,66.86c0.89,2.58,2.71,4.73,4.5,6.8c2.97,3.43,6.04,6.88,9.87,9.33c1.25,0.8,2.86,1.5,4.17,0.8
		c1.01-0.54,1.46-1.72,2.03-2.71c0.71-1.26,1.81-2.4,3.22-2.7c2.01-0.43,4.8,2.66,6.76,2.04c0.89-0.28,1.25-1.74,1.59-2.61
		c1.09-2.78,2.12-3.93,1.79-5.71c-0.15-0.82-0.56-1.56-1.02-2.25c-0.83-1.24-1.87-2.36-3.15-3.12c-1.95-1.17-4.3-1.42-6.54-1.84
		c-2.77-0.52-5.48-1.33-8.08-2.41c-3.21-1.34-6.57-3.13-9.98-2.41c-1.49,0.32-3.66,1.22-4.79,2.26
		C26.26,63.37,26.59,65.58,27.04,66.86z"/>
	<g>
		<path class="st45" d="M66.31,122.86c-0.39,0.4-0.89,0.7-1.39,0.96c-0.66,0.35-1.39,0.66-2.13,0.59c-0.76-0.07-1.44-0.54-1.91-1.14
			c-0.47-0.6-0.76-1.31-1.02-2.03c-0.05-0.15-0.1-0.3-0.16-0.45c-0.94-2.82-1.45-5.77-2.46-8.57c-0.34-0.92-1.06-2.09-1.07-3.09
			c-0.01-0.96,0.85-1.85,1.59-2.33c1.64-1.05,3.7-1.24,5.63-1.06c0.35,0.03,0.71,0.08,1.01,0.27c0.32,0.2,1.06,0.78,0.69,0.89
			c-0.68,0.21-0.1,1.51,0.08,2.17c0.78,3.02,1.88,5.87,2.15,8.97v0C67.5,119.74,67.49,121.65,66.31,122.86z"/>
		<path class="st46" d="M66.31,122.86c-0.39,0.4-0.89,0.7-1.39,0.96c-0.66,0.35-1.39,0.66-2.13,0.59c-0.76-0.07-1.44-0.54-1.91-1.14
			c-0.47-0.6-0.76-1.31-1.02-2.03c-0.05-0.15-0.1-0.3-0.16-0.45c0.04-0.04,0.07-0.08,0.12-0.12c1.14-1.09,2.55-1.93,4.03-2.46
			c1.12-0.4,2.42-0.6,3.49-0.16v0C67.5,119.74,67.49,121.65,66.31,122.86z"/>
	</g>
	<path class="st47" d="M46.87,75.11c-2.34,3.4,4.08,22.76,5.2,26.12c0.56,1.68,3.14,10.25,3.61,10.44
		c3.87,1.59,7.09,1.39,10.35-1.37c0.89-0.75-2.08-17.06-4.2-24.26c-1.31-4.47-2.52-11.14-6.5-13.82
		C52.45,70.28,48.88,72.2,46.87,75.11z"/>
	<g>
		<path class="st0" d="M58.87,98.42c-1.08,1.63-3.29,1.97-4.98,1.23c-0.43-0.19-0.86-0.44-1.29-0.72c-0.74-0.48-1.47-1.05-2.17-1.5
			c-0.63-0.41-1.26-0.81-1.89-1.21l-1.44-0.92c-1.2-0.77-2.39-1.53-3.59-2.3c-0.54-0.34-1.07-0.67-1.63-0.96
			c-0.36-0.19-0.8-0.33-0.95-0.79c-0.24-0.74,0.15-1.96,0.43-2.63c0.33-0.8,0.84-1.53,1.48-2.08c1.35-1.15,3.46-1.7,5.05-0.88
			c2.17,1.13,4.37,2.2,6.46,3.5c0.75,0.47,1.67,0.96,2.52,1.53c0.99,0.67,1.89,1.44,2.36,2.42C60.01,94.73,59.87,96.91,58.87,98.42z
			"/>
		<path class="st48" d="M58.87,98.42c-1.08,1.63-3.29,1.97-4.98,1.23c-0.43-0.19-0.86-0.44-1.29-0.72
			c-0.01-0.45,0.03-0.91,0.09-1.29c0.21-1.27,0.52-2.53,1.08-3.68c0.55-1.15,1.35-2.19,2.39-2.9c0.22-0.15,0.46-0.29,0.7-0.39
			c0.99,0.67,1.89,1.44,2.36,2.42C60.01,94.73,59.87,96.91,58.87,98.42z"/>
	</g>
	<path class="st47" d="M28.72,62.53c-1.48-0.96-3.01-1.9-4.71-2.32c-1.7-0.42-3.62-0.26-5.02,0.81c-0.48,0.37-0.89,0.83-1.24,1.34
		c-1.22,1.79-1.62,4.15-1.06,6.26c0.22,0.82,1.29,2.96,1.66,3.72c0.96,2.04,20.19,19.21,23.34,21.31c0.29,0.19,0.58,0.38,0.91,0.46
		c0.64,0.16,1.3-0.14,1.88-0.46c3.24-1.83,5.87-3.87,5.93-7.51c-6.48-5.45-11.47-12.32-16.99-18.79
		C32.09,65.82,30.4,63.64,28.72,62.53z"/>
	<g>
		<path class="st49" d="M76.02,55.74c-1.4,5.18-3.43,10.18-6.05,14.86c-1.1,1.96-2.25,4.42-3.85,6.03
			c-1.58,1.58-5.27,0.62-6.88-0.36c-4.56-2.77-6.43-8.63-8.11-13.35c-1.81-5.09-2.3-6.77-3.26-12.1c-0.69-3.84-0.9-12.96,4.52-14
			c2.48-0.48,3.36-0.21,5.93,0.15c1.41,0.2,0.09,0.42,1.51,1.5c2.61,2.01,5.5,1.02,6.84,0.96c1.07-0.05,1.59,0.84,2.77,0.62
			c1.37-0.25,2.49-0.21,3.61,0.73C76.97,44.1,77.24,51.22,76.02,55.74C74.13,62.77,76.56,53.75,76.02,55.74z"/>
	</g>
	<path class="st49" d="M55.81,40.89c1,0.76,4.22,5.66,5.02,7.63c0.12,0.3,0.71,1.29,0.6,1.51c-1.23,2.49-2.83,4.84-5.19,6.31
		c-0.25,0.16-0.54,0.3-0.83,0.23c-0.19-0.05-0.35-0.19-0.49-0.33c-1.48-1.45-2.51-3.28-3.46-5.12c-1.13-2.19-1.89-3.59-2.29-6.02
		c-0.21-1.3-0.14-3.06,0.5-4.22C51,38.52,53.94,39.47,55.81,40.89z"/>
	<path class="st9" d="M83.32,40.93c-0.27,2.99-0.28,6.16-0.85,9.1c-0.28,1.42-0.63,1.28-1.77,1.22c-1.26-0.07,0.15-0.97-0.89-0.43
		c-2.77,1.44-4.44-2.37-5.44-3.63c-0.88-0.1-2.48-1.58-2.79-2.29c-0.31-0.71-1.69-2.87-2.49-3.02c-2.43-0.46-3.34-3.14-3.74-5.11
		c-0.29-1.4-2.27-6.39-2.31-7.43c-0.06-1.32-0.21-0.66,0-1.91c0.19-1.16,0.1-1.91-5.42-6.72c-0.43-0.38,0.95-6.77,6.03-5.52
		c0.77,0.19,6.23,0.4,7.88,5.52c0.49,1.52,1.86,3.34,2.19,4.94c0.36,1.73,0.17,3.6,0.62,5.29c0.7,2.66,5.66,1.97,5.41,4.97
		c-0.17,2.01,0.14,2.2,2.08,2.23C83.3,38.18,83.43,39.72,83.32,40.93C83.07,43.73,83.41,39.98,83.32,40.93z"/>
	<g>
		<path class="st50" d="M86.59,47.32c0.22,0.35,0.44,0.7,0.62,1.07c0.55,1.09,0.82,2.31,0.8,3.53c-0.01,0.35-0.04,0.7-0.17,1.02
			c-0.3,0.72-1.13,1.17-1.89,1.03c-0.7-0.13-1.24-0.66-1.76-1.14c-0.54-0.5-1.12-0.96-1.71-1.39c-0.44-0.32-0.91-0.63-1.18-1.1
			c-0.37-0.63-0.31-1.43-0.1-2.14c0.21-0.7,0.54-1.37,0.7-2.09c0.12-0.54,0.14-1.11,0.32-1.64c0.15-0.45,0.49-0.9,0.99-0.7
			c0.49,0.2,0.95,0.58,1.33,0.93C85.35,45.47,86,46.39,86.59,47.32z"/>
	</g>
	<g>
		<path class="st35" d="M102,85.8c-0.11,1.29-1.63,2.05-2.86,1.81c-1.09-0.21-2-1.02-2.65-1.89c-0.96-1.29-1.84-2.42-3.1-3.42
			c-0.97-0.77-1.98-1.54-2.73-2.54c-0.12-0.16-0.27-0.4-0.41-0.69c-0.37-0.73-0.68-1.72-0.22-2.21c0.17-0.18,0.94-0.18,1.18-0.23
			c0.42-0.1,0.84-0.22,1.25-0.37c0.72-0.26,1.42-0.6,2.17-0.74c1.22-0.23,2,0.73,2.62,1.79c0.34,0.59,0.64,1.2,0.93,1.66
			c1,1.58,2.02,3.14,3.04,4.71c0.33,0.52,0.67,1.05,0.78,1.65C102,85.5,102.01,85.65,102,85.8z"/>
		<path class="st36" d="M102,85.8c-0.11,1.29-1.63,2.05-2.86,1.81c-1.09-0.21-2-1.02-2.65-1.89c-0.96-1.29-1.84-2.42-3.1-3.42
			c-0.97-0.77-1.98-1.54-2.73-2.54c-0.12-0.16-0.27-0.4-0.41-0.69c-0.37-0.73-0.68-1.72-0.22-2.21c0.17-0.18,0.94-0.18,1.18-0.23
			c0.42-0.1,0.84-0.22,1.25-0.37c0.72-0.26,1.42-0.6,2.17-0.74c1.22-0.23,2,0.73,2.62,1.79c-0.35,0.35-0.86,0.53-1.35,0.62
			c-0.58,0.1-1.17,0.09-1.75,0.17c-0.41,0.06-0.83,0.17-1.15,0.43c-0.33,0.26-0.54,0.68-0.46,1.09c0.11,0.55,0.68,0.84,1.17,1.12
			c0.85,0.49,1.6,1.15,2.21,1.92c0.48,0.62,0.87,1.3,1.32,1.95c0.44,0.65,0.96,1.26,1.63,1.67c0.67,0.4,1.52,0.57,2.25,0.29
			C101.47,86.41,101.79,86.14,102,85.8z"/>
	</g>
	<path class="st40" d="M67.46,78.66c-1.87-0.32-3.67-0.99-5.3-1.97c-0.35-0.21-0.7-0.44-0.93-0.78c-0.31-0.45-0.35-1.02-0.35-1.56
		c0-2.41,0.75-4.79,1.91-6.9c1.16-2.12,2.71-4,4.37-5.75c2.74-2.88,5.59-6.06,8.33-8.94c1.03-1.08,2.07-2.18,3.34-2.95
		c1.27-0.78,2.85-1.41,4.29-1.05c1.69,0.42,2.91,2.01,4.05,3.33c3.7,4.31,5.4,9.97,7.71,15.16c0.89,2,1.77,4,2.66,6.01
		c0.18,0.4,0.35,0.86,0.17,1.26c-0.11,0.23-0.33,0.39-0.53,0.54c-1.4,0.98-2.87,1.89-4.5,2.4c-1.63,0.51-3.44,0.59-5.02-0.06
		c-0.21-0.09-0.41-0.19-0.56-0.36c-0.14-0.16-0.2-0.37-0.27-0.57c-1.09-3.23-3.54-5.89-4.48-9.16c-1.39,3.02-3.37,5.94-5.94,8.05
		C73.84,77.46,70.74,79.23,67.46,78.66z"/>
	<path class="st51" d="M82.52,67.54c-0.69-1.33-2.43-5.12-2.99-6.49c-0.32-0.77-0.48-1.56-0.52-2.37"/>
	<g>
		<path class="st41" d="M32.05,35.84c-0.62-1.05-1.41-2.03-2.45-2.66c-1.04-0.63-2.36-0.88-3.5-0.44c-1.13,0.44-1.94,1.5-2.35,2.64
			c-0.41,1.14-0.47,2.38-0.5,3.59c-0.17,7.12,1.11,13.22,2.62,20.17c0.29,1.36,1.74,3.65,2.9,4.41c0.65,0.42,1.45,0.54,2.22,0.61
			c2.16,0.19,2.86,0.25,4.97-0.23c0.48-0.11,0.99-0.26,1.31-0.63c0.34-0.39,0.4-0.94,0.4-1.46c0-1.34-0.3-2.66-0.61-3.96
			c-0.47-2-0.99-3.99-1.28-6.03C35.49,49.75,33.74,38.69,32.05,35.84z"/>
		<path class="st52" d="M28.22,53.24c0.36-0.04,0.7-0.15,1.05-0.23c0.32-0.08,0.65-0.15,0.98-0.21c0.69-0.13,1.39-0.23,2.09-0.28
			c0.69-0.05,1.39-0.07,2.08-0.05c0.35,0.01,0.69,0.03,1.04,0.05c0.18,0.01,0.36,0.03,0.54,0.05"/>
		<g>
			<path class="st41" d="M35.2,52.53c-2.72,1.28-2.31,5.66-1.57,7.81c1.5,4.4,3.49,3.51,6.87,2.57c4.43-1.25,2.92-3.96,1.76-6.95
				C40.3,50.86,36.03,52.14,35.2,52.53z"/>
		</g>
		<path class="st50" d="M58.71,47.02c-0.15,0.18-0.78,0.32-0.99,0.42c0.56,0.32,0.89,0.73,0.51,1.1c-0.46,0.46-2.01,0.44-2.65,0.44
			c0.07,0,3.4-0.34,1.84,1.1c-0.96,0.88-2.53,0.06-4.04,1.84c-0.81,0.95-7.44,7.14-8.43,7.81c-0.77,0.52-1.82,1.23-2.81,0.97
			c-0.99-0.25-1.93-1.16-2.47-2c-1.08-1.67-1.05-3.96-0.01-5.64c0.33-0.53,3.94-0.55,7.39-2.49c0.75-0.42,1.69-1.69,2.01-2.46
			c0.32-0.78,0.94-1.7,1.59-2.29c0.77-0.69,1.81-0.77,2.78-0.88c0.9-0.1,1.82-0.19,2.72-0.19c0.64,0,2.1,0.41,1.06,1.18
			C57.88,45.58,59.04,46.33,58.71,47.02C58.61,47.23,58.9,46.8,58.71,47.02C58.55,47.19,58.9,46.8,58.71,47.02z"/>
	</g>
	<path class="st0" d="M57.11,47.12c-0.65,0.08-1.3,0.2-1.94,0.34c-0.91,0.19-1.96,0.37-2.81,0.77"/>
	<g>
		<path class="st46" d="M75.41,42.66c-0.12,0-0.23,0-0.34,0.04c-0.2,0.06-0.36,0.21-0.47,0.38c-0.11,0.18-0.17,0.38-0.2,0.58
			c-0.07,0.45-0.02,0.92,0.15,1.35c0.08,0.19,0.17,0.37,0.31,0.51c0.14,0.15,0.32,0.25,0.52,0.28c0.14,0.02,0.29-0.01,0.37-0.12
			c0.11-0.15,0.03-0.35-0.04-0.51c-0.14-0.31-0.28-0.64-0.3-0.99c-0.01-0.16,0.01-0.32,0.09-0.45c0.09-0.13,0.25-0.22,0.4-0.17
			c0.13,0.04,0.21,0.17,0.31,0.27c0.1,0.1,0.25,0.18,0.37,0.11c0.08-0.05,0.11-0.16,0.11-0.26C76.67,43.02,76.01,42.68,75.41,42.66z
			"/>
		<polygon class="st0" points="82.86,48.45 76.83,48.45 75.76,41.38 83.4,41.38 		"/>
		<path class="st46" d="M83.4,41.38c0,0.26-0.42,0.49-1.11,0.66c-0.69,0.17-1.65,0.28-2.71,0.28s-2.02-0.1-2.71-0.28
			c-0.68-0.17-1.11-0.4-1.11-0.66c0-0.52,1.71-0.94,3.82-0.94C81.69,40.44,83.4,40.86,83.4,41.38z"/>
		<path class="st54" d="M82.29,42.03c-0.69,0.17-1.65,0.28-2.71,0.28s-2.02-0.1-2.71-0.28c0.55-0.52,1.56-0.86,2.71-0.86
			C80.73,41.17,81.75,41.52,82.29,42.03z"/>
	</g>
	<path class="st50" d="M83.5,47.61c0.36,0.17,0.13,0.69-0.26,0.81c-0.39,0.12-0.81,0-1.22,0.01c-0.89,0.01-1.64,0.56-2.5,0.72
		c-0.93,0.18-1.98-0.1-2.83,0.27c-0.66,0.29-1.03,0.89-1.35,1.46c-1.05,1.84-2.25,3.49-3.77,5.08c-1.52,1.59-3.48,3.1-5.86,3.16
		c-1.73,0.04-7.59-2.76-8.6-3.16c0.12-0.24,2.91-2.41,4.12-5.12c-0.3-0.2,2.21,1.61,4.41,1.32c0.36-0.05,0.62-0.27,0.89-0.48
		c0.01,0,0.01-0.01,0.02-0.01c1.83-1.46,3.1-2.91,4.76-4.16c2.2-1.66,3.96-3.08,7.68-3.35c1.11-0.08,2.22,0.09,3.31,0.26
		c0.36,0.06,0.79,0.18,0.87,0.48c0.04,0.14-0.01,0.31,0.08,0.43c0.07,0.09,0.2,0.13,0.31,0.19c0.42,0.23,0.47,0.82,0.1,1.1
		C83.99,46.87,83.91,47.42,83.5,47.61z"/>
	<path class="st9" d="M37.43,20.12C31.7,14.6,30.08,4.85,38.38,1c3.83-1.78,8.05-1.12,11.48,1.51c3.78,2.9,1.43,7.35-1.83,9.79"/>
	<path class="st42" d="M54.12,14.08c-0.21-0.39-1.31-0.59-2.67-2.18c-1.53-1.78-1.64-4.85-1.64-4.85c-1.7,1.15-3.33,1.52-4.99,0.36
		c-3.93-2.74-6.72,3.58-6.72,3.58l-0.36,0.88c0,0-2.04-1.43-2.61,0.3c-0.87,2.65,2.03,3.02,2.03,3.02s1.21,11.47-0.02,11.63
		c-0.75,0.1-1.08,0.33-1.21,0.8c-0.18,0.69,2.21,3.91,7.63,4.52c6.03,0.67,4.63-4.65,4.67-5.37c0.01-0.19-0.95-0.35-1.76-0.65
		l-0.4-2.37c0,0,2.77,0.05,4.49-1.38c1.73-1.42,1.37-5.94,1.95-5.9C53.1,16.53,54.79,15.31,54.12,14.08z"/>
	<path class="st55" d="M48.44,18.12c0,0,1.09,0.94,3.5,0.64"/>
	<path class="st9" d="M46.73,11.63c-0.1,0.42,0.16,0.84,0.58,0.94c0.42,0.1,0.84-0.15,0.94-0.57c0.1-0.42-0.16-0.84-0.58-0.94
		C47.25,10.96,46.83,11.21,46.73,11.63"/>
	<path class="st50" d="M61.97,26.22c0,0,1.09-2.11,2.45-0.68c1.73,1.81-1.26,2.65-1.26,2.65"/>
	<path class="st42" d="M57.09,46.01c0,0-1.51-0.06-2.48,0.06"/>
	<path class="st50" d="M83.52,45.41c0,0-0.19-0.23-0.9-0.12"/>
	<path class="st50" d="M83.57,46.62c0,0-0.19-0.23-0.9-0.12"/>
	<path class="st50" d="M83.62,47.57c0,0-0.19-0.23-0.9-0.12"/>
	<path class="st42" d="M57.44,47.44c0,0-1.44,0.1-2.41,0.23"/>
	<path class="st9" d="M56.65,23.47c-0.19,0.3-0.09,0.69,0.21,0.89c0.3,0.2,0.71,0.11,0.89-0.18c0.19-0.3,0.1-0.69-0.21-0.89
		C57.24,23.1,56.84,23.18,56.65,23.47"/>
	<g>
		<path class="st56" d="M56.69,30.08c-0.21,0.16-0.71,0.55-1.36,0.52c-0.33-0.02-0.83-0.37-0.94-0.62"/>
	</g>
	<path class="st9" d="M60.43,14.6c-0.3,0-2.81-0.1-4.22,1s-2.71,3.51-2.61,4.32s0.7,2.21,0.7,2.21s0-0.4,0.5-0.9
		c0.5-0.5,0.4-0.6,0.7-1.2c0.3-0.6,0.3-1,0.7-0.7c0.4,0.3,0.4,1,1,1.56c0.41,0.37,3.91,4.48,5.12,4.68
		c0.31,0.05,0.71-10.45,0.71-10.45L60.43,14.6z"/>
</g>
</svg>
